%TF.GenerationSoftware,KiCad,Pcbnew,6.0.7*%
%TF.CreationDate,2022-09-29T13:58:53+02:00*%
%TF.ProjectId,HP_device,48505f64-6576-4696-9365-2e6b69636164,rev?*%
%TF.SameCoordinates,Original*%
%TF.FileFunction,Copper,L2,Bot*%
%TF.FilePolarity,Positive*%
%FSLAX46Y46*%
G04 Gerber Fmt 4.6, Leading zero omitted, Abs format (unit mm)*
G04 Created by KiCad (PCBNEW 6.0.7) date 2022-09-29 13:58:53*
%MOMM*%
%LPD*%
G01*
G04 APERTURE LIST*
%TA.AperFunction,ComponentPad*%
%ADD10R,1.600000X1.600000*%
%TD*%
%TA.AperFunction,ComponentPad*%
%ADD11O,1.600000X1.600000*%
%TD*%
%TA.AperFunction,ComponentPad*%
%ADD12C,1.600000*%
%TD*%
%TA.AperFunction,ComponentPad*%
%ADD13O,1.800000X1.800000*%
%TD*%
%TA.AperFunction,ComponentPad*%
%ADD14R,1.800000X1.800000*%
%TD*%
%TA.AperFunction,ComponentPad*%
%ADD15C,2.600000*%
%TD*%
%TA.AperFunction,ComponentPad*%
%ADD16R,2.600000X2.600000*%
%TD*%
%TA.AperFunction,ComponentPad*%
%ADD17O,1.400000X1.400000*%
%TD*%
%TA.AperFunction,ComponentPad*%
%ADD18C,1.400000*%
%TD*%
%TA.AperFunction,ComponentPad*%
%ADD19R,2.000000X2.000000*%
%TD*%
%TA.AperFunction,ComponentPad*%
%ADD20C,2.000000*%
%TD*%
%TA.AperFunction,ComponentPad*%
%ADD21R,1.500000X1.050000*%
%TD*%
%TA.AperFunction,ComponentPad*%
%ADD22O,1.500000X1.050000*%
%TD*%
%TA.AperFunction,ComponentPad*%
%ADD23O,1.050000X1.500000*%
%TD*%
%TA.AperFunction,ComponentPad*%
%ADD24R,1.050000X1.500000*%
%TD*%
%TA.AperFunction,ComponentPad*%
%ADD25C,1.500000*%
%TD*%
%TA.AperFunction,ViaPad*%
%ADD26C,0.800000*%
%TD*%
%TA.AperFunction,Conductor*%
%ADD27C,0.350000*%
%TD*%
%TA.AperFunction,Conductor*%
%ADD28C,0.250000*%
%TD*%
%TA.AperFunction,Conductor*%
%ADD29C,0.200000*%
%TD*%
G04 APERTURE END LIST*
D10*
%TO.P,U7,1*%
%TO.N,Net-(R3-Pad1)*%
X89535000Y-61722000D03*
D11*
%TO.P,U7,2*%
%TO.N,Net-(U7-Pad2)*%
X89535000Y-59182000D03*
%TO.P,U7,3,NC*%
%TO.N,unconnected-(U7-Pad3)*%
X89535000Y-56642000D03*
%TO.P,U7,4*%
%TO.N,GND*%
X81915000Y-56642000D03*
%TO.P,U7,5*%
%TO.N,/EHS*%
X81915000Y-59182000D03*
%TO.P,U7,6*%
%TO.N,unconnected-(U7-Pad6)*%
X81915000Y-61722000D03*
%TD*%
D12*
%TO.P,C3,2*%
%TO.N,GND*%
X32044000Y-51816000D03*
%TO.P,C3,1*%
%TO.N,+5V*%
X34544000Y-51816000D03*
%TD*%
D13*
%TO.P,D1,2,A*%
%TO.N,Net-(D1-Pad2)*%
X40640000Y-41656000D03*
D14*
%TO.P,D1,1,K*%
%TO.N,+5V*%
X40640000Y-51816000D03*
%TD*%
D13*
%TO.P,D2,2,A*%
%TO.N,/RS-*%
X40386000Y-37592000D03*
D14*
%TO.P,D2,1,K*%
%TO.N,/RS+*%
X40386000Y-27432000D03*
%TD*%
D13*
%TO.P,D3,2,A*%
%TO.N,/RS-*%
X48260000Y-34290000D03*
D14*
%TO.P,D3,1,K*%
%TO.N,GND*%
X48260000Y-44450000D03*
%TD*%
D15*
%TO.P,J1,2,Pin_2*%
%TO.N,/RS-*%
X31750000Y-35000000D03*
D16*
%TO.P,J1,1,Pin_1*%
%TO.N,/RS+*%
X31750000Y-30000000D03*
%TD*%
D15*
%TO.P,J2,2,Pin_2*%
%TO.N,Net-(D1-Pad2)*%
X31750000Y-45000000D03*
D16*
%TO.P,J2,1,Pin_1*%
%TO.N,GND*%
X31750000Y-40000000D03*
%TD*%
D11*
%TO.P,U5,8,VCC*%
%TO.N,+5V*%
X66040000Y-35560000D03*
%TO.P,U5,7,B*%
%TO.N,/RS-*%
X66040000Y-33020000D03*
%TO.P,U5,6,A*%
%TO.N,/RS+*%
X66040000Y-30480000D03*
%TO.P,U5,5,GND*%
%TO.N,GND*%
X66040000Y-27940000D03*
%TO.P,U5,4,D*%
%TO.N,TXD*%
X73660000Y-27940000D03*
%TO.P,U5,3,DE*%
%TO.N,DRIVE*%
X73660000Y-30480000D03*
%TO.P,U5,2,NRE*%
X73660000Y-33020000D03*
D10*
%TO.P,U5,1,R*%
%TO.N,RXD*%
X73660000Y-35560000D03*
%TD*%
D17*
%TO.P,R8,2*%
%TO.N,/RS-*%
X52070000Y-34544000D03*
D18*
%TO.P,R8,1*%
%TO.N,/RS+*%
X52070000Y-29464000D03*
%TD*%
D13*
%TO.P,D4,2,A*%
%TO.N,/RS+*%
X44450000Y-27432000D03*
D14*
%TO.P,D4,1,K*%
%TO.N,GND*%
X44450000Y-37592000D03*
%TD*%
D12*
%TO.P,C1,1*%
%TO.N,Net-(C1-Pad1)*%
X67310000Y-44410000D03*
%TO.P,C1,2*%
%TO.N,GND*%
X67310000Y-41910000D03*
%TD*%
%TO.P,C2,1*%
%TO.N,Net-(C2-Pad1)*%
X71120000Y-44410000D03*
%TO.P,C2,2*%
%TO.N,GND*%
X71120000Y-41910000D03*
%TD*%
D15*
%TO.P,J3,2,Pin_2*%
%TO.N,Net-(U6-Pad2)*%
X106045000Y-46515000D03*
D16*
%TO.P,J3,1,Pin_1*%
%TO.N,Net-(R2-Pad2)*%
X106045000Y-51515000D03*
%TD*%
D15*
%TO.P,J4,2,Pin_2*%
%TO.N,Net-(U7-Pad2)*%
X106045000Y-56515000D03*
D16*
%TO.P,J4,1,Pin_1*%
%TO.N,Net-(R3-Pad2)*%
X106045000Y-61515000D03*
%TD*%
D15*
%TO.P,J5,2,Pin_2*%
%TO.N,Net-(J5-Pad2)*%
X106045000Y-36515000D03*
D16*
%TO.P,J5,1,Pin_1*%
%TO.N,Net-(J5-Pad1)*%
X106045000Y-41515000D03*
%TD*%
D15*
%TO.P,J6,2,Pin_2*%
%TO.N,Net-(J6-Pad2)*%
X106045000Y-26515000D03*
D16*
%TO.P,J6,1,Pin_1*%
%TO.N,Net-(J6-Pad1)*%
X106045000Y-31515000D03*
%TD*%
%TO.P,J7,1,Pin_1*%
%TO.N,Net-(U2-Pad6)*%
X30395000Y-96135000D03*
D15*
%TO.P,J7,2,Pin_2*%
%TO.N,Net-(U2-Pad5)*%
X35395000Y-96135000D03*
%TD*%
D16*
%TO.P,J8,1,Pin_1*%
%TO.N,Net-(J8-Pad1)*%
X40555000Y-96135000D03*
D15*
%TO.P,J8,2,Pin_2*%
%TO.N,Net-(J8-Pad2)*%
X45555000Y-96135000D03*
%TD*%
D16*
%TO.P,J9,1,Pin_1*%
%TO.N,/DHWA*%
X52070000Y-95885000D03*
D15*
%TO.P,J9,2,Pin_2*%
%TO.N,/DHWB*%
X57070000Y-95885000D03*
%TD*%
D16*
%TO.P,J10,1,Pin_1*%
%TO.N,/ONA*%
X62070000Y-95885000D03*
D15*
%TO.P,J10,2,Pin_2*%
%TO.N,/ONB*%
X67070000Y-95885000D03*
%TD*%
D16*
%TO.P,J11,1,Pin_1*%
%TO.N,/DSETA*%
X72070000Y-95885000D03*
D15*
%TO.P,J11,2,Pin_2*%
%TO.N,/DSETB*%
X77070000Y-95885000D03*
%TD*%
D16*
%TO.P,J12,1,Pin_1*%
%TO.N,/OPMA*%
X82070000Y-95885000D03*
D15*
%TO.P,J12,2,Pin_2*%
%TO.N,/OPMB*%
X87070000Y-95885000D03*
%TD*%
D16*
%TO.P,J13,1,Pin_1*%
%TO.N,/NOCA*%
X92070000Y-95885000D03*
D15*
%TO.P,J13,2,Pin_2*%
%TO.N,/NOCB*%
X97070000Y-95885000D03*
%TD*%
D16*
%TO.P,J14,1,Pin_1*%
%TO.N,/LTA*%
X102070000Y-95885000D03*
D15*
%TO.P,J14,2,Pin_2*%
%TO.N,/LTB*%
X107070000Y-95885000D03*
%TD*%
D19*
%TO.P,K1,1*%
%TO.N,unconnected-(K1-Pad1)*%
X51825000Y-76835000D03*
D20*
%TO.P,K1,2*%
%TO.N,+5V*%
X51825000Y-79375000D03*
%TO.P,K1,5*%
%TO.N,/DHWB*%
X51825000Y-86995000D03*
%TO.P,K1,6*%
X56905000Y-86995000D03*
%TO.P,K1,9*%
%TO.N,/C_DHW*%
X56905000Y-79375000D03*
%TO.P,K1,10*%
%TO.N,/DHWA*%
X56905000Y-76835000D03*
%TD*%
D19*
%TO.P,K2,1*%
%TO.N,unconnected-(K2-Pad1)*%
X61858000Y-76835000D03*
D20*
%TO.P,K2,2*%
%TO.N,+5V*%
X61858000Y-79375000D03*
%TO.P,K2,5*%
%TO.N,/ONB*%
X61858000Y-86995000D03*
%TO.P,K2,6*%
X66938000Y-86995000D03*
%TO.P,K2,9*%
%TO.N,/C_ON*%
X66938000Y-79375000D03*
%TO.P,K2,10*%
%TO.N,/ONA*%
X66938000Y-76835000D03*
%TD*%
D19*
%TO.P,K3,1*%
%TO.N,unconnected-(K3-Pad1)*%
X71891000Y-76835000D03*
D20*
%TO.P,K3,2*%
%TO.N,+5V*%
X71891000Y-79375000D03*
%TO.P,K3,5*%
%TO.N,/DSETB*%
X71891000Y-86995000D03*
%TO.P,K3,6*%
X76971000Y-86995000D03*
%TO.P,K3,9*%
%TO.N,/C_DSET*%
X76971000Y-79375000D03*
%TO.P,K3,10*%
%TO.N,/DSETA*%
X76971000Y-76835000D03*
%TD*%
D19*
%TO.P,K4,1*%
%TO.N,unconnected-(K4-Pad1)*%
X81924000Y-76835000D03*
D20*
%TO.P,K4,2*%
%TO.N,+5V*%
X81924000Y-79375000D03*
%TO.P,K4,5*%
%TO.N,/OPMB*%
X81924000Y-86995000D03*
%TO.P,K4,6*%
X87004000Y-86995000D03*
%TO.P,K4,9*%
%TO.N,/C_OPM*%
X87004000Y-79375000D03*
%TO.P,K4,10*%
%TO.N,/OPMA*%
X87004000Y-76835000D03*
%TD*%
D19*
%TO.P,K5,1*%
%TO.N,unconnected-(K5-Pad1)*%
X91957000Y-76835000D03*
D20*
%TO.P,K5,2*%
%TO.N,+5V*%
X91957000Y-79375000D03*
%TO.P,K5,5*%
%TO.N,/NOCB*%
X91957000Y-86995000D03*
%TO.P,K5,6*%
X97037000Y-86995000D03*
%TO.P,K5,9*%
%TO.N,/C_NOC*%
X97037000Y-79375000D03*
%TO.P,K5,10*%
%TO.N,/NOCA*%
X97037000Y-76835000D03*
%TD*%
D19*
%TO.P,K6,1*%
%TO.N,unconnected-(K6-Pad1)*%
X101990000Y-76835000D03*
D20*
%TO.P,K6,2*%
%TO.N,+5V*%
X101990000Y-79375000D03*
%TO.P,K6,5*%
%TO.N,/LTB*%
X101990000Y-86995000D03*
%TO.P,K6,6*%
X107070000Y-86995000D03*
%TO.P,K6,9*%
%TO.N,/C_LT*%
X107070000Y-79375000D03*
%TO.P,K6,10*%
%TO.N,/LTA*%
X107070000Y-76835000D03*
%TD*%
D21*
%TO.P,Q1,1,D*%
%TO.N,Net-(Q1-Pad1)*%
X32227500Y-77216000D03*
D22*
%TO.P,Q1,2,G*%
%TO.N,/W_CSEL*%
X32227500Y-75946000D03*
%TO.P,Q1,3,S*%
%TO.N,GND*%
X32227500Y-74676000D03*
%TD*%
D23*
%TO.P,Q2,3,S*%
%TO.N,GND*%
X55635000Y-71480000D03*
%TO.P,Q2,2,G*%
%TO.N,/DHW*%
X54365000Y-71480000D03*
D24*
%TO.P,Q2,1,D*%
%TO.N,/C_DHW*%
X53095000Y-71480000D03*
%TD*%
%TO.P,Q3,1,D*%
%TO.N,/C_ON*%
X63128000Y-71480000D03*
D23*
%TO.P,Q3,2,G*%
%TO.N,/ON*%
X64398000Y-71480000D03*
%TO.P,Q3,3,S*%
%TO.N,GND*%
X65668000Y-71480000D03*
%TD*%
D24*
%TO.P,Q4,1,D*%
%TO.N,/C_DSET*%
X73161000Y-71480000D03*
D23*
%TO.P,Q4,2,G*%
%TO.N,/DSET*%
X74431000Y-71480000D03*
%TO.P,Q4,3,S*%
%TO.N,GND*%
X75701000Y-71480000D03*
%TD*%
D24*
%TO.P,Q5,1,D*%
%TO.N,/C_OPM*%
X83194000Y-71480000D03*
D23*
%TO.P,Q5,2,G*%
%TO.N,/OPM*%
X84464000Y-71480000D03*
%TO.P,Q5,3,S*%
%TO.N,GND*%
X85734000Y-71480000D03*
%TD*%
D24*
%TO.P,Q6,1,D*%
%TO.N,/C_NOC*%
X93227000Y-71480000D03*
D23*
%TO.P,Q6,2,G*%
%TO.N,/NOC*%
X94497000Y-71480000D03*
%TO.P,Q6,3,S*%
%TO.N,GND*%
X95767000Y-71480000D03*
%TD*%
D24*
%TO.P,Q7,1,D*%
%TO.N,/C_LT*%
X103260000Y-71480000D03*
D23*
%TO.P,Q7,2,G*%
%TO.N,/LT*%
X104530000Y-71480000D03*
%TO.P,Q7,3,S*%
%TO.N,GND*%
X105800000Y-71480000D03*
%TD*%
D18*
%TO.P,R1,1*%
%TO.N,+5V*%
X36322000Y-73406000D03*
D17*
%TO.P,R1,2*%
%TO.N,Net-(Q1-Pad1)*%
X36322000Y-78486000D03*
%TD*%
D12*
%TO.P,R2,1*%
%TO.N,Net-(R2-Pad1)*%
X93472000Y-46736000D03*
D11*
%TO.P,R2,2*%
%TO.N,Net-(R2-Pad2)*%
X93472000Y-61976000D03*
%TD*%
%TO.P,R3,2*%
%TO.N,Net-(R3-Pad2)*%
X97282000Y-61976000D03*
D12*
%TO.P,R3,1*%
%TO.N,Net-(R3-Pad1)*%
X97282000Y-46736000D03*
%TD*%
D11*
%TO.P,R4,2*%
%TO.N,Net-(J5-Pad2)*%
X93095000Y-24630000D03*
D12*
%TO.P,R4,1*%
%TO.N,Net-(R4-Pad1)*%
X93095000Y-39870000D03*
%TD*%
D11*
%TO.P,R5,2*%
%TO.N,Net-(J6-Pad2)*%
X96905000Y-24630000D03*
D12*
%TO.P,R5,1*%
%TO.N,Net-(R5-Pad1)*%
X96905000Y-39870000D03*
%TD*%
D18*
%TO.P,R6,1*%
%TO.N,+5V*%
X45075500Y-78486000D03*
D17*
%TO.P,R6,2*%
%TO.N,/SERDATA*%
X45075500Y-73406000D03*
%TD*%
D18*
%TO.P,R7,1*%
%TO.N,+5V*%
X39456500Y-78486000D03*
D17*
%TO.P,R7,2*%
%TO.N,/W_CSEL*%
X39456500Y-73406000D03*
%TD*%
D10*
%TO.P,RN1,1,common*%
%TO.N,+5V*%
X76200000Y-61595000D03*
D11*
%TO.P,RN1,2,R1*%
%TO.N,/EHS*%
X76200000Y-59055000D03*
%TO.P,RN1,3,R2*%
%TO.N,/MODE*%
X76200000Y-56515000D03*
%TO.P,RN1,4,R3*%
%TO.N,/BCKUP*%
X76200000Y-53975000D03*
%TO.P,RN1,5,R4*%
%TO.N,/ALARM*%
X76200000Y-51435000D03*
%TD*%
D10*
%TO.P,U1,1,RST/VPP*%
%TO.N,Net-(Q8-Pad1)*%
X71120000Y-47625000D03*
D11*
%TO.P,U1,2,P3.0*%
%TO.N,RXD*%
X68580000Y-47625000D03*
%TO.P,U1,3,P3.1*%
%TO.N,TXD*%
X66040000Y-47625000D03*
%TO.P,U1,4,XTAL2*%
%TO.N,Net-(C2-Pad1)*%
X63500000Y-47625000D03*
%TO.P,U1,5,XTAL1*%
%TO.N,Net-(C1-Pad1)*%
X60960000Y-47625000D03*
%TO.P,U1,6,P3.2*%
%TO.N,DRIVE*%
X58420000Y-47625000D03*
%TO.P,U1,7,P3.3*%
%TO.N,/ALARM*%
X55880000Y-47625000D03*
%TO.P,U1,8,P3.4*%
%TO.N,/BCKUP*%
X53340000Y-47625000D03*
%TO.P,U1,9,P3.5*%
%TO.N,/MODE*%
X50800000Y-47625000D03*
%TO.P,U1,10,GND*%
%TO.N,GND*%
X48260000Y-47625000D03*
%TO.P,U1,11,P3.7*%
%TO.N,/EHS*%
X48260000Y-55245000D03*
%TO.P,U1,12,P1.0*%
%TO.N,/W_CSEL*%
X50800000Y-55245000D03*
%TO.P,U1,13,P1.1*%
%TO.N,/W_SCK*%
X53340000Y-55245000D03*
%TO.P,U1,14,P1.2*%
%TO.N,/W_SDO*%
X55880000Y-55245000D03*
%TO.P,U1,15,P1.3*%
%TO.N,/SERDATA*%
X58420000Y-55245000D03*
%TO.P,U1,16,P1.4*%
%TO.N,/NOE*%
X60960000Y-55245000D03*
%TO.P,U1,17,P1.5*%
%TO.N,/STCP*%
X63500000Y-55245000D03*
%TO.P,U1,18,P1.6*%
%TO.N,/SHCP*%
X66040000Y-55245000D03*
%TO.P,U1,19,P1.7*%
%TO.N,/NMR*%
X68580000Y-55245000D03*
%TO.P,U1,20,VCC*%
%TO.N,+5V*%
X71120000Y-55245000D03*
%TD*%
D10*
%TO.P,U2,1,~{CS}*%
%TO.N,Net-(Q1-Pad1)*%
X29210000Y-81225000D03*
D11*
%TO.P,U2,2,SCK*%
%TO.N,/W_SCK*%
X29210000Y-83765000D03*
%TO.P,U2,3,SDI*%
%TO.N,/SERDATA*%
X29210000Y-86305000D03*
%TO.P,U2,4,VSS*%
%TO.N,GND*%
X29210000Y-88845000D03*
%TO.P,U2,5,P0W*%
%TO.N,Net-(U2-Pad5)*%
X36830000Y-88845000D03*
%TO.P,U2,6,P0B*%
%TO.N,Net-(U2-Pad6)*%
X36830000Y-86305000D03*
%TO.P,U2,7,SDO*%
%TO.N,/W_SDO*%
X36830000Y-83765000D03*
%TO.P,U2,8,VDD*%
%TO.N,+5V*%
X36830000Y-81225000D03*
%TD*%
%TO.P,U3,8,VDD*%
%TO.N,+5V*%
X46990000Y-81225000D03*
%TO.P,U3,7,SDO*%
%TO.N,/W_SDO*%
X46990000Y-83765000D03*
%TO.P,U3,6,P0B*%
%TO.N,Net-(J8-Pad2)*%
X46990000Y-86305000D03*
%TO.P,U3,5,P0W*%
%TO.N,Net-(J8-Pad1)*%
X46990000Y-88845000D03*
%TO.P,U3,4,VSS*%
%TO.N,GND*%
X39370000Y-88845000D03*
%TO.P,U3,3,SDI*%
%TO.N,/SERDATA*%
X39370000Y-86305000D03*
%TO.P,U3,2,SCK*%
%TO.N,/W_SCK*%
X39370000Y-83765000D03*
D10*
%TO.P,U3,1,~{CS}*%
%TO.N,/W_CSEL*%
X39370000Y-81225000D03*
%TD*%
%TO.P,U4,1,QB*%
%TO.N,/DHW*%
X51435000Y-66040000D03*
D11*
%TO.P,U4,2,QC*%
%TO.N,/ON*%
X53975000Y-66040000D03*
%TO.P,U4,3,QD*%
%TO.N,/DSET*%
X56515000Y-66040000D03*
%TO.P,U4,4,QE*%
%TO.N,/OPM*%
X59055000Y-66040000D03*
%TO.P,U4,5,QF*%
%TO.N,/NOC*%
X61595000Y-66040000D03*
%TO.P,U4,6,QG*%
%TO.N,/LT*%
X64135000Y-66040000D03*
%TO.P,U4,7,QH*%
%TO.N,unconnected-(U4-Pad7)*%
X66675000Y-66040000D03*
%TO.P,U4,8,GND*%
%TO.N,GND*%
X69215000Y-66040000D03*
%TO.P,U4,9,QH'*%
%TO.N,unconnected-(U4-Pad9)*%
X69215000Y-58420000D03*
%TO.P,U4,10,~{SRCLR}*%
%TO.N,/NMR*%
X66675000Y-58420000D03*
%TO.P,U4,11,SRCLK*%
%TO.N,/SHCP*%
X64135000Y-58420000D03*
%TO.P,U4,12,RCLK*%
%TO.N,/STCP*%
X61595000Y-58420000D03*
%TO.P,U4,13,~{OE}*%
%TO.N,/NOE*%
X59055000Y-58420000D03*
%TO.P,U4,14,SER*%
%TO.N,/SERDATA*%
X56515000Y-58420000D03*
%TO.P,U4,15,QA*%
%TO.N,WD*%
X53975000Y-58420000D03*
%TO.P,U4,16,VCC*%
%TO.N,+5V*%
X51435000Y-58420000D03*
%TD*%
%TO.P,U6,6*%
%TO.N,unconnected-(U6-Pad6)*%
X81915000Y-52197000D03*
%TO.P,U6,5*%
%TO.N,/MODE*%
X81915000Y-49657000D03*
%TO.P,U6,4*%
%TO.N,GND*%
X81915000Y-47117000D03*
%TO.P,U6,3,NC*%
%TO.N,unconnected-(U6-Pad3)*%
X89535000Y-47117000D03*
%TO.P,U6,2*%
%TO.N,Net-(U6-Pad2)*%
X89535000Y-49657000D03*
D10*
%TO.P,U6,1*%
%TO.N,Net-(R2-Pad1)*%
X89535000Y-52197000D03*
%TD*%
D11*
%TO.P,U8,6*%
%TO.N,unconnected-(U8-Pad6)*%
X81915000Y-39850000D03*
%TO.P,U8,5*%
%TO.N,/BCKUP*%
X81915000Y-37310000D03*
%TO.P,U8,4*%
%TO.N,GND*%
X81915000Y-34770000D03*
%TO.P,U8,3,NC*%
%TO.N,unconnected-(U8-Pad3)*%
X89535000Y-34770000D03*
%TO.P,U8,2*%
%TO.N,Net-(J5-Pad1)*%
X89535000Y-37310000D03*
D10*
%TO.P,U8,1*%
%TO.N,Net-(R4-Pad1)*%
X89535000Y-39850000D03*
%TD*%
D11*
%TO.P,U9,6*%
%TO.N,unconnected-(U9-Pad6)*%
X81915000Y-30325000D03*
%TO.P,U9,5*%
%TO.N,/ALARM*%
X81915000Y-27785000D03*
%TO.P,U9,4*%
%TO.N,GND*%
X81915000Y-25245000D03*
%TO.P,U9,3,NC*%
%TO.N,unconnected-(U9-Pad3)*%
X89535000Y-25245000D03*
%TO.P,U9,2*%
%TO.N,Net-(J6-Pad1)*%
X89535000Y-27785000D03*
D10*
%TO.P,U9,1*%
%TO.N,Net-(R5-Pad1)*%
X89535000Y-30325000D03*
%TD*%
D25*
%TO.P,Y1,1,1*%
%TO.N,Net-(C1-Pad1)*%
X56080000Y-42926000D03*
%TO.P,Y1,2,2*%
%TO.N,Net-(C2-Pad1)*%
X60960000Y-42926000D03*
%TD*%
D12*
%TO.P,C4,1*%
%TO.N,WD*%
X44196000Y-65532000D03*
%TO.P,C4,2*%
%TO.N,Net-(C4-Pad2)*%
X41696000Y-65532000D03*
%TD*%
%TO.P,C5,1*%
%TO.N,Net-(C5-Pad1)*%
X27370000Y-67920000D03*
%TO.P,C5,2*%
%TO.N,GND*%
X29870000Y-67920000D03*
%TD*%
D18*
%TO.P,R10,1*%
%TO.N,+5V*%
X27270000Y-64270000D03*
D17*
%TO.P,R10,2*%
%TO.N,Net-(Q8-Pad2)*%
X32350000Y-64270000D03*
%TD*%
D24*
%TO.P,Q8,1,D*%
%TO.N,Net-(Q8-Pad1)*%
X37846000Y-65532000D03*
D23*
%TO.P,Q8,2,G*%
%TO.N,Net-(Q8-Pad2)*%
X36576000Y-65532000D03*
%TO.P,Q8,3,S*%
%TO.N,GND*%
X35306000Y-65532000D03*
%TD*%
D18*
%TO.P,R9,1*%
%TO.N,+5V*%
X27270000Y-61120000D03*
D17*
%TO.P,R9,2*%
%TO.N,Net-(C5-Pad1)*%
X32350000Y-61120000D03*
%TD*%
D10*
%TO.P,U10,1,WD*%
%TO.N,Net-(C4-Pad2)*%
X27940000Y-57150000D03*
D11*
%TO.P,U10,2,TC*%
%TO.N,Net-(C5-Pad1)*%
X30480000Y-57150000D03*
%TO.P,U10,3,RST*%
%TO.N,Net-(Q8-Pad2)*%
X33020000Y-57150000D03*
%TO.P,U10,4,GND*%
%TO.N,GND*%
X35560000Y-57150000D03*
%TO.P,U10,5,ADJ*%
%TO.N,+5V*%
X38100000Y-57150000D03*
%TO.P,U10,6,VCC*%
X40640000Y-57150000D03*
%TO.P,U10,7,RST2*%
%TO.N,unconnected-(U10-Pad7)*%
X43180000Y-57150000D03*
%TD*%
D18*
%TO.P,R11,1*%
%TO.N,+5V*%
X35300000Y-61120000D03*
D17*
%TO.P,R11,2*%
%TO.N,Net-(Q8-Pad1)*%
X40380000Y-61120000D03*
%TD*%
D26*
%TO.N,/SERDATA*%
X49911000Y-68580000D03*
%TO.N,/W_SDO*%
X54610000Y-60452000D03*
%TO.N,/W_SCK*%
X48006000Y-59423500D03*
X46228000Y-67056000D03*
X41656000Y-79756000D03*
X46228000Y-62484000D03*
%TO.N,/W_CSEL*%
X48260000Y-57912000D03*
%TO.N,DRIVE*%
X75438000Y-46990000D03*
%TD*%
D27*
%TO.N,Net-(U7-Pad2)*%
X89535000Y-59182000D02*
X95377000Y-53340000D01*
X95377000Y-53340000D02*
X95377000Y-45847000D01*
X95377000Y-45847000D02*
X96266000Y-44958000D01*
X96266000Y-44958000D02*
X98806000Y-44958000D01*
X98806000Y-44958000D02*
X100076000Y-46228000D01*
X100076000Y-51816000D02*
X104775000Y-56515000D01*
X100076000Y-46228000D02*
X100076000Y-51816000D01*
X104775000Y-56515000D02*
X106045000Y-56515000D01*
%TO.N,Net-(R2-Pad1)*%
X93472000Y-46736000D02*
X93472000Y-48260000D01*
X93472000Y-48260000D02*
X89535000Y-52197000D01*
%TO.N,Net-(U6-Pad2)*%
X89535000Y-49657000D02*
X91440000Y-47752000D01*
X92456000Y-44196000D02*
X103726000Y-44196000D01*
X91440000Y-47752000D02*
X91440000Y-45212000D01*
X91440000Y-45212000D02*
X92456000Y-44196000D01*
X103726000Y-44196000D02*
X106045000Y-46515000D01*
%TO.N,Net-(R3-Pad1)*%
X97282000Y-46736000D02*
X97282000Y-53975000D01*
X97282000Y-53975000D02*
X89535000Y-61722000D01*
D28*
%TO.N,/MODE*%
X76200000Y-56515000D02*
X74295000Y-56515000D01*
X74295000Y-56515000D02*
X71120000Y-53340000D01*
D27*
%TO.N,GND*%
X82296000Y-56614000D02*
X79855000Y-56614000D01*
%TO.N,Net-(R3-Pad2)*%
X106045000Y-61515000D02*
X97743000Y-61515000D01*
X97743000Y-61515000D02*
X97282000Y-61976000D01*
%TO.N,Net-(R2-Pad2)*%
X107696000Y-64389000D02*
X108712000Y-63373000D01*
X93472000Y-61976000D02*
X95885000Y-64389000D01*
X95885000Y-64389000D02*
X107696000Y-64389000D01*
X108712000Y-63373000D02*
X108712000Y-54182000D01*
X108712000Y-54182000D02*
X106045000Y-51515000D01*
%TO.N,GND*%
X79756000Y-49276000D02*
X79756000Y-56515000D01*
X79756000Y-56515000D02*
X79756000Y-58928000D01*
X79855000Y-56614000D02*
X79756000Y-56515000D01*
X79756000Y-35052000D02*
X79756000Y-46990000D01*
X79756000Y-46990000D02*
X79756000Y-49276000D01*
X82296000Y-47089000D02*
X79855000Y-47089000D01*
X79855000Y-47089000D02*
X79756000Y-46990000D01*
X81915000Y-34770000D02*
X79784000Y-34770000D01*
%TO.N,Net-(J5-Pad1)*%
X94996000Y-40640000D02*
X94996000Y-38608000D01*
X106045000Y-41515000D02*
X95871000Y-41515000D01*
X95871000Y-41515000D02*
X94996000Y-40640000D01*
X94996000Y-38608000D02*
X93698000Y-37310000D01*
X93698000Y-37310000D02*
X89535000Y-37310000D01*
%TO.N,Net-(R4-Pad1)*%
X93095000Y-39870000D02*
X89555000Y-39870000D01*
X89555000Y-39870000D02*
X89535000Y-39850000D01*
%TO.N,Net-(R5-Pad1)*%
X96905000Y-39870000D02*
X96905000Y-37695000D01*
X96905000Y-37695000D02*
X89535000Y-30325000D01*
%TO.N,Net-(J5-Pad2)*%
X108839000Y-24130000D02*
X107569000Y-22860000D01*
X106045000Y-36515000D02*
X108839000Y-33721000D01*
X108839000Y-33721000D02*
X108839000Y-24130000D01*
X107569000Y-22860000D02*
X94865000Y-22860000D01*
X94865000Y-22860000D02*
X93095000Y-24630000D01*
%TO.N,Net-(J6-Pad1)*%
X106045000Y-31515000D02*
X98444000Y-31515000D01*
X98444000Y-31515000D02*
X94714000Y-27785000D01*
X94714000Y-27785000D02*
X89535000Y-27785000D01*
%TO.N,Net-(J6-Pad2)*%
X106045000Y-26515000D02*
X104160000Y-24630000D01*
X104160000Y-24630000D02*
X96905000Y-24630000D01*
D28*
%TO.N,/SERDATA*%
X49403000Y-69088000D02*
X49911000Y-68580000D01*
X49393500Y-69088000D02*
X49403000Y-69088000D01*
X49393500Y-69088000D02*
X45075500Y-73406000D01*
%TO.N,/W_SDO*%
X55880000Y-55245000D02*
X55245000Y-55880000D01*
X55245000Y-55880000D02*
X55245000Y-59817000D01*
X55245000Y-59817000D02*
X54610000Y-60452000D01*
D27*
%TO.N,+5V*%
X72644000Y-56769000D02*
X72644000Y-61468000D01*
X71120000Y-55245000D02*
X72644000Y-56769000D01*
X76200000Y-61595000D02*
X51435000Y-61595000D01*
X51435000Y-61595000D02*
X45085000Y-61595000D01*
X51435000Y-58420000D02*
X51435000Y-61595000D01*
X45085000Y-61595000D02*
X40640000Y-57150000D01*
D28*
%TO.N,/W_SDO*%
X39104009Y-85090000D02*
X43942000Y-85090000D01*
X36830000Y-83765000D02*
X37779009Y-83765000D01*
X37779009Y-83765000D02*
X39104009Y-85090000D01*
X43942000Y-85090000D02*
X45267000Y-83765000D01*
X45267000Y-83765000D02*
X46990000Y-83765000D01*
%TO.N,/W_SCK*%
X48018500Y-59423500D02*
X50546000Y-56896000D01*
X50546000Y-56896000D02*
X51689000Y-56896000D01*
X41656000Y-81479000D02*
X41656000Y-79756000D01*
X39370000Y-83765000D02*
X41656000Y-81479000D01*
X46228000Y-67056000D02*
X46228000Y-62484000D01*
X48006000Y-59423500D02*
X48018500Y-59423500D01*
X51689000Y-56896000D02*
X53340000Y-55245000D01*
X32059000Y-83765000D02*
X33274000Y-82550000D01*
X29210000Y-83765000D02*
X32059000Y-83765000D01*
X33274000Y-82550000D02*
X38155000Y-82550000D01*
X38155000Y-82550000D02*
X39370000Y-83765000D01*
%TO.N,/W_CSEL*%
X48260000Y-57785000D02*
X48260000Y-57912000D01*
X50800000Y-55245000D02*
X48260000Y-57785000D01*
%TO.N,/SERDATA*%
X58420000Y-55245000D02*
X58420000Y-56515000D01*
X58420000Y-56515000D02*
X56515000Y-58420000D01*
%TO.N,Net-(Q1-Pad1)*%
X36322000Y-78486000D02*
X32258000Y-78486000D01*
X32258000Y-78486000D02*
X31949000Y-78486000D01*
X32227500Y-77216000D02*
X32227500Y-78455500D01*
X32227500Y-78455500D02*
X32258000Y-78486000D01*
X31949000Y-78486000D02*
X29210000Y-81225000D01*
%TO.N,/SERDATA*%
X29210000Y-86305000D02*
X30335000Y-85180000D01*
X30335000Y-85180000D02*
X38245000Y-85180000D01*
X38245000Y-85180000D02*
X39370000Y-86305000D01*
%TO.N,Net-(U2-Pad5)*%
X35395000Y-96135000D02*
X35395000Y-90280000D01*
X35395000Y-90280000D02*
X36830000Y-88845000D01*
%TO.N,Net-(U2-Pad6)*%
X30395000Y-96135000D02*
X30395000Y-92740000D01*
X30395000Y-92740000D02*
X36830000Y-86305000D01*
%TO.N,Net-(J8-Pad2)*%
X45555000Y-96135000D02*
X48115000Y-93575000D01*
X48115000Y-93575000D02*
X48115000Y-87430000D01*
X48115000Y-87430000D02*
X46990000Y-86305000D01*
%TO.N,Net-(J8-Pad1)*%
X40555000Y-96135000D02*
X40555000Y-95280000D01*
X40555000Y-95280000D02*
X46990000Y-88845000D01*
%TO.N,/C_DHW*%
X53095000Y-71480000D02*
X53095000Y-75565000D01*
X53095000Y-75565000D02*
X56905000Y-79375000D01*
%TO.N,/C_ON*%
X63128000Y-71480000D02*
X63128000Y-75565000D01*
X63128000Y-75565000D02*
X66938000Y-79375000D01*
%TO.N,/C_DSET*%
X76971000Y-79375000D02*
X73161000Y-75565000D01*
X73161000Y-75565000D02*
X73161000Y-71480000D01*
%TO.N,/C_OPM*%
X87004000Y-79375000D02*
X83194000Y-75565000D01*
X83194000Y-75565000D02*
X83194000Y-71480000D01*
%TO.N,/C_NOC*%
X97037000Y-79375000D02*
X93227000Y-75565000D01*
X93227000Y-75565000D02*
X93227000Y-71480000D01*
%TO.N,/C_LT*%
X107070000Y-79375000D02*
X103260000Y-75565000D01*
X103260000Y-75565000D02*
X103260000Y-71480000D01*
%TO.N,/LTB*%
X107070000Y-86995000D02*
X107070000Y-95885000D01*
X101990000Y-86995000D02*
X107070000Y-86995000D01*
%TO.N,/NOCB*%
X97037000Y-86995000D02*
X97037000Y-95852000D01*
X97037000Y-95852000D02*
X97070000Y-95885000D01*
X91957000Y-86995000D02*
X97037000Y-86995000D01*
%TO.N,/OPMB*%
X87004000Y-86995000D02*
X87004000Y-95819000D01*
X87004000Y-95819000D02*
X87070000Y-95885000D01*
X81924000Y-86995000D02*
X87004000Y-86995000D01*
%TO.N,/DSETB*%
X76971000Y-86995000D02*
X76971000Y-95786000D01*
X76971000Y-95786000D02*
X77070000Y-95885000D01*
X71891000Y-86995000D02*
X76971000Y-86995000D01*
%TO.N,/DHWB*%
X51825000Y-86995000D02*
X56905000Y-86995000D01*
X57070000Y-95885000D02*
X57070000Y-87160000D01*
X57070000Y-87160000D02*
X56905000Y-86995000D01*
%TO.N,/ONB*%
X66938000Y-86995000D02*
X66938000Y-95753000D01*
X66938000Y-95753000D02*
X67070000Y-95885000D01*
X61858000Y-86995000D02*
X66938000Y-86995000D01*
%TO.N,/LT*%
X64135000Y-66040000D02*
X66399000Y-68304000D01*
X66399000Y-68304000D02*
X102009000Y-68304000D01*
X102009000Y-68304000D02*
X104530000Y-70825000D01*
X104530000Y-70825000D02*
X104530000Y-71480000D01*
%TO.N,/NOC*%
X61595000Y-66040000D02*
X64309000Y-68754000D01*
X64309000Y-68754000D02*
X92884000Y-68754000D01*
X92884000Y-68754000D02*
X94497000Y-70367000D01*
X94497000Y-70367000D02*
X94497000Y-71480000D01*
%TO.N,/OPM*%
X59055000Y-66040000D02*
X62219000Y-69204000D01*
X84464000Y-70480000D02*
X84464000Y-71480000D01*
X62219000Y-69204000D02*
X83188000Y-69204000D01*
X83188000Y-69204000D02*
X84464000Y-70480000D01*
%TO.N,/DSET*%
X56515000Y-66040000D02*
X60129000Y-69654000D01*
X60129000Y-69654000D02*
X73605000Y-69654000D01*
X73605000Y-69654000D02*
X74431000Y-70480000D01*
X74431000Y-70480000D02*
X74431000Y-71480000D01*
%TO.N,/ON*%
X53975000Y-66040000D02*
X58039000Y-70104000D01*
X58039000Y-70104000D02*
X63677000Y-70104000D01*
X63677000Y-70104000D02*
X64398000Y-70825000D01*
X64398000Y-70825000D02*
X64398000Y-71480000D01*
%TO.N,/DHW*%
X51435000Y-66040000D02*
X54365000Y-68970000D01*
X54365000Y-68970000D02*
X54365000Y-71480000D01*
%TO.N,/NOE*%
X60960000Y-55245000D02*
X60960000Y-56515000D01*
X60960000Y-56515000D02*
X59055000Y-58420000D01*
%TO.N,/STCP*%
X63500000Y-55245000D02*
X63500000Y-56515000D01*
X63500000Y-56515000D02*
X61595000Y-58420000D01*
%TO.N,/SHCP*%
X66040000Y-55245000D02*
X66040000Y-56515000D01*
X66040000Y-56515000D02*
X64135000Y-58420000D01*
%TO.N,/NMR*%
X68580000Y-55245000D02*
X68580000Y-56515000D01*
X68580000Y-56515000D02*
X66675000Y-58420000D01*
%TO.N,/ALARM*%
X76200000Y-51435000D02*
X59690000Y-51435000D01*
X59690000Y-51435000D02*
X55880000Y-47625000D01*
%TO.N,/BCKUP*%
X71628000Y-52324000D02*
X55880000Y-52324000D01*
X76200000Y-53975000D02*
X73279000Y-53975000D01*
X53340000Y-49784000D02*
X53340000Y-47625000D01*
X73279000Y-53975000D02*
X71628000Y-52324000D01*
X55880000Y-52324000D02*
X53340000Y-49784000D01*
%TO.N,/MODE*%
X71120000Y-53340000D02*
X53086000Y-53340000D01*
X53086000Y-53340000D02*
X50800000Y-51054000D01*
X50800000Y-51054000D02*
X50800000Y-47625000D01*
%TO.N,Net-(Q8-Pad2)*%
X36576000Y-65532000D02*
X36576000Y-64877000D01*
X36576000Y-64877000D02*
X35969000Y-64270000D01*
X35969000Y-64270000D02*
X32350000Y-64270000D01*
%TO.N,Net-(C5-Pad1)*%
X32350000Y-61120000D02*
X27370000Y-66100000D01*
X27370000Y-66100000D02*
X27370000Y-67920000D01*
D27*
%TO.N,GND*%
X29870000Y-67920000D02*
X32918000Y-67920000D01*
X32918000Y-67920000D02*
X35306000Y-65532000D01*
D28*
%TO.N,DRIVE*%
X73660000Y-30480000D02*
X73660000Y-33020000D01*
X73228000Y-49200000D02*
X75438000Y-46990000D01*
X59995000Y-49200000D02*
X73228000Y-49200000D01*
X58420000Y-47625000D02*
X59995000Y-49200000D01*
%TO.N,TXD*%
X66040000Y-47625000D02*
X67165000Y-48750000D01*
X67165000Y-48750000D02*
X72243602Y-48750000D01*
X72243602Y-48750000D02*
X74930000Y-46063602D01*
X74930000Y-46063602D02*
X74930000Y-29210000D01*
X74930000Y-29210000D02*
X73660000Y-27940000D01*
%TO.N,RXD*%
X73660000Y-35560000D02*
X73660000Y-43942000D01*
X73660000Y-43942000D02*
X71102000Y-46500000D01*
X71102000Y-46500000D02*
X69705000Y-46500000D01*
X69705000Y-46500000D02*
X68580000Y-47625000D01*
%TO.N,Net-(C1-Pad1)*%
X60960000Y-47625000D02*
X64175000Y-44410000D01*
X64175000Y-44410000D02*
X67310000Y-44410000D01*
X60960000Y-47625000D02*
X56261000Y-42926000D01*
X56261000Y-42926000D02*
X56080000Y-42926000D01*
%TO.N,Net-(C2-Pad1)*%
X71120000Y-44410000D02*
X69154991Y-46375009D01*
X69154991Y-46375009D02*
X64749991Y-46375009D01*
X64749991Y-46375009D02*
X63500000Y-47625000D01*
X60960000Y-42926000D02*
X61195301Y-43161301D01*
X61195301Y-43161301D02*
X69871301Y-43161301D01*
X69871301Y-43161301D02*
X71120000Y-44410000D01*
D27*
%TO.N,+5V*%
X46990000Y-81225000D02*
X51761000Y-81225000D01*
X51761000Y-81225000D02*
X61921000Y-81225000D01*
X51825000Y-79375000D02*
X51825000Y-81161000D01*
X51825000Y-81161000D02*
X51761000Y-81225000D01*
X61858000Y-81162000D02*
X61921000Y-81225000D01*
X61921000Y-81225000D02*
X71937000Y-81225000D01*
X61858000Y-79375000D02*
X61858000Y-81162000D01*
X71937000Y-81225000D02*
X81987000Y-81225000D01*
X71891000Y-81179000D02*
X71937000Y-81225000D01*
X71891000Y-79375000D02*
X71891000Y-81179000D01*
X81987000Y-81225000D02*
X91893000Y-81225000D01*
X81924000Y-79375000D02*
X81924000Y-81162000D01*
X81924000Y-81162000D02*
X81987000Y-81225000D01*
X91893000Y-81225000D02*
X100140000Y-81225000D01*
X91957000Y-79375000D02*
X91957000Y-81161000D01*
X91957000Y-81161000D02*
X91893000Y-81225000D01*
X100140000Y-81225000D02*
X101990000Y-79375000D01*
X45075500Y-78486000D02*
X46990000Y-80400500D01*
X46990000Y-80400500D02*
X46990000Y-81225000D01*
X39456500Y-78486000D02*
X45075500Y-78486000D01*
X39456500Y-78486000D02*
X36830000Y-81112500D01*
X36830000Y-81112500D02*
X36830000Y-81225000D01*
X36322000Y-73406000D02*
X36322000Y-75351500D01*
X36322000Y-75351500D02*
X39456500Y-78486000D01*
X36736000Y-61120000D02*
X39878000Y-64262000D01*
X35300000Y-61120000D02*
X36736000Y-61120000D01*
X39878000Y-69850000D02*
X36322000Y-73406000D01*
X39878000Y-64262000D02*
X39878000Y-69850000D01*
X27270000Y-61120000D02*
X27270000Y-64270000D01*
X28954000Y-59436000D02*
X35306000Y-59436000D01*
X35306000Y-59436000D02*
X37084000Y-59436000D01*
X35300000Y-61120000D02*
X35300000Y-59442000D01*
X35300000Y-59442000D02*
X35306000Y-59436000D01*
X27270000Y-61120000D02*
X28954000Y-59436000D01*
X37084000Y-59436000D02*
X38100000Y-58420000D01*
X38100000Y-58420000D02*
X38100000Y-57150000D01*
X40640000Y-57150000D02*
X38100000Y-57150000D01*
X40640000Y-51816000D02*
X40640000Y-57150000D01*
%TO.N,GND*%
X32044000Y-51816000D02*
X32044000Y-53634000D01*
X32044000Y-53634000D02*
X35560000Y-57150000D01*
X26195000Y-45555000D02*
X26195000Y-51783000D01*
X26195000Y-51783000D02*
X26195000Y-69629000D01*
X32044000Y-51816000D02*
X26228000Y-51816000D01*
X26228000Y-51816000D02*
X26195000Y-51783000D01*
X26195000Y-69629000D02*
X26195000Y-74709000D01*
X29870000Y-67920000D02*
X28161000Y-69629000D01*
X28161000Y-69629000D02*
X26195000Y-69629000D01*
X26195000Y-74709000D02*
X26195000Y-85830000D01*
X26228000Y-74676000D02*
X26195000Y-74709000D01*
X32227500Y-74676000D02*
X26228000Y-74676000D01*
X31750000Y-40000000D02*
X26195000Y-45555000D01*
X26195000Y-85830000D02*
X29210000Y-88845000D01*
X79756000Y-35052000D02*
X79756000Y-25344000D01*
X79756000Y-34798000D02*
X79756000Y-35052000D01*
X81915000Y-25245000D02*
X79855000Y-25245000D01*
X79855000Y-25245000D02*
X71783000Y-25245000D01*
X79756000Y-25344000D02*
X79855000Y-25245000D01*
X69342000Y-41910000D02*
X69342000Y-27940000D01*
X69342000Y-27940000D02*
X69342000Y-27686000D01*
X66040000Y-27940000D02*
X69342000Y-27940000D01*
X71783000Y-25245000D02*
X69342000Y-27686000D01*
X79784000Y-34770000D02*
X79756000Y-34798000D01*
X79756000Y-58928000D02*
X79756000Y-60389000D01*
X65171701Y-41910000D02*
X69342000Y-41910000D01*
X69342000Y-41910000D02*
X71120000Y-41910000D01*
X79756000Y-60389000D02*
X74105000Y-66040000D01*
X74105000Y-66040000D02*
X69215000Y-66040000D01*
X44572000Y-40000000D02*
X48382000Y-40000000D01*
X48382000Y-40000000D02*
X63261701Y-40000000D01*
X48260000Y-44450000D02*
X48260000Y-40122000D01*
X48260000Y-40122000D02*
X48382000Y-40000000D01*
X63261701Y-40000000D02*
X65171701Y-41910000D01*
X48260000Y-44450000D02*
X48260000Y-47625000D01*
%TO.N,+5V*%
X40640000Y-51816000D02*
X34544000Y-51816000D01*
%TO.N,Net-(D1-Pad2)*%
X31750000Y-45000000D02*
X37296000Y-45000000D01*
X37296000Y-45000000D02*
X40640000Y-41656000D01*
D29*
%TO.N,/RS-*%
X40681000Y-32725000D02*
X40401600Y-32725000D01*
X52070000Y-32068200D02*
X52163199Y-31975001D01*
%TO.N,/RS+*%
X54798975Y-31524999D02*
X54798975Y-34601687D01*
X63948997Y-28248301D02*
G75*
G02*
X64598999Y-28898313I3J-649999D01*
G01*
X58198983Y-31524999D02*
X58198983Y-34601687D01*
%TO.N,/RS-*%
X62449011Y-34601687D02*
G75*
G03*
X63098995Y-35251689I649989J-13D01*
G01*
X59048985Y-31975001D02*
X59048985Y-28898313D01*
X63749013Y-28898313D02*
G75*
G02*
X63948997Y-28698313I199987J13D01*
G01*
%TO.N,/RS+*%
X56498979Y-28898313D02*
X56498979Y-31524999D01*
%TO.N,/RS-*%
X57348981Y-34601687D02*
X57348981Y-31975001D01*
%TO.N,/RS+*%
X58198983Y-28898313D02*
X58198983Y-31524999D01*
X59498987Y-31975001D02*
X59498987Y-28898313D01*
X40386000Y-27432000D02*
X40386000Y-32258000D01*
X57798983Y-31975001D02*
X57798983Y-28898313D01*
%TO.N,/RS-*%
X56298979Y-35251681D02*
G75*
G03*
X56948981Y-34601687I21J649981D01*
G01*
%TO.N,/RS+*%
X44467000Y-32275000D02*
X48277000Y-32275000D01*
X56499011Y-28898313D02*
G75*
G02*
X57148981Y-28248311I649989J13D01*
G01*
X51226800Y-32275000D02*
X48277000Y-32275000D01*
X56298979Y-34801679D02*
G75*
G03*
X56498979Y-34601687I21J199979D01*
G01*
%TO.N,/RS-*%
X56948981Y-28898313D02*
X56948981Y-31524999D01*
%TO.N,/RS+*%
X35975001Y-32275000D02*
X33700001Y-30000000D01*
X53118583Y-31524999D02*
X51976801Y-31524999D01*
X56098979Y-34601687D02*
X56098979Y-31975001D01*
%TO.N,/RS-*%
X54598975Y-35251677D02*
G75*
G03*
X55248977Y-34601687I25J649977D01*
G01*
%TO.N,/RS+*%
X56099013Y-34601687D02*
G75*
G03*
X56298979Y-34801687I199987J-13D01*
G01*
X54799011Y-28898313D02*
G75*
G02*
X55448977Y-28248311I649989J13D01*
G01*
%TO.N,/RS-*%
X55648977Y-34601687D02*
X55648977Y-31975001D01*
X53748973Y-31975027D02*
G75*
G02*
X53948973Y-32175001I27J-199973D01*
G01*
X55249013Y-28898313D02*
G75*
G02*
X55448977Y-28698313I199987J13D01*
G01*
X64148997Y-31324999D02*
X64148997Y-28898313D01*
%TO.N,/RS+*%
X66040000Y-30480000D02*
X64995001Y-31524999D01*
X57798983Y-34601687D02*
X57798983Y-31975001D01*
%TO.N,/RS-*%
X63748997Y-28898313D02*
X63748997Y-31324999D01*
%TO.N,/RS+*%
X63299011Y-28898313D02*
G75*
G02*
X63948997Y-28248311I649989J13D01*
G01*
%TO.N,/RS-*%
X63748997Y-31324999D02*
X63748997Y-34601687D01*
X62048993Y-28898313D02*
X62048993Y-31524999D01*
X58649013Y-28898313D02*
G75*
G02*
X58848985Y-28698313I199987J13D01*
G01*
X59698987Y-35251689D02*
G75*
G03*
X60348989Y-34601687I13J649989D01*
G01*
X60748989Y-31975001D02*
X60748989Y-28898313D01*
X60348989Y-28898313D02*
X60348989Y-31524999D01*
X58648985Y-28898313D02*
X58648985Y-31524999D01*
X55648977Y-31975001D02*
X55648977Y-28898313D01*
X55248977Y-28898313D02*
X55248977Y-31524999D01*
X53949011Y-34601687D02*
G75*
G03*
X54598975Y-35251689I649989J-13D01*
G01*
%TO.N,/RS+*%
X60548989Y-28248309D02*
G75*
G02*
X61198991Y-28898313I11J-649991D01*
G01*
X59698987Y-34801687D02*
G75*
G03*
X59898987Y-34601687I13J199987D01*
G01*
%TO.N,/RS-*%
X64148999Y-31324999D02*
G75*
G03*
X64798999Y-31975001I650001J-1D01*
G01*
%TO.N,/RS+*%
X40386000Y-32258000D02*
X40369000Y-32275000D01*
%TO.N,/RS-*%
X52163199Y-31975001D02*
X51413200Y-32725000D01*
X62048993Y-31524999D02*
X62048993Y-34601687D01*
%TO.N,/RS+*%
X61198991Y-34601687D02*
X61198991Y-31975001D01*
X40657000Y-32275000D02*
X40369000Y-32275000D01*
%TO.N,/RS-*%
X56948981Y-31524999D02*
X56948981Y-34601687D01*
%TO.N,/RS+*%
X40657000Y-32275000D02*
X44467000Y-32275000D01*
X44450000Y-32258000D02*
X44467000Y-32275000D01*
X61599011Y-28898313D02*
G75*
G02*
X62248993Y-28248311I649989J13D01*
G01*
%TO.N,/RS-*%
X51413200Y-32725000D02*
X48301000Y-32725000D01*
%TO.N,/RS+*%
X59898987Y-31524999D02*
X59898987Y-34601687D01*
%TO.N,/RS-*%
X60349013Y-28898313D02*
G75*
G02*
X60548989Y-28698313I199987J13D01*
G01*
%TO.N,/RS+*%
X61598991Y-28898313D02*
X61598991Y-31524999D01*
%TO.N,/RS-*%
X40386000Y-37592000D02*
X40386000Y-32740600D01*
X57349011Y-34601687D02*
G75*
G03*
X57998983Y-35251689I649989J-13D01*
G01*
%TO.N,/RS+*%
X40369000Y-32275000D02*
X35975001Y-32275000D01*
%TO.N,/RS-*%
X35975001Y-32725000D02*
X33700001Y-35000000D01*
X59048985Y-34601687D02*
X59048985Y-31975001D01*
X64995001Y-31975001D02*
X64798999Y-31975001D01*
%TO.N,/RS+*%
X59899011Y-28898313D02*
G75*
G02*
X60548989Y-28248311I649989J13D01*
G01*
%TO.N,/RS-*%
X53948973Y-34601687D02*
X53948973Y-32175001D01*
D27*
%TO.N,GND*%
X44450000Y-39878000D02*
X44572000Y-40000000D01*
D29*
%TO.N,/RS-*%
X62248993Y-28698307D02*
G75*
G02*
X62448993Y-28898313I7J-199993D01*
G01*
%TO.N,/RS+*%
X54798975Y-28898313D02*
X54798975Y-31524999D01*
X33700001Y-30000000D02*
X31750000Y-30000000D01*
X52070000Y-29464000D02*
X52070000Y-31431800D01*
%TO.N,/RS-*%
X52070000Y-34544000D02*
X52070000Y-32068200D01*
D27*
%TO.N,GND*%
X44450000Y-37592000D02*
X44450000Y-39878000D01*
D29*
%TO.N,/RS+*%
X54398975Y-34601687D02*
X54398975Y-32175001D01*
%TO.N,/RS-*%
X53118583Y-31975001D02*
X52163199Y-31975001D01*
X48260000Y-34290000D02*
X48260000Y-32766000D01*
X53748973Y-31975001D02*
X53118583Y-31975001D01*
%TO.N,/RS+*%
X58848985Y-28248313D02*
G75*
G02*
X59498987Y-28898313I15J-649987D01*
G01*
X51976801Y-31524999D02*
X51226800Y-32275000D01*
%TO.N,/RS-*%
X58648985Y-31524999D02*
X58648985Y-34601687D01*
X60749011Y-34601687D02*
G75*
G03*
X61398991Y-35251689I649989J-13D01*
G01*
X56949013Y-28898313D02*
G75*
G02*
X57148981Y-28698313I199987J13D01*
G01*
X55649011Y-34601687D02*
G75*
G03*
X56298979Y-35251689I649989J-13D01*
G01*
X55448977Y-28698323D02*
G75*
G02*
X55648977Y-28898313I23J-199977D01*
G01*
X62448993Y-34601687D02*
X62448993Y-31975001D01*
X60348989Y-31524999D02*
X60348989Y-34601687D01*
%TO.N,/RS+*%
X44450000Y-27432000D02*
X44450000Y-32258000D01*
X62898995Y-34601687D02*
X62898995Y-31975001D01*
%TO.N,/RS-*%
X33700001Y-35000000D02*
X31750000Y-35000000D01*
%TO.N,/RS+*%
X58199011Y-28898313D02*
G75*
G02*
X58848985Y-28248311I649989J13D01*
G01*
%TO.N,/RS-*%
X48260000Y-32766000D02*
X48301000Y-32725000D01*
X48301000Y-32725000D02*
X40681000Y-32725000D01*
D27*
%TO.N,GND*%
X31750000Y-40000000D02*
X44572000Y-40000000D01*
D29*
%TO.N,/RS-*%
X57998983Y-35251685D02*
G75*
G03*
X58648985Y-34601687I17J649985D01*
G01*
%TO.N,/RS+*%
X59898987Y-28898313D02*
X59898987Y-31524999D01*
%TO.N,/RS-*%
X40386000Y-32740600D02*
X40401600Y-32725000D01*
X58848985Y-28698315D02*
G75*
G02*
X59048985Y-28898313I15J-199985D01*
G01*
%TO.N,/RS+*%
X63298995Y-31324999D02*
X63298995Y-34601687D01*
X64598999Y-31324999D02*
X64598999Y-28898313D01*
%TO.N,/RS-*%
X57148981Y-28698319D02*
G75*
G02*
X57348981Y-28898313I19J-199981D01*
G01*
X62049013Y-28898313D02*
G75*
G02*
X62248993Y-28698313I199987J13D01*
G01*
%TO.N,/RS+*%
X56098979Y-31975001D02*
X56098979Y-28898313D01*
X56498979Y-31524999D02*
X56498979Y-34601687D01*
%TO.N,/RS-*%
X55248977Y-31524999D02*
X55248977Y-34601687D01*
%TO.N,/RS+*%
X63098995Y-34801695D02*
G75*
G03*
X63298995Y-34601687I5J199995D01*
G01*
X57799013Y-34601687D02*
G75*
G03*
X57998983Y-34801687I199987J-13D01*
G01*
%TO.N,/RS-*%
X63948997Y-28698303D02*
G75*
G02*
X64148997Y-28898313I3J-199997D01*
G01*
X40401600Y-32725000D02*
X35975001Y-32725000D01*
X59049011Y-34601687D02*
G75*
G03*
X59698987Y-35251689I649989J-13D01*
G01*
%TO.N,/RS+*%
X59499013Y-34601687D02*
G75*
G03*
X59698987Y-34801687I199987J-13D01*
G01*
%TO.N,/RS-*%
X60548989Y-28698311D02*
G75*
G02*
X60748989Y-28898313I11J-199989D01*
G01*
X61398991Y-35251693D02*
G75*
G03*
X62048993Y-34601687I9J649993D01*
G01*
X60748989Y-34601687D02*
X60748989Y-31975001D01*
X63098995Y-35251697D02*
G75*
G03*
X63748997Y-34601687I5J649997D01*
G01*
%TO.N,/RS+*%
X53748973Y-31525025D02*
G75*
G02*
X54398975Y-32175001I27J-649975D01*
G01*
X61598991Y-31524999D02*
X61598991Y-34601687D01*
X54399013Y-34601687D02*
G75*
G03*
X54598975Y-34801687I199987J-13D01*
G01*
X52070000Y-31431800D02*
X51976801Y-31524999D01*
X61198991Y-31975001D02*
X61198991Y-28898313D01*
X54598975Y-34801675D02*
G75*
G03*
X54798975Y-34601687I25J199975D01*
G01*
X53748973Y-31524999D02*
X53118583Y-31524999D01*
X62898995Y-31975001D02*
X62898995Y-28898313D01*
X64599001Y-31324999D02*
G75*
G03*
X64798999Y-31524999I199999J-1D01*
G01*
X61398991Y-34801691D02*
G75*
G03*
X61598991Y-34601687I9J199991D01*
G01*
X62899013Y-34601687D02*
G75*
G03*
X63098995Y-34801687I199987J-13D01*
G01*
X55448977Y-28248321D02*
G75*
G02*
X56098979Y-28898313I23J-649979D01*
G01*
X64995001Y-31524999D02*
X64798999Y-31524999D01*
%TO.N,/RS-*%
X57348981Y-31975001D02*
X57348981Y-28898313D01*
%TO.N,/RS+*%
X57998983Y-34801683D02*
G75*
G03*
X58198983Y-34601687I17J199983D01*
G01*
X62248993Y-28248305D02*
G75*
G02*
X62898995Y-28898313I7J-649995D01*
G01*
%TO.N,/RS-*%
X66040000Y-33020000D02*
X64995001Y-31975001D01*
%TO.N,/RS+*%
X63298995Y-28898313D02*
X63298995Y-31324999D01*
X57148981Y-28248317D02*
G75*
G02*
X57798983Y-28898313I19J-649983D01*
G01*
X59498987Y-34601687D02*
X59498987Y-31975001D01*
X61199013Y-34601687D02*
G75*
G03*
X61398991Y-34801687I199987J-13D01*
G01*
%TO.N,/RS-*%
X62448993Y-31975001D02*
X62448993Y-28898313D01*
%TD*%
M02*
