%TF.GenerationSoftware,KiCad,Pcbnew,6.0.7*%
%TF.CreationDate,2022-09-29T13:58:53+02:00*%
%TF.ProjectId,HP_device,48505f64-6576-4696-9365-2e6b69636164,rev?*%
%TF.SameCoordinates,Original*%
%TF.FileFunction,Soldermask,Top*%
%TF.FilePolarity,Negative*%
%FSLAX46Y46*%
G04 Gerber Fmt 4.6, Leading zero omitted, Abs format (unit mm)*
G04 Created by KiCad (PCBNEW 6.0.7) date 2022-09-29 13:58:53*
%MOMM*%
%LPD*%
G01*
G04 APERTURE LIST*
%ADD10R,1.600000X1.600000*%
%ADD11O,1.600000X1.600000*%
%ADD12C,1.600000*%
%ADD13O,1.800000X1.800000*%
%ADD14R,1.800000X1.800000*%
%ADD15C,2.600000*%
%ADD16R,2.600000X2.600000*%
%ADD17O,1.400000X1.400000*%
%ADD18C,1.400000*%
%ADD19R,2.000000X2.000000*%
%ADD20C,2.000000*%
%ADD21R,1.500000X1.050000*%
%ADD22O,1.500000X1.050000*%
%ADD23O,1.050000X1.500000*%
%ADD24R,1.050000X1.500000*%
%ADD25C,1.500000*%
G04 APERTURE END LIST*
D10*
%TO.C,U7*%
X89535000Y-61722000D03*
D11*
X89535000Y-59182000D03*
X89535000Y-56642000D03*
X81915000Y-56642000D03*
X81915000Y-59182000D03*
X81915000Y-61722000D03*
%TD*%
D12*
%TO.C,C3*%
X32044000Y-51816000D03*
X34544000Y-51816000D03*
%TD*%
D13*
%TO.C,D1*%
X40640000Y-41656000D03*
D14*
X40640000Y-51816000D03*
%TD*%
D13*
%TO.C,D2*%
X40386000Y-37592000D03*
D14*
X40386000Y-27432000D03*
%TD*%
D13*
%TO.C,D3*%
X48260000Y-34290000D03*
D14*
X48260000Y-44450000D03*
%TD*%
D15*
%TO.C,J1*%
X31750000Y-35000000D03*
D16*
X31750000Y-30000000D03*
%TD*%
D15*
%TO.C,J2*%
X31750000Y-45000000D03*
D16*
X31750000Y-40000000D03*
%TD*%
D11*
%TO.C,U5*%
X66040000Y-35560000D03*
X66040000Y-33020000D03*
X66040000Y-30480000D03*
X66040000Y-27940000D03*
X73660000Y-27940000D03*
X73660000Y-30480000D03*
X73660000Y-33020000D03*
D10*
X73660000Y-35560000D03*
%TD*%
D17*
%TO.C,R8*%
X52070000Y-34544000D03*
D18*
X52070000Y-29464000D03*
%TD*%
D13*
%TO.C,D4*%
X44450000Y-27432000D03*
D14*
X44450000Y-37592000D03*
%TD*%
D12*
%TO.C,C1*%
X67310000Y-44410000D03*
X67310000Y-41910000D03*
%TD*%
%TO.C,C2*%
X71120000Y-44410000D03*
X71120000Y-41910000D03*
%TD*%
D15*
%TO.C,J3*%
X106045000Y-46515000D03*
D16*
X106045000Y-51515000D03*
%TD*%
D15*
%TO.C,J4*%
X106045000Y-56515000D03*
D16*
X106045000Y-61515000D03*
%TD*%
D15*
%TO.C,J5*%
X106045000Y-36515000D03*
D16*
X106045000Y-41515000D03*
%TD*%
D15*
%TO.C,J6*%
X106045000Y-26515000D03*
D16*
X106045000Y-31515000D03*
%TD*%
%TO.C,J7*%
X30395000Y-96135000D03*
D15*
X35395000Y-96135000D03*
%TD*%
D16*
%TO.C,J8*%
X40555000Y-96135000D03*
D15*
X45555000Y-96135000D03*
%TD*%
D16*
%TO.C,J9*%
X52070000Y-95885000D03*
D15*
X57070000Y-95885000D03*
%TD*%
D16*
%TO.C,J10*%
X62070000Y-95885000D03*
D15*
X67070000Y-95885000D03*
%TD*%
D16*
%TO.C,J11*%
X72070000Y-95885000D03*
D15*
X77070000Y-95885000D03*
%TD*%
D16*
%TO.C,J12*%
X82070000Y-95885000D03*
D15*
X87070000Y-95885000D03*
%TD*%
D16*
%TO.C,J13*%
X92070000Y-95885000D03*
D15*
X97070000Y-95885000D03*
%TD*%
D16*
%TO.C,J14*%
X102070000Y-95885000D03*
D15*
X107070000Y-95885000D03*
%TD*%
D19*
%TO.C,K1*%
X51825000Y-76835000D03*
D20*
X51825000Y-79375000D03*
X51825000Y-86995000D03*
X56905000Y-86995000D03*
X56905000Y-79375000D03*
X56905000Y-76835000D03*
%TD*%
D19*
%TO.C,K2*%
X61858000Y-76835000D03*
D20*
X61858000Y-79375000D03*
X61858000Y-86995000D03*
X66938000Y-86995000D03*
X66938000Y-79375000D03*
X66938000Y-76835000D03*
%TD*%
D19*
%TO.C,K3*%
X71891000Y-76835000D03*
D20*
X71891000Y-79375000D03*
X71891000Y-86995000D03*
X76971000Y-86995000D03*
X76971000Y-79375000D03*
X76971000Y-76835000D03*
%TD*%
D19*
%TO.C,K4*%
X81924000Y-76835000D03*
D20*
X81924000Y-79375000D03*
X81924000Y-86995000D03*
X87004000Y-86995000D03*
X87004000Y-79375000D03*
X87004000Y-76835000D03*
%TD*%
D19*
%TO.C,K5*%
X91957000Y-76835000D03*
D20*
X91957000Y-79375000D03*
X91957000Y-86995000D03*
X97037000Y-86995000D03*
X97037000Y-79375000D03*
X97037000Y-76835000D03*
%TD*%
D19*
%TO.C,K6*%
X101990000Y-76835000D03*
D20*
X101990000Y-79375000D03*
X101990000Y-86995000D03*
X107070000Y-86995000D03*
X107070000Y-79375000D03*
X107070000Y-76835000D03*
%TD*%
D21*
%TO.C,Q1*%
X32227500Y-77216000D03*
D22*
X32227500Y-75946000D03*
X32227500Y-74676000D03*
%TD*%
D23*
%TO.C,Q2*%
X55635000Y-71480000D03*
X54365000Y-71480000D03*
D24*
X53095000Y-71480000D03*
%TD*%
%TO.C,Q3*%
X63128000Y-71480000D03*
D23*
X64398000Y-71480000D03*
X65668000Y-71480000D03*
%TD*%
D24*
%TO.C,Q4*%
X73161000Y-71480000D03*
D23*
X74431000Y-71480000D03*
X75701000Y-71480000D03*
%TD*%
D24*
%TO.C,Q5*%
X83194000Y-71480000D03*
D23*
X84464000Y-71480000D03*
X85734000Y-71480000D03*
%TD*%
D24*
%TO.C,Q6*%
X93227000Y-71480000D03*
D23*
X94497000Y-71480000D03*
X95767000Y-71480000D03*
%TD*%
D24*
%TO.C,Q7*%
X103260000Y-71480000D03*
D23*
X104530000Y-71480000D03*
X105800000Y-71480000D03*
%TD*%
D18*
%TO.C,R1*%
X36322000Y-73406000D03*
D17*
X36322000Y-78486000D03*
%TD*%
D12*
%TO.C,R2*%
X93472000Y-46736000D03*
D11*
X93472000Y-61976000D03*
%TD*%
%TO.C,R3*%
X97282000Y-61976000D03*
D12*
X97282000Y-46736000D03*
%TD*%
D11*
%TO.C,R4*%
X93095000Y-24630000D03*
D12*
X93095000Y-39870000D03*
%TD*%
D11*
%TO.C,R5*%
X96905000Y-24630000D03*
D12*
X96905000Y-39870000D03*
%TD*%
D18*
%TO.C,R6*%
X45075500Y-78486000D03*
D17*
X45075500Y-73406000D03*
%TD*%
D18*
%TO.C,R7*%
X39456500Y-78486000D03*
D17*
X39456500Y-73406000D03*
%TD*%
D10*
%TO.C,RN1*%
X76200000Y-61595000D03*
D11*
X76200000Y-59055000D03*
X76200000Y-56515000D03*
X76200000Y-53975000D03*
X76200000Y-51435000D03*
%TD*%
D10*
%TO.C,U1*%
X71120000Y-47625000D03*
D11*
X68580000Y-47625000D03*
X66040000Y-47625000D03*
X63500000Y-47625000D03*
X60960000Y-47625000D03*
X58420000Y-47625000D03*
X55880000Y-47625000D03*
X53340000Y-47625000D03*
X50800000Y-47625000D03*
X48260000Y-47625000D03*
X48260000Y-55245000D03*
X50800000Y-55245000D03*
X53340000Y-55245000D03*
X55880000Y-55245000D03*
X58420000Y-55245000D03*
X60960000Y-55245000D03*
X63500000Y-55245000D03*
X66040000Y-55245000D03*
X68580000Y-55245000D03*
X71120000Y-55245000D03*
%TD*%
D10*
%TO.C,U2*%
X29210000Y-81225000D03*
D11*
X29210000Y-83765000D03*
X29210000Y-86305000D03*
X29210000Y-88845000D03*
X36830000Y-88845000D03*
X36830000Y-86305000D03*
X36830000Y-83765000D03*
X36830000Y-81225000D03*
%TD*%
%TO.C,U3*%
X46990000Y-81225000D03*
X46990000Y-83765000D03*
X46990000Y-86305000D03*
X46990000Y-88845000D03*
X39370000Y-88845000D03*
X39370000Y-86305000D03*
X39370000Y-83765000D03*
D10*
X39370000Y-81225000D03*
%TD*%
%TO.C,U4*%
X51435000Y-66040000D03*
D11*
X53975000Y-66040000D03*
X56515000Y-66040000D03*
X59055000Y-66040000D03*
X61595000Y-66040000D03*
X64135000Y-66040000D03*
X66675000Y-66040000D03*
X69215000Y-66040000D03*
X69215000Y-58420000D03*
X66675000Y-58420000D03*
X64135000Y-58420000D03*
X61595000Y-58420000D03*
X59055000Y-58420000D03*
X56515000Y-58420000D03*
X53975000Y-58420000D03*
X51435000Y-58420000D03*
%TD*%
%TO.C,U6*%
X81915000Y-52197000D03*
X81915000Y-49657000D03*
X81915000Y-47117000D03*
X89535000Y-47117000D03*
X89535000Y-49657000D03*
D10*
X89535000Y-52197000D03*
%TD*%
D11*
%TO.C,U8*%
X81915000Y-39850000D03*
X81915000Y-37310000D03*
X81915000Y-34770000D03*
X89535000Y-34770000D03*
X89535000Y-37310000D03*
D10*
X89535000Y-39850000D03*
%TD*%
D11*
%TO.C,U9*%
X81915000Y-30325000D03*
X81915000Y-27785000D03*
X81915000Y-25245000D03*
X89535000Y-25245000D03*
X89535000Y-27785000D03*
D10*
X89535000Y-30325000D03*
%TD*%
D25*
%TO.C,Y1*%
X56080000Y-42926000D03*
X60960000Y-42926000D03*
%TD*%
D12*
%TO.C,C4*%
X44196000Y-65532000D03*
X41696000Y-65532000D03*
%TD*%
%TO.C,C5*%
X27370000Y-67920000D03*
X29870000Y-67920000D03*
%TD*%
D18*
%TO.C,R10*%
X27270000Y-64270000D03*
D17*
X32350000Y-64270000D03*
%TD*%
D24*
%TO.C,Q8*%
X37846000Y-65532000D03*
D23*
X36576000Y-65532000D03*
X35306000Y-65532000D03*
%TD*%
D18*
%TO.C,R9*%
X27270000Y-61120000D03*
D17*
X32350000Y-61120000D03*
%TD*%
D10*
%TO.C,U10*%
X27940000Y-57150000D03*
D11*
X30480000Y-57150000D03*
X33020000Y-57150000D03*
X35560000Y-57150000D03*
X38100000Y-57150000D03*
X40640000Y-57150000D03*
X43180000Y-57150000D03*
%TD*%
D18*
%TO.C,R11*%
X35300000Y-61120000D03*
D17*
X40380000Y-61120000D03*
%TD*%
M02*
