%TF.GenerationSoftware,KiCad,Pcbnew,6.0.7*%
%TF.CreationDate,2022-09-29T13:58:53+02:00*%
%TF.ProjectId,HP_device,48505f64-6576-4696-9365-2e6b69636164,rev?*%
%TF.SameCoordinates,Original*%
%TF.FileFunction,Legend,Top*%
%TF.FilePolarity,Positive*%
%FSLAX46Y46*%
G04 Gerber Fmt 4.6, Leading zero omitted, Abs format (unit mm)*
G04 Created by KiCad (PCBNEW 6.0.7) date 2022-09-29 13:58:53*
%MOMM*%
%LPD*%
G01*
G04 APERTURE LIST*
%ADD10C,0.150000*%
%ADD11C,0.120000*%
G04 APERTURE END LIST*
D10*
X37380952Y-22647380D02*
X37380952Y-21647380D01*
X37380952Y-22123571D02*
X37952380Y-22123571D01*
X37952380Y-22647380D02*
X37952380Y-21647380D01*
X38428571Y-22647380D02*
X38428571Y-21647380D01*
X38809523Y-21647380D01*
X38904761Y-21695000D01*
X38952380Y-21742619D01*
X39000000Y-21837857D01*
X39000000Y-21980714D01*
X38952380Y-22075952D01*
X38904761Y-22123571D01*
X38809523Y-22171190D01*
X38428571Y-22171190D01*
X40619047Y-21980714D02*
X40619047Y-22647380D01*
X40190476Y-21980714D02*
X40190476Y-22504523D01*
X40238095Y-22599761D01*
X40333333Y-22647380D01*
X40476190Y-22647380D01*
X40571428Y-22599761D01*
X40619047Y-22552142D01*
X41095238Y-21980714D02*
X41095238Y-22647380D01*
X41095238Y-22075952D02*
X41142857Y-22028333D01*
X41238095Y-21980714D01*
X41380952Y-21980714D01*
X41476190Y-22028333D01*
X41523809Y-22123571D01*
X41523809Y-22647380D01*
X42000000Y-22647380D02*
X42000000Y-21980714D01*
X42000000Y-21647380D02*
X41952380Y-21695000D01*
X42000000Y-21742619D01*
X42047619Y-21695000D01*
X42000000Y-21647380D01*
X42000000Y-21742619D01*
X42333333Y-21980714D02*
X42714285Y-21980714D01*
X42476190Y-21647380D02*
X42476190Y-22504523D01*
X42523809Y-22599761D01*
X42619047Y-22647380D01*
X42714285Y-22647380D01*
X44238095Y-22599761D02*
X44142857Y-22647380D01*
X43952380Y-22647380D01*
X43857142Y-22599761D01*
X43809523Y-22552142D01*
X43761904Y-22456904D01*
X43761904Y-22171190D01*
X43809523Y-22075952D01*
X43857142Y-22028333D01*
X43952380Y-21980714D01*
X44142857Y-21980714D01*
X44238095Y-22028333D01*
X44809523Y-22647380D02*
X44714285Y-22599761D01*
X44666666Y-22552142D01*
X44619047Y-22456904D01*
X44619047Y-22171190D01*
X44666666Y-22075952D01*
X44714285Y-22028333D01*
X44809523Y-21980714D01*
X44952380Y-21980714D01*
X45047619Y-22028333D01*
X45095238Y-22075952D01*
X45142857Y-22171190D01*
X45142857Y-22456904D01*
X45095238Y-22552142D01*
X45047619Y-22599761D01*
X44952380Y-22647380D01*
X44809523Y-22647380D01*
X45571428Y-21980714D02*
X45571428Y-22647380D01*
X45571428Y-22075952D02*
X45619047Y-22028333D01*
X45714285Y-21980714D01*
X45857142Y-21980714D01*
X45952380Y-22028333D01*
X46000000Y-22123571D01*
X46000000Y-22647380D01*
X46333333Y-21980714D02*
X46714285Y-21980714D01*
X46476190Y-21647380D02*
X46476190Y-22504523D01*
X46523809Y-22599761D01*
X46619047Y-22647380D01*
X46714285Y-22647380D01*
X47047619Y-22647380D02*
X47047619Y-21980714D01*
X47047619Y-22171190D02*
X47095238Y-22075952D01*
X47142857Y-22028333D01*
X47238095Y-21980714D01*
X47333333Y-21980714D01*
X47809523Y-22647380D02*
X47714285Y-22599761D01*
X47666666Y-22552142D01*
X47619047Y-22456904D01*
X47619047Y-22171190D01*
X47666666Y-22075952D01*
X47714285Y-22028333D01*
X47809523Y-21980714D01*
X47952380Y-21980714D01*
X48047619Y-22028333D01*
X48095238Y-22075952D01*
X48142857Y-22171190D01*
X48142857Y-22456904D01*
X48095238Y-22552142D01*
X48047619Y-22599761D01*
X47952380Y-22647380D01*
X47809523Y-22647380D01*
X48714285Y-22647380D02*
X48619047Y-22599761D01*
X48571428Y-22504523D01*
X48571428Y-21647380D01*
X49238095Y-22647380D02*
X49142857Y-22599761D01*
X49095238Y-22504523D01*
X49095238Y-21647380D01*
X50000000Y-22599761D02*
X49904761Y-22647380D01*
X49714285Y-22647380D01*
X49619047Y-22599761D01*
X49571428Y-22504523D01*
X49571428Y-22123571D01*
X49619047Y-22028333D01*
X49714285Y-21980714D01*
X49904761Y-21980714D01*
X50000000Y-22028333D01*
X50047619Y-22123571D01*
X50047619Y-22218809D01*
X49571428Y-22314047D01*
X50476190Y-22647380D02*
X50476190Y-21980714D01*
X50476190Y-22171190D02*
X50523809Y-22075952D01*
X50571428Y-22028333D01*
X50666666Y-21980714D01*
X50761904Y-21980714D01*
X32857142Y-24638333D02*
X32809523Y-24590714D01*
X32714285Y-24447857D01*
X32666666Y-24352619D01*
X32619047Y-24209761D01*
X32571428Y-23971666D01*
X32571428Y-23781190D01*
X32619047Y-23543095D01*
X32666666Y-23400238D01*
X32714285Y-23305000D01*
X32809523Y-23162142D01*
X32857142Y-23114523D01*
X33809523Y-24162142D02*
X33761904Y-24209761D01*
X33619047Y-24257380D01*
X33523809Y-24257380D01*
X33380952Y-24209761D01*
X33285714Y-24114523D01*
X33238095Y-24019285D01*
X33190476Y-23828809D01*
X33190476Y-23685952D01*
X33238095Y-23495476D01*
X33285714Y-23400238D01*
X33380952Y-23305000D01*
X33523809Y-23257380D01*
X33619047Y-23257380D01*
X33761904Y-23305000D01*
X33809523Y-23352619D01*
X34142857Y-24638333D02*
X34190476Y-24590714D01*
X34285714Y-24447857D01*
X34333333Y-24352619D01*
X34380952Y-24209761D01*
X34428571Y-23971666D01*
X34428571Y-23781190D01*
X34380952Y-23543095D01*
X34333333Y-23400238D01*
X34285714Y-23305000D01*
X34190476Y-23162142D01*
X34142857Y-23114523D01*
X35666666Y-24257380D02*
X35666666Y-23257380D01*
X35904761Y-23257380D01*
X36047619Y-23305000D01*
X36142857Y-23400238D01*
X36190476Y-23495476D01*
X36238095Y-23685952D01*
X36238095Y-23828809D01*
X36190476Y-24019285D01*
X36142857Y-24114523D01*
X36047619Y-24209761D01*
X35904761Y-24257380D01*
X35666666Y-24257380D01*
X36809523Y-24257380D02*
X36714285Y-24209761D01*
X36666666Y-24162142D01*
X36619047Y-24066904D01*
X36619047Y-23781190D01*
X36666666Y-23685952D01*
X36714285Y-23638333D01*
X36809523Y-23590714D01*
X36952380Y-23590714D01*
X37047619Y-23638333D01*
X37095238Y-23685952D01*
X37142857Y-23781190D01*
X37142857Y-24066904D01*
X37095238Y-24162142D01*
X37047619Y-24209761D01*
X36952380Y-24257380D01*
X36809523Y-24257380D01*
X37571428Y-24257380D02*
X37571428Y-23590714D01*
X37571428Y-23685952D02*
X37619047Y-23638333D01*
X37714285Y-23590714D01*
X37857142Y-23590714D01*
X37952380Y-23638333D01*
X37999999Y-23733571D01*
X37999999Y-24257380D01*
X37999999Y-23733571D02*
X38047619Y-23638333D01*
X38142857Y-23590714D01*
X38285714Y-23590714D01*
X38380952Y-23638333D01*
X38428571Y-23733571D01*
X38428571Y-24257380D01*
X39047619Y-24257380D02*
X38952380Y-24209761D01*
X38904761Y-24162142D01*
X38857142Y-24066904D01*
X38857142Y-23781190D01*
X38904761Y-23685952D01*
X38952380Y-23638333D01*
X39047619Y-23590714D01*
X39190476Y-23590714D01*
X39285714Y-23638333D01*
X39333333Y-23685952D01*
X39380952Y-23781190D01*
X39380952Y-24066904D01*
X39333333Y-24162142D01*
X39285714Y-24209761D01*
X39190476Y-24257380D01*
X39047619Y-24257380D01*
X39809523Y-24257380D02*
X39809523Y-23257380D01*
X39904761Y-23876428D02*
X40190476Y-24257380D01*
X40190476Y-23590714D02*
X39809523Y-23971666D01*
X40761904Y-24257380D02*
X40666666Y-24209761D01*
X40619047Y-24162142D01*
X40571428Y-24066904D01*
X40571428Y-23781190D01*
X40619047Y-23685952D01*
X40666666Y-23638333D01*
X40761904Y-23590714D01*
X40904761Y-23590714D01*
X40999999Y-23638333D01*
X41047619Y-23685952D01*
X41095238Y-23781190D01*
X41095238Y-24066904D01*
X41047619Y-24162142D01*
X40999999Y-24209761D01*
X40904761Y-24257380D01*
X40761904Y-24257380D01*
X41476190Y-24209761D02*
X41571428Y-24257380D01*
X41761904Y-24257380D01*
X41857142Y-24209761D01*
X41904761Y-24114523D01*
X41904761Y-24066904D01*
X41857142Y-23971666D01*
X41761904Y-23924047D01*
X41619047Y-23924047D01*
X41523809Y-23876428D01*
X41476190Y-23781190D01*
X41476190Y-23733571D01*
X41523809Y-23638333D01*
X41619047Y-23590714D01*
X41761904Y-23590714D01*
X41857142Y-23638333D01*
X43095238Y-24257380D02*
X43095238Y-23257380D01*
X43428571Y-23971666D01*
X43761904Y-23257380D01*
X43761904Y-24257380D01*
X44380952Y-24257380D02*
X44285714Y-24209761D01*
X44238095Y-24162142D01*
X44190476Y-24066904D01*
X44190476Y-23781190D01*
X44238095Y-23685952D01*
X44285714Y-23638333D01*
X44380952Y-23590714D01*
X44523809Y-23590714D01*
X44619047Y-23638333D01*
X44666666Y-23685952D01*
X44714285Y-23781190D01*
X44714285Y-24066904D01*
X44666666Y-24162142D01*
X44619047Y-24209761D01*
X44523809Y-24257380D01*
X44380952Y-24257380D01*
X45285714Y-24257380D02*
X45190476Y-24209761D01*
X45142857Y-24114523D01*
X45142857Y-23257380D01*
X45666666Y-23590714D02*
X45666666Y-24257380D01*
X45666666Y-23685952D02*
X45714285Y-23638333D01*
X45809523Y-23590714D01*
X45952380Y-23590714D01*
X46047619Y-23638333D01*
X46095238Y-23733571D01*
X46095238Y-24257380D01*
X46999999Y-24257380D02*
X46999999Y-23733571D01*
X46952380Y-23638333D01*
X46857142Y-23590714D01*
X46666666Y-23590714D01*
X46571428Y-23638333D01*
X46999999Y-24209761D02*
X46904761Y-24257380D01*
X46666666Y-24257380D01*
X46571428Y-24209761D01*
X46523809Y-24114523D01*
X46523809Y-24019285D01*
X46571428Y-23924047D01*
X46666666Y-23876428D01*
X46904761Y-23876428D01*
X46999999Y-23828809D01*
X46857142Y-23209761D02*
X46714285Y-23352619D01*
X47476190Y-24257380D02*
X47476190Y-23590714D01*
X47476190Y-23781190D02*
X47523809Y-23685952D01*
X47571428Y-23638333D01*
X47666666Y-23590714D01*
X47761904Y-23590714D01*
X48809523Y-23352619D02*
X48857142Y-23305000D01*
X48952380Y-23257380D01*
X49190476Y-23257380D01*
X49285714Y-23305000D01*
X49333333Y-23352619D01*
X49380952Y-23447857D01*
X49380952Y-23543095D01*
X49333333Y-23685952D01*
X48761904Y-24257380D01*
X49380952Y-24257380D01*
X49999999Y-23257380D02*
X50095238Y-23257380D01*
X50190476Y-23305000D01*
X50238095Y-23352619D01*
X50285714Y-23447857D01*
X50333333Y-23638333D01*
X50333333Y-23876428D01*
X50285714Y-24066904D01*
X50238095Y-24162142D01*
X50190476Y-24209761D01*
X50095238Y-24257380D01*
X49999999Y-24257380D01*
X49904761Y-24209761D01*
X49857142Y-24162142D01*
X49809523Y-24066904D01*
X49761904Y-23876428D01*
X49761904Y-23638333D01*
X49809523Y-23447857D01*
X49857142Y-23352619D01*
X49904761Y-23305000D01*
X49999999Y-23257380D01*
X50714285Y-23352619D02*
X50761904Y-23305000D01*
X50857142Y-23257380D01*
X51095238Y-23257380D01*
X51190476Y-23305000D01*
X51238095Y-23352619D01*
X51285714Y-23447857D01*
X51285714Y-23543095D01*
X51238095Y-23685952D01*
X50666666Y-24257380D01*
X51285714Y-24257380D01*
X51666666Y-23352619D02*
X51714285Y-23305000D01*
X51809523Y-23257380D01*
X52047619Y-23257380D01*
X52142857Y-23305000D01*
X52190476Y-23352619D01*
X52238095Y-23447857D01*
X52238095Y-23543095D01*
X52190476Y-23685952D01*
X51619047Y-24257380D01*
X52238095Y-24257380D01*
X53619047Y-23257380D02*
X53809523Y-23257380D01*
X53904761Y-23305000D01*
X53999999Y-23400238D01*
X54047619Y-23590714D01*
X54047619Y-23924047D01*
X53999999Y-24114523D01*
X53904761Y-24209761D01*
X53809523Y-24257380D01*
X53619047Y-24257380D01*
X53523809Y-24209761D01*
X53428571Y-24114523D01*
X53380952Y-23924047D01*
X53380952Y-23590714D01*
X53428571Y-23400238D01*
X53523809Y-23305000D01*
X53619047Y-23257380D01*
X54904761Y-24209761D02*
X54809523Y-24257380D01*
X54619047Y-24257380D01*
X54523809Y-24209761D01*
X54476190Y-24162142D01*
X54428571Y-24066904D01*
X54428571Y-23781190D01*
X54476190Y-23685952D01*
X54523809Y-23638333D01*
X54619047Y-23590714D01*
X54809523Y-23590714D01*
X54904761Y-23638333D01*
X55190476Y-23590714D02*
X55571428Y-23590714D01*
X55333333Y-23257380D02*
X55333333Y-24114523D01*
X55380952Y-24209761D01*
X55476190Y-24257380D01*
X55571428Y-24257380D01*
D11*
X26000000Y-37500000D02*
X21500000Y-37500000D01*
D10*
X22952380Y-46857142D02*
X22952380Y-47333333D01*
X23428571Y-47380952D01*
X23380952Y-47333333D01*
X23333333Y-47238095D01*
X23333333Y-47000000D01*
X23380952Y-46904761D01*
X23428571Y-46857142D01*
X23523809Y-46809523D01*
X23761904Y-46809523D01*
X23857142Y-46857142D01*
X23904761Y-46904761D01*
X23952380Y-47000000D01*
X23952380Y-47238095D01*
X23904761Y-47333333D01*
X23857142Y-47380952D01*
X22952380Y-46523809D02*
X23952380Y-46190476D01*
X22952380Y-45857142D01*
X23571428Y-45523809D02*
X23571428Y-44761904D01*
X23952380Y-45142857D02*
X23190476Y-45142857D01*
X23000000Y-40714285D02*
X22952380Y-40809523D01*
X22952380Y-40952380D01*
X23000000Y-41095238D01*
X23095238Y-41190476D01*
X23190476Y-41238095D01*
X23380952Y-41285714D01*
X23523809Y-41285714D01*
X23714285Y-41238095D01*
X23809523Y-41190476D01*
X23904761Y-41095238D01*
X23952380Y-40952380D01*
X23952380Y-40857142D01*
X23904761Y-40714285D01*
X23857142Y-40666666D01*
X23523809Y-40666666D01*
X23523809Y-40857142D01*
X23952380Y-40238095D02*
X22952380Y-40238095D01*
X23952380Y-39666666D01*
X22952380Y-39666666D01*
X23952380Y-39190476D02*
X22952380Y-39190476D01*
X22952380Y-38952380D01*
X23000000Y-38809523D01*
X23095238Y-38714285D01*
X23190476Y-38666666D01*
X23380952Y-38619047D01*
X23523809Y-38619047D01*
X23714285Y-38666666D01*
X23809523Y-38714285D01*
X23904761Y-38809523D01*
X23952380Y-38952380D01*
X23952380Y-39190476D01*
X22623571Y-34880952D02*
X22671190Y-34738095D01*
X22718809Y-34690476D01*
X22814047Y-34642857D01*
X22956904Y-34642857D01*
X23052142Y-34690476D01*
X23099761Y-34738095D01*
X23147380Y-34833333D01*
X23147380Y-35214285D01*
X22147380Y-35214285D01*
X22147380Y-34880952D01*
X22195000Y-34785714D01*
X22242619Y-34738095D01*
X22337857Y-34690476D01*
X22433095Y-34690476D01*
X22528333Y-34738095D01*
X22575952Y-34785714D01*
X22623571Y-34880952D01*
X22623571Y-35214285D01*
X22861666Y-30452380D02*
X22861666Y-29976190D01*
X23147380Y-30547619D02*
X22147380Y-30214285D01*
X23147380Y-29880952D01*
X24757380Y-36333333D02*
X24281190Y-36666666D01*
X24757380Y-36904761D02*
X23757380Y-36904761D01*
X23757380Y-36523809D01*
X23805000Y-36428571D01*
X23852619Y-36380952D01*
X23947857Y-36333333D01*
X24090714Y-36333333D01*
X24185952Y-36380952D01*
X24233571Y-36428571D01*
X24281190Y-36523809D01*
X24281190Y-36904761D01*
X24709761Y-35952380D02*
X24757380Y-35809523D01*
X24757380Y-35571428D01*
X24709761Y-35476190D01*
X24662142Y-35428571D01*
X24566904Y-35380952D01*
X24471666Y-35380952D01*
X24376428Y-35428571D01*
X24328809Y-35476190D01*
X24281190Y-35571428D01*
X24233571Y-35761904D01*
X24185952Y-35857142D01*
X24138333Y-35904761D01*
X24043095Y-35952380D01*
X23947857Y-35952380D01*
X23852619Y-35904761D01*
X23805000Y-35857142D01*
X23757380Y-35761904D01*
X23757380Y-35523809D01*
X23805000Y-35380952D01*
X24090714Y-34523809D02*
X24757380Y-34523809D01*
X23709761Y-34761904D02*
X24424047Y-35000000D01*
X24424047Y-34380952D01*
X24185952Y-33857142D02*
X24138333Y-33952380D01*
X24090714Y-34000000D01*
X23995476Y-34047619D01*
X23947857Y-34047619D01*
X23852619Y-34000000D01*
X23805000Y-33952380D01*
X23757380Y-33857142D01*
X23757380Y-33666666D01*
X23805000Y-33571428D01*
X23852619Y-33523809D01*
X23947857Y-33476190D01*
X23995476Y-33476190D01*
X24090714Y-33523809D01*
X24138333Y-33571428D01*
X24185952Y-33666666D01*
X24185952Y-33857142D01*
X24233571Y-33952380D01*
X24281190Y-34000000D01*
X24376428Y-34047619D01*
X24566904Y-34047619D01*
X24662142Y-34000000D01*
X24709761Y-33952380D01*
X24757380Y-33857142D01*
X24757380Y-33666666D01*
X24709761Y-33571428D01*
X24662142Y-33523809D01*
X24566904Y-33476190D01*
X24376428Y-33476190D01*
X24281190Y-33523809D01*
X24233571Y-33571428D01*
X24185952Y-33666666D01*
X23757380Y-32571428D02*
X23757380Y-33047619D01*
X24233571Y-33095238D01*
X24185952Y-33047619D01*
X24138333Y-32952380D01*
X24138333Y-32714285D01*
X24185952Y-32619047D01*
X24233571Y-32571428D01*
X24328809Y-32523809D01*
X24566904Y-32523809D01*
X24662142Y-32571428D01*
X24709761Y-32619047D01*
X24757380Y-32714285D01*
X24757380Y-32952380D01*
X24709761Y-33047619D01*
X24662142Y-33095238D01*
X24233571Y-31000000D02*
X24281190Y-30857142D01*
X24328809Y-30809523D01*
X24424047Y-30761904D01*
X24566904Y-30761904D01*
X24662142Y-30809523D01*
X24709761Y-30857142D01*
X24757380Y-30952380D01*
X24757380Y-31333333D01*
X23757380Y-31333333D01*
X23757380Y-31000000D01*
X23805000Y-30904761D01*
X23852619Y-30857142D01*
X23947857Y-30809523D01*
X24043095Y-30809523D01*
X24138333Y-30857142D01*
X24185952Y-30904761D01*
X24233571Y-31000000D01*
X24233571Y-31333333D01*
X24090714Y-29904761D02*
X24757380Y-29904761D01*
X24090714Y-30333333D02*
X24614523Y-30333333D01*
X24709761Y-30285714D01*
X24757380Y-30190476D01*
X24757380Y-30047619D01*
X24709761Y-29952380D01*
X24662142Y-29904761D01*
X24709761Y-29476190D02*
X24757380Y-29380952D01*
X24757380Y-29190476D01*
X24709761Y-29095238D01*
X24614523Y-29047619D01*
X24566904Y-29047619D01*
X24471666Y-29095238D01*
X24424047Y-29190476D01*
X24424047Y-29333333D01*
X24376428Y-29428571D01*
X24281190Y-29476190D01*
X24233571Y-29476190D01*
X24138333Y-29428571D01*
X24090714Y-29333333D01*
X24090714Y-29190476D01*
X24138333Y-29095238D01*
D11*
X112242743Y-33984869D02*
X116742743Y-33984869D01*
X112250000Y-44000000D02*
X116750000Y-44000000D01*
X112500000Y-54000000D02*
X117000000Y-54000000D01*
D10*
X114428571Y-60714285D02*
X114428571Y-60380952D01*
X114952380Y-60238095D02*
X114952380Y-60714285D01*
X113952380Y-60714285D01*
X113952380Y-60238095D01*
X114952380Y-59809523D02*
X113952380Y-59809523D01*
X114428571Y-59809523D02*
X114428571Y-59238095D01*
X114952380Y-59238095D02*
X113952380Y-59238095D01*
X114904761Y-58809523D02*
X114952380Y-58666666D01*
X114952380Y-58428571D01*
X114904761Y-58333333D01*
X114857142Y-58285714D01*
X114761904Y-58238095D01*
X114666666Y-58238095D01*
X114571428Y-58285714D01*
X114523809Y-58333333D01*
X114476190Y-58428571D01*
X114428571Y-58619047D01*
X114380952Y-58714285D01*
X114333333Y-58761904D01*
X114238095Y-58809523D01*
X114142857Y-58809523D01*
X114047619Y-58761904D01*
X114000000Y-58714285D01*
X113952380Y-58619047D01*
X113952380Y-58380952D01*
X114000000Y-58238095D01*
X114147380Y-52642857D02*
X113147380Y-52642857D01*
X113623571Y-52642857D02*
X113623571Y-52071428D01*
X114147380Y-52071428D02*
X113147380Y-52071428D01*
X114099761Y-51214285D02*
X114147380Y-51309523D01*
X114147380Y-51500000D01*
X114099761Y-51595238D01*
X114004523Y-51642857D01*
X113623571Y-51642857D01*
X113528333Y-51595238D01*
X113480714Y-51500000D01*
X113480714Y-51309523D01*
X113528333Y-51214285D01*
X113623571Y-51166666D01*
X113718809Y-51166666D01*
X113814047Y-51642857D01*
X114147380Y-50309523D02*
X113623571Y-50309523D01*
X113528333Y-50357142D01*
X113480714Y-50452380D01*
X113480714Y-50642857D01*
X113528333Y-50738095D01*
X114099761Y-50309523D02*
X114147380Y-50404761D01*
X114147380Y-50642857D01*
X114099761Y-50738095D01*
X114004523Y-50785714D01*
X113909285Y-50785714D01*
X113814047Y-50738095D01*
X113766428Y-50642857D01*
X113766428Y-50404761D01*
X113718809Y-50309523D01*
X113480714Y-49976190D02*
X113480714Y-49595238D01*
X113147380Y-49833333D02*
X114004523Y-49833333D01*
X114099761Y-49785714D01*
X114147380Y-49690476D01*
X114147380Y-49595238D01*
X113099761Y-48547619D02*
X114385476Y-49404761D01*
X114052142Y-47642857D02*
X114099761Y-47690476D01*
X114147380Y-47833333D01*
X114147380Y-47928571D01*
X114099761Y-48071428D01*
X114004523Y-48166666D01*
X113909285Y-48214285D01*
X113718809Y-48261904D01*
X113575952Y-48261904D01*
X113385476Y-48214285D01*
X113290238Y-48166666D01*
X113195000Y-48071428D01*
X113147380Y-47928571D01*
X113147380Y-47833333D01*
X113195000Y-47690476D01*
X113242619Y-47642857D01*
X114147380Y-47071428D02*
X114099761Y-47166666D01*
X114052142Y-47214285D01*
X113956904Y-47261904D01*
X113671190Y-47261904D01*
X113575952Y-47214285D01*
X113528333Y-47166666D01*
X113480714Y-47071428D01*
X113480714Y-46928571D01*
X113528333Y-46833333D01*
X113575952Y-46785714D01*
X113671190Y-46738095D01*
X113956904Y-46738095D01*
X114052142Y-46785714D01*
X114099761Y-46833333D01*
X114147380Y-46928571D01*
X114147380Y-47071428D01*
X114147380Y-46166666D02*
X114099761Y-46261904D01*
X114052142Y-46309523D01*
X113956904Y-46357142D01*
X113671190Y-46357142D01*
X113575952Y-46309523D01*
X113528333Y-46261904D01*
X113480714Y-46166666D01*
X113480714Y-46023809D01*
X113528333Y-45928571D01*
X113575952Y-45880952D01*
X113671190Y-45833333D01*
X113956904Y-45833333D01*
X114052142Y-45880952D01*
X114099761Y-45928571D01*
X114147380Y-46023809D01*
X114147380Y-46166666D01*
X114147380Y-45261904D02*
X114099761Y-45357142D01*
X114004523Y-45404761D01*
X113147380Y-45404761D01*
X115757380Y-50761904D02*
X115090714Y-50761904D01*
X115185952Y-50761904D02*
X115138333Y-50714285D01*
X115090714Y-50619047D01*
X115090714Y-50476190D01*
X115138333Y-50380952D01*
X115233571Y-50333333D01*
X115757380Y-50333333D01*
X115233571Y-50333333D02*
X115138333Y-50285714D01*
X115090714Y-50190476D01*
X115090714Y-50047619D01*
X115138333Y-49952380D01*
X115233571Y-49904761D01*
X115757380Y-49904761D01*
X115757380Y-49285714D02*
X115709761Y-49380952D01*
X115662142Y-49428571D01*
X115566904Y-49476190D01*
X115281190Y-49476190D01*
X115185952Y-49428571D01*
X115138333Y-49380952D01*
X115090714Y-49285714D01*
X115090714Y-49142857D01*
X115138333Y-49047619D01*
X115185952Y-49000000D01*
X115281190Y-48952380D01*
X115566904Y-48952380D01*
X115662142Y-49000000D01*
X115709761Y-49047619D01*
X115757380Y-49142857D01*
X115757380Y-49285714D01*
X115757380Y-48095238D02*
X114757380Y-48095238D01*
X115709761Y-48095238D02*
X115757380Y-48190476D01*
X115757380Y-48380952D01*
X115709761Y-48476190D01*
X115662142Y-48523809D01*
X115566904Y-48571428D01*
X115281190Y-48571428D01*
X115185952Y-48523809D01*
X115138333Y-48476190D01*
X115090714Y-48380952D01*
X115090714Y-48190476D01*
X115138333Y-48095238D01*
X115709761Y-47238095D02*
X115757380Y-47333333D01*
X115757380Y-47523809D01*
X115709761Y-47619047D01*
X115614523Y-47666666D01*
X115233571Y-47666666D01*
X115138333Y-47619047D01*
X115090714Y-47523809D01*
X115090714Y-47333333D01*
X115138333Y-47238095D01*
X115233571Y-47190476D01*
X115328809Y-47190476D01*
X115424047Y-47666666D01*
X113623571Y-41119047D02*
X113671190Y-40976190D01*
X113718809Y-40928571D01*
X113814047Y-40880952D01*
X113956904Y-40880952D01*
X114052142Y-40928571D01*
X114099761Y-40976190D01*
X114147380Y-41071428D01*
X114147380Y-41452380D01*
X113147380Y-41452380D01*
X113147380Y-41119047D01*
X113195000Y-41023809D01*
X113242619Y-40976190D01*
X113337857Y-40928571D01*
X113433095Y-40928571D01*
X113528333Y-40976190D01*
X113575952Y-41023809D01*
X113623571Y-41119047D01*
X113623571Y-41452380D01*
X114147380Y-40023809D02*
X113623571Y-40023809D01*
X113528333Y-40071428D01*
X113480714Y-40166666D01*
X113480714Y-40357142D01*
X113528333Y-40452380D01*
X114099761Y-40023809D02*
X114147380Y-40119047D01*
X114147380Y-40357142D01*
X114099761Y-40452380D01*
X114004523Y-40500000D01*
X113909285Y-40500000D01*
X113814047Y-40452380D01*
X113766428Y-40357142D01*
X113766428Y-40119047D01*
X113718809Y-40023809D01*
X114099761Y-39119047D02*
X114147380Y-39214285D01*
X114147380Y-39404761D01*
X114099761Y-39500000D01*
X114052142Y-39547619D01*
X113956904Y-39595238D01*
X113671190Y-39595238D01*
X113575952Y-39547619D01*
X113528333Y-39500000D01*
X113480714Y-39404761D01*
X113480714Y-39214285D01*
X113528333Y-39119047D01*
X114147380Y-38690476D02*
X113147380Y-38690476D01*
X113766428Y-38595238D02*
X114147380Y-38309523D01*
X113480714Y-38309523D02*
X113861666Y-38690476D01*
X113480714Y-37452380D02*
X114147380Y-37452380D01*
X113480714Y-37880952D02*
X114004523Y-37880952D01*
X114099761Y-37833333D01*
X114147380Y-37738095D01*
X114147380Y-37595238D01*
X114099761Y-37500000D01*
X114052142Y-37452380D01*
X113480714Y-36976190D02*
X114480714Y-36976190D01*
X113528333Y-36976190D02*
X113480714Y-36880952D01*
X113480714Y-36690476D01*
X113528333Y-36595238D01*
X113575952Y-36547619D01*
X113671190Y-36500000D01*
X113956904Y-36500000D01*
X114052142Y-36547619D01*
X114099761Y-36595238D01*
X114147380Y-36690476D01*
X114147380Y-36880952D01*
X114099761Y-36976190D01*
X115757380Y-41119047D02*
X114757380Y-41119047D01*
X115757380Y-40690476D02*
X115233571Y-40690476D01*
X115138333Y-40738095D01*
X115090714Y-40833333D01*
X115090714Y-40976190D01*
X115138333Y-41071428D01*
X115185952Y-41119047D01*
X115709761Y-39833333D02*
X115757380Y-39928571D01*
X115757380Y-40119047D01*
X115709761Y-40214285D01*
X115614523Y-40261904D01*
X115233571Y-40261904D01*
X115138333Y-40214285D01*
X115090714Y-40119047D01*
X115090714Y-39928571D01*
X115138333Y-39833333D01*
X115233571Y-39785714D01*
X115328809Y-39785714D01*
X115424047Y-40261904D01*
X115757380Y-38928571D02*
X115233571Y-38928571D01*
X115138333Y-38976190D01*
X115090714Y-39071428D01*
X115090714Y-39261904D01*
X115138333Y-39357142D01*
X115709761Y-38928571D02*
X115757380Y-39023809D01*
X115757380Y-39261904D01*
X115709761Y-39357142D01*
X115614523Y-39404761D01*
X115519285Y-39404761D01*
X115424047Y-39357142D01*
X115376428Y-39261904D01*
X115376428Y-39023809D01*
X115328809Y-38928571D01*
X115090714Y-38595238D02*
X115090714Y-38214285D01*
X114757380Y-38452380D02*
X115614523Y-38452380D01*
X115709761Y-38404761D01*
X115757380Y-38309523D01*
X115757380Y-38214285D01*
X115709761Y-37500000D02*
X115757380Y-37595238D01*
X115757380Y-37785714D01*
X115709761Y-37880952D01*
X115614523Y-37928571D01*
X115233571Y-37928571D01*
X115138333Y-37880952D01*
X115090714Y-37785714D01*
X115090714Y-37595238D01*
X115138333Y-37500000D01*
X115233571Y-37452380D01*
X115328809Y-37452380D01*
X115424047Y-37928571D01*
X115757380Y-37023809D02*
X115090714Y-37023809D01*
X115281190Y-37023809D02*
X115185952Y-36976190D01*
X115138333Y-36928571D01*
X115090714Y-36833333D01*
X115090714Y-36738095D01*
X114666666Y-30428571D02*
X114666666Y-29952380D01*
X114952380Y-30523809D02*
X113952380Y-30190476D01*
X114952380Y-29857142D01*
X114952380Y-29380952D02*
X114904761Y-29476190D01*
X114809523Y-29523809D01*
X113952380Y-29523809D01*
X114952380Y-28571428D02*
X114428571Y-28571428D01*
X114333333Y-28619047D01*
X114285714Y-28714285D01*
X114285714Y-28904761D01*
X114333333Y-29000000D01*
X114904761Y-28571428D02*
X114952380Y-28666666D01*
X114952380Y-28904761D01*
X114904761Y-29000000D01*
X114809523Y-29047619D01*
X114714285Y-29047619D01*
X114619047Y-29000000D01*
X114571428Y-28904761D01*
X114571428Y-28666666D01*
X114523809Y-28571428D01*
X114952380Y-28095238D02*
X114285714Y-28095238D01*
X114476190Y-28095238D02*
X114380952Y-28047619D01*
X114333333Y-28000000D01*
X114285714Y-27904761D01*
X114285714Y-27809523D01*
X114952380Y-27476190D02*
X114285714Y-27476190D01*
X114380952Y-27476190D02*
X114333333Y-27428571D01*
X114285714Y-27333333D01*
X114285714Y-27190476D01*
X114333333Y-27095238D01*
X114428571Y-27047619D01*
X114952380Y-27047619D01*
X114428571Y-27047619D02*
X114333333Y-27000000D01*
X114285714Y-26904761D01*
X114285714Y-26761904D01*
X114333333Y-26666666D01*
X114428571Y-26619047D01*
X114952380Y-26619047D01*
X101785714Y-20242619D02*
X101833333Y-20195000D01*
X101928571Y-20147380D01*
X102166666Y-20147380D01*
X102261904Y-20195000D01*
X102309523Y-20242619D01*
X102357142Y-20337857D01*
X102357142Y-20433095D01*
X102309523Y-20575952D01*
X101738095Y-21147380D01*
X102357142Y-21147380D01*
X102690476Y-20147380D02*
X103309523Y-20147380D01*
X102976190Y-20528333D01*
X103119047Y-20528333D01*
X103214285Y-20575952D01*
X103261904Y-20623571D01*
X103309523Y-20718809D01*
X103309523Y-20956904D01*
X103261904Y-21052142D01*
X103214285Y-21099761D01*
X103119047Y-21147380D01*
X102833333Y-21147380D01*
X102738095Y-21099761D01*
X102690476Y-21052142D01*
X103928571Y-20147380D02*
X104023809Y-20147380D01*
X104119047Y-20195000D01*
X104166666Y-20242619D01*
X104214285Y-20337857D01*
X104261904Y-20528333D01*
X104261904Y-20766428D01*
X104214285Y-20956904D01*
X104166666Y-21052142D01*
X104119047Y-21099761D01*
X104023809Y-21147380D01*
X103928571Y-21147380D01*
X103833333Y-21099761D01*
X103785714Y-21052142D01*
X103738095Y-20956904D01*
X103690476Y-20766428D01*
X103690476Y-20528333D01*
X103738095Y-20337857D01*
X103785714Y-20242619D01*
X103833333Y-20195000D01*
X103928571Y-20147380D01*
X104547619Y-20147380D02*
X104880952Y-21147380D01*
X105214285Y-20147380D01*
X106309523Y-21147380D02*
X106309523Y-20147380D01*
X106785714Y-21147380D02*
X106785714Y-20147380D01*
X107357142Y-21147380D01*
X107357142Y-20147380D01*
X107833333Y-21147380D02*
X107833333Y-20147380D01*
X108214285Y-20147380D01*
X108309523Y-20195000D01*
X108357142Y-20242619D01*
X108404761Y-20337857D01*
X108404761Y-20480714D01*
X108357142Y-20575952D01*
X108309523Y-20623571D01*
X108214285Y-20671190D01*
X107833333Y-20671190D01*
X108833333Y-20147380D02*
X108833333Y-20956904D01*
X108880952Y-21052142D01*
X108928571Y-21099761D01*
X109023809Y-21147380D01*
X109214285Y-21147380D01*
X109309523Y-21099761D01*
X109357142Y-21052142D01*
X109404761Y-20956904D01*
X109404761Y-20147380D01*
X109738095Y-20147380D02*
X110309523Y-20147380D01*
X110023809Y-21147380D02*
X110023809Y-20147380D01*
X103357142Y-22709761D02*
X103452380Y-22757380D01*
X103642857Y-22757380D01*
X103738095Y-22709761D01*
X103785714Y-22614523D01*
X103785714Y-22566904D01*
X103738095Y-22471666D01*
X103642857Y-22424047D01*
X103500000Y-22424047D01*
X103404761Y-22376428D01*
X103357142Y-22281190D01*
X103357142Y-22233571D01*
X103404761Y-22138333D01*
X103500000Y-22090714D01*
X103642857Y-22090714D01*
X103738095Y-22138333D01*
X104595238Y-22709761D02*
X104500000Y-22757380D01*
X104309523Y-22757380D01*
X104214285Y-22709761D01*
X104166666Y-22614523D01*
X104166666Y-22233571D01*
X104214285Y-22138333D01*
X104309523Y-22090714D01*
X104500000Y-22090714D01*
X104595238Y-22138333D01*
X104642857Y-22233571D01*
X104642857Y-22328809D01*
X104166666Y-22424047D01*
X105071428Y-22090714D02*
X105071428Y-22757380D01*
X105071428Y-22185952D02*
X105119047Y-22138333D01*
X105214285Y-22090714D01*
X105357142Y-22090714D01*
X105452380Y-22138333D01*
X105500000Y-22233571D01*
X105500000Y-22757380D01*
X105928571Y-22709761D02*
X106023809Y-22757380D01*
X106214285Y-22757380D01*
X106309523Y-22709761D01*
X106357142Y-22614523D01*
X106357142Y-22566904D01*
X106309523Y-22471666D01*
X106214285Y-22424047D01*
X106071428Y-22424047D01*
X105976190Y-22376428D01*
X105928571Y-22281190D01*
X105928571Y-22233571D01*
X105976190Y-22138333D01*
X106071428Y-22090714D01*
X106214285Y-22090714D01*
X106309523Y-22138333D01*
X106785714Y-22757380D02*
X106785714Y-22090714D01*
X106785714Y-21757380D02*
X106738095Y-21805000D01*
X106785714Y-21852619D01*
X106833333Y-21805000D01*
X106785714Y-21757380D01*
X106785714Y-21852619D01*
X107261904Y-22090714D02*
X107261904Y-22757380D01*
X107261904Y-22185952D02*
X107309523Y-22138333D01*
X107404761Y-22090714D01*
X107547619Y-22090714D01*
X107642857Y-22138333D01*
X107690476Y-22233571D01*
X107690476Y-22757380D01*
X108595238Y-22090714D02*
X108595238Y-22900238D01*
X108547619Y-22995476D01*
X108500000Y-23043095D01*
X108404761Y-23090714D01*
X108261904Y-23090714D01*
X108166666Y-23043095D01*
X108595238Y-22709761D02*
X108500000Y-22757380D01*
X108309523Y-22757380D01*
X108214285Y-22709761D01*
X108166666Y-22662142D01*
X108119047Y-22566904D01*
X108119047Y-22281190D01*
X108166666Y-22185952D01*
X108214285Y-22138333D01*
X108309523Y-22090714D01*
X108500000Y-22090714D01*
X108595238Y-22138333D01*
X113147380Y-96714285D02*
X112671190Y-97047619D01*
X113147380Y-97285714D02*
X112147380Y-97285714D01*
X112147380Y-96904761D01*
X112195000Y-96809523D01*
X112242619Y-96761904D01*
X112337857Y-96714285D01*
X112480714Y-96714285D01*
X112575952Y-96761904D01*
X112623571Y-96809523D01*
X112671190Y-96904761D01*
X112671190Y-97285714D01*
X113099761Y-95904761D02*
X113147380Y-96000000D01*
X113147380Y-96190476D01*
X113099761Y-96285714D01*
X113004523Y-96333333D01*
X112623571Y-96333333D01*
X112528333Y-96285714D01*
X112480714Y-96190476D01*
X112480714Y-96000000D01*
X112528333Y-95904761D01*
X112623571Y-95857142D01*
X112718809Y-95857142D01*
X112814047Y-96333333D01*
X113147380Y-95285714D02*
X113099761Y-95380952D01*
X113004523Y-95428571D01*
X112147380Y-95428571D01*
X113147380Y-94476190D02*
X112623571Y-94476190D01*
X112528333Y-94523809D01*
X112480714Y-94619047D01*
X112480714Y-94809523D01*
X112528333Y-94904761D01*
X113099761Y-94476190D02*
X113147380Y-94571428D01*
X113147380Y-94809523D01*
X113099761Y-94904761D01*
X113004523Y-94952380D01*
X112909285Y-94952380D01*
X112814047Y-94904761D01*
X112766428Y-94809523D01*
X112766428Y-94571428D01*
X112718809Y-94476190D01*
X112480714Y-94095238D02*
X113147380Y-93857142D01*
X112480714Y-93619047D02*
X113147380Y-93857142D01*
X113385476Y-93952380D01*
X113433095Y-94000000D01*
X113480714Y-94095238D01*
X113757380Y-98380952D02*
X113757380Y-98190476D01*
X113805000Y-98095238D01*
X113900238Y-98000000D01*
X114090714Y-97952380D01*
X114424047Y-97952380D01*
X114614523Y-98000000D01*
X114709761Y-98095238D01*
X114757380Y-98190476D01*
X114757380Y-98380952D01*
X114709761Y-98476190D01*
X114614523Y-98571428D01*
X114424047Y-98619047D01*
X114090714Y-98619047D01*
X113900238Y-98571428D01*
X113805000Y-98476190D01*
X113757380Y-98380952D01*
X113757380Y-97523809D02*
X114566904Y-97523809D01*
X114662142Y-97476190D01*
X114709761Y-97428571D01*
X114757380Y-97333333D01*
X114757380Y-97142857D01*
X114709761Y-97047619D01*
X114662142Y-97000000D01*
X114566904Y-96952380D01*
X113757380Y-96952380D01*
X113757380Y-96619047D02*
X113757380Y-96047619D01*
X114757380Y-96333333D02*
X113757380Y-96333333D01*
X114757380Y-95714285D02*
X113757380Y-95714285D01*
X113757380Y-95333333D01*
X113805000Y-95238095D01*
X113852619Y-95190476D01*
X113947857Y-95142857D01*
X114090714Y-95142857D01*
X114185952Y-95190476D01*
X114233571Y-95238095D01*
X114281190Y-95333333D01*
X114281190Y-95714285D01*
X113757380Y-94714285D02*
X114566904Y-94714285D01*
X114662142Y-94666666D01*
X114709761Y-94619047D01*
X114757380Y-94523809D01*
X114757380Y-94333333D01*
X114709761Y-94238095D01*
X114662142Y-94190476D01*
X114566904Y-94142857D01*
X113757380Y-94142857D01*
X113757380Y-93809523D02*
X113757380Y-93238095D01*
X114757380Y-93523809D02*
X113757380Y-93523809D01*
X114709761Y-92952380D02*
X114757380Y-92809523D01*
X114757380Y-92571428D01*
X114709761Y-92476190D01*
X114662142Y-92428571D01*
X114566904Y-92380952D01*
X114471666Y-92380952D01*
X114376428Y-92428571D01*
X114328809Y-92476190D01*
X114281190Y-92571428D01*
X114233571Y-92761904D01*
X114185952Y-92857142D01*
X114138333Y-92904761D01*
X114043095Y-92952380D01*
X113947857Y-92952380D01*
X113852619Y-92904761D01*
X113805000Y-92857142D01*
X113757380Y-92761904D01*
X113757380Y-92523809D01*
X113805000Y-92380952D01*
D11*
X99500000Y-103000000D02*
X99500000Y-106000000D01*
X89500000Y-103000000D02*
X89500000Y-106000000D01*
X79500000Y-103000000D02*
X79500000Y-106000000D01*
X69500000Y-103000000D02*
X69500000Y-106000000D01*
X59500000Y-103000000D02*
X59500000Y-106000000D01*
X48500000Y-103000000D02*
X48500000Y-106000000D01*
X38000000Y-103000000D02*
X38000000Y-106000000D01*
D10*
X28071428Y-103147380D02*
X28261904Y-103147380D01*
X28357142Y-103195000D01*
X28452380Y-103290238D01*
X28500000Y-103480714D01*
X28500000Y-103814047D01*
X28452380Y-104004523D01*
X28357142Y-104099761D01*
X28261904Y-104147380D01*
X28071428Y-104147380D01*
X27976190Y-104099761D01*
X27880952Y-104004523D01*
X27833333Y-103814047D01*
X27833333Y-103480714D01*
X27880952Y-103290238D01*
X27976190Y-103195000D01*
X28071428Y-103147380D01*
X29357142Y-103480714D02*
X29357142Y-104147380D01*
X28928571Y-103480714D02*
X28928571Y-104004523D01*
X28976190Y-104099761D01*
X29071428Y-104147380D01*
X29214285Y-104147380D01*
X29309523Y-104099761D01*
X29357142Y-104052142D01*
X29690476Y-103480714D02*
X30071428Y-103480714D01*
X29833333Y-103147380D02*
X29833333Y-104004523D01*
X29880952Y-104099761D01*
X29976190Y-104147380D01*
X30071428Y-104147380D01*
X30833333Y-104147380D02*
X30833333Y-103147380D01*
X30833333Y-104099761D02*
X30738095Y-104147380D01*
X30547619Y-104147380D01*
X30452380Y-104099761D01*
X30404761Y-104052142D01*
X30357142Y-103956904D01*
X30357142Y-103671190D01*
X30404761Y-103575952D01*
X30452380Y-103528333D01*
X30547619Y-103480714D01*
X30738095Y-103480714D01*
X30833333Y-103528333D01*
X31452380Y-104147380D02*
X31357142Y-104099761D01*
X31309523Y-104052142D01*
X31261904Y-103956904D01*
X31261904Y-103671190D01*
X31309523Y-103575952D01*
X31357142Y-103528333D01*
X31452380Y-103480714D01*
X31595238Y-103480714D01*
X31690476Y-103528333D01*
X31738095Y-103575952D01*
X31785714Y-103671190D01*
X31785714Y-103956904D01*
X31738095Y-104052142D01*
X31690476Y-104099761D01*
X31595238Y-104147380D01*
X31452380Y-104147380D01*
X32357142Y-104147380D02*
X32261904Y-104099761D01*
X32214285Y-104052142D01*
X32166666Y-103956904D01*
X32166666Y-103671190D01*
X32214285Y-103575952D01*
X32261904Y-103528333D01*
X32357142Y-103480714D01*
X32500000Y-103480714D01*
X32595238Y-103528333D01*
X32642857Y-103575952D01*
X32690476Y-103671190D01*
X32690476Y-103956904D01*
X32642857Y-104052142D01*
X32595238Y-104099761D01*
X32500000Y-104147380D01*
X32357142Y-104147380D01*
X33119047Y-104147380D02*
X33119047Y-103480714D01*
X33119047Y-103671190D02*
X33166666Y-103575952D01*
X33214285Y-103528333D01*
X33309523Y-103480714D01*
X33404761Y-103480714D01*
X34880952Y-104099761D02*
X34785714Y-104147380D01*
X34595238Y-104147380D01*
X34500000Y-104099761D01*
X34452380Y-104004523D01*
X34452380Y-103623571D01*
X34500000Y-103528333D01*
X34595238Y-103480714D01*
X34785714Y-103480714D01*
X34880952Y-103528333D01*
X34928571Y-103623571D01*
X34928571Y-103718809D01*
X34452380Y-103814047D01*
X35357142Y-104147380D02*
X35357142Y-103480714D01*
X35357142Y-103575952D02*
X35404761Y-103528333D01*
X35500000Y-103480714D01*
X35642857Y-103480714D01*
X35738095Y-103528333D01*
X35785714Y-103623571D01*
X35785714Y-104147380D01*
X35785714Y-103623571D02*
X35833333Y-103528333D01*
X35928571Y-103480714D01*
X36071428Y-103480714D01*
X36166666Y-103528333D01*
X36214285Y-103623571D01*
X36214285Y-104147380D01*
X37119047Y-103480714D02*
X37119047Y-104147380D01*
X36690476Y-103480714D02*
X36690476Y-104004523D01*
X36738095Y-104099761D01*
X36833333Y-104147380D01*
X36976190Y-104147380D01*
X37071428Y-104099761D01*
X37119047Y-104052142D01*
X28738095Y-106138333D02*
X28690476Y-106090714D01*
X28595238Y-105947857D01*
X28547619Y-105852619D01*
X28500000Y-105709761D01*
X28452380Y-105471666D01*
X28452380Y-105281190D01*
X28500000Y-105043095D01*
X28547619Y-104900238D01*
X28595238Y-104805000D01*
X28690476Y-104662142D01*
X28738095Y-104614523D01*
X29642857Y-105757380D02*
X29071428Y-105757380D01*
X29357142Y-105757380D02*
X29357142Y-104757380D01*
X29261904Y-104900238D01*
X29166666Y-104995476D01*
X29071428Y-105043095D01*
X30261904Y-104757380D02*
X30357142Y-104757380D01*
X30452380Y-104805000D01*
X30500000Y-104852619D01*
X30547619Y-104947857D01*
X30595238Y-105138333D01*
X30595238Y-105376428D01*
X30547619Y-105566904D01*
X30500000Y-105662142D01*
X30452380Y-105709761D01*
X30357142Y-105757380D01*
X30261904Y-105757380D01*
X30166666Y-105709761D01*
X30119047Y-105662142D01*
X30071428Y-105566904D01*
X30023809Y-105376428D01*
X30023809Y-105138333D01*
X30071428Y-104947857D01*
X30119047Y-104852619D01*
X30166666Y-104805000D01*
X30261904Y-104757380D01*
X31214285Y-104757380D02*
X31309523Y-104757380D01*
X31404761Y-104805000D01*
X31452380Y-104852619D01*
X31500000Y-104947857D01*
X31547619Y-105138333D01*
X31547619Y-105376428D01*
X31500000Y-105566904D01*
X31452380Y-105662142D01*
X31404761Y-105709761D01*
X31309523Y-105757380D01*
X31214285Y-105757380D01*
X31119047Y-105709761D01*
X31071428Y-105662142D01*
X31023809Y-105566904D01*
X30976190Y-105376428D01*
X30976190Y-105138333D01*
X31023809Y-104947857D01*
X31071428Y-104852619D01*
X31119047Y-104805000D01*
X31214285Y-104757380D01*
X31976190Y-105757380D02*
X31976190Y-104757380D01*
X32071428Y-105376428D02*
X32357142Y-105757380D01*
X32357142Y-105090714D02*
X31976190Y-105471666D01*
X33547619Y-105757380D02*
X33547619Y-104757380D01*
X34119047Y-105757380D01*
X34119047Y-104757380D01*
X34452380Y-104757380D02*
X35023809Y-104757380D01*
X34738095Y-105757380D02*
X34738095Y-104757380D01*
X35928571Y-105662142D02*
X35880952Y-105709761D01*
X35738095Y-105757380D01*
X35642857Y-105757380D01*
X35500000Y-105709761D01*
X35404761Y-105614523D01*
X35357142Y-105519285D01*
X35309523Y-105328809D01*
X35309523Y-105185952D01*
X35357142Y-104995476D01*
X35404761Y-104900238D01*
X35500000Y-104805000D01*
X35642857Y-104757380D01*
X35738095Y-104757380D01*
X35880952Y-104805000D01*
X35928571Y-104852619D01*
X36261904Y-106138333D02*
X36309523Y-106090714D01*
X36404761Y-105947857D01*
X36452380Y-105852619D01*
X36500000Y-105709761D01*
X36547619Y-105471666D01*
X36547619Y-105281190D01*
X36500000Y-105043095D01*
X36452380Y-104900238D01*
X36404761Y-104805000D01*
X36309523Y-104662142D01*
X36261904Y-104614523D01*
X39714285Y-104147380D02*
X39714285Y-103147380D01*
X39952380Y-103147380D01*
X40095238Y-103195000D01*
X40190476Y-103290238D01*
X40238095Y-103385476D01*
X40285714Y-103575952D01*
X40285714Y-103718809D01*
X40238095Y-103909285D01*
X40190476Y-104004523D01*
X40095238Y-104099761D01*
X39952380Y-104147380D01*
X39714285Y-104147380D01*
X40714285Y-104147380D02*
X40714285Y-103147380D01*
X40714285Y-103623571D02*
X41285714Y-103623571D01*
X41285714Y-104147380D02*
X41285714Y-103147380D01*
X41666666Y-103147380D02*
X41904761Y-104147380D01*
X42095238Y-103433095D01*
X42285714Y-104147380D01*
X42523809Y-103147380D01*
X44047619Y-104099761D02*
X43952380Y-104147380D01*
X43761904Y-104147380D01*
X43666666Y-104099761D01*
X43619047Y-104004523D01*
X43619047Y-103623571D01*
X43666666Y-103528333D01*
X43761904Y-103480714D01*
X43952380Y-103480714D01*
X44047619Y-103528333D01*
X44095238Y-103623571D01*
X44095238Y-103718809D01*
X43619047Y-103814047D01*
X44523809Y-104147380D02*
X44523809Y-103480714D01*
X44523809Y-103575952D02*
X44571428Y-103528333D01*
X44666666Y-103480714D01*
X44809523Y-103480714D01*
X44904761Y-103528333D01*
X44952380Y-103623571D01*
X44952380Y-104147380D01*
X44952380Y-103623571D02*
X45000000Y-103528333D01*
X45095238Y-103480714D01*
X45238095Y-103480714D01*
X45333333Y-103528333D01*
X45380952Y-103623571D01*
X45380952Y-104147380D01*
X46285714Y-103480714D02*
X46285714Y-104147380D01*
X45857142Y-103480714D02*
X45857142Y-104004523D01*
X45904761Y-104099761D01*
X46000000Y-104147380D01*
X46142857Y-104147380D01*
X46238095Y-104099761D01*
X46285714Y-104052142D01*
X39714285Y-106138333D02*
X39666666Y-106090714D01*
X39571428Y-105947857D01*
X39523809Y-105852619D01*
X39476190Y-105709761D01*
X39428571Y-105471666D01*
X39428571Y-105281190D01*
X39476190Y-105043095D01*
X39523809Y-104900238D01*
X39571428Y-104805000D01*
X39666666Y-104662142D01*
X39714285Y-104614523D01*
X40571428Y-104757380D02*
X40095238Y-104757380D01*
X40047619Y-105233571D01*
X40095238Y-105185952D01*
X40190476Y-105138333D01*
X40428571Y-105138333D01*
X40523809Y-105185952D01*
X40571428Y-105233571D01*
X40619047Y-105328809D01*
X40619047Y-105566904D01*
X40571428Y-105662142D01*
X40523809Y-105709761D01*
X40428571Y-105757380D01*
X40190476Y-105757380D01*
X40095238Y-105709761D01*
X40047619Y-105662142D01*
X41238095Y-104757380D02*
X41333333Y-104757380D01*
X41428571Y-104805000D01*
X41476190Y-104852619D01*
X41523809Y-104947857D01*
X41571428Y-105138333D01*
X41571428Y-105376428D01*
X41523809Y-105566904D01*
X41476190Y-105662142D01*
X41428571Y-105709761D01*
X41333333Y-105757380D01*
X41238095Y-105757380D01*
X41142857Y-105709761D01*
X41095238Y-105662142D01*
X41047619Y-105566904D01*
X41000000Y-105376428D01*
X41000000Y-105138333D01*
X41047619Y-104947857D01*
X41095238Y-104852619D01*
X41142857Y-104805000D01*
X41238095Y-104757380D01*
X42000000Y-105757380D02*
X42000000Y-104757380D01*
X42095238Y-105376428D02*
X42380952Y-105757380D01*
X42380952Y-105090714D02*
X42000000Y-105471666D01*
X43571428Y-105757380D02*
X43571428Y-104757380D01*
X44142857Y-105757380D01*
X44142857Y-104757380D01*
X44476190Y-104757380D02*
X45047619Y-104757380D01*
X44761904Y-105757380D02*
X44761904Y-104757380D01*
X45952380Y-105662142D02*
X45904761Y-105709761D01*
X45761904Y-105757380D01*
X45666666Y-105757380D01*
X45523809Y-105709761D01*
X45428571Y-105614523D01*
X45380952Y-105519285D01*
X45333333Y-105328809D01*
X45333333Y-105185952D01*
X45380952Y-104995476D01*
X45428571Y-104900238D01*
X45523809Y-104805000D01*
X45666666Y-104757380D01*
X45761904Y-104757380D01*
X45904761Y-104805000D01*
X45952380Y-104852619D01*
X46285714Y-106138333D02*
X46333333Y-106090714D01*
X46428571Y-105947857D01*
X46476190Y-105852619D01*
X46523809Y-105709761D01*
X46571428Y-105471666D01*
X46571428Y-105281190D01*
X46523809Y-105043095D01*
X46476190Y-104900238D01*
X46428571Y-104805000D01*
X46333333Y-104662142D01*
X46285714Y-104614523D01*
X53142857Y-104952380D02*
X53142857Y-103952380D01*
X53380952Y-103952380D01*
X53523809Y-104000000D01*
X53619047Y-104095238D01*
X53666666Y-104190476D01*
X53714285Y-104380952D01*
X53714285Y-104523809D01*
X53666666Y-104714285D01*
X53619047Y-104809523D01*
X53523809Y-104904761D01*
X53380952Y-104952380D01*
X53142857Y-104952380D01*
X54142857Y-104952380D02*
X54142857Y-103952380D01*
X54142857Y-104428571D02*
X54714285Y-104428571D01*
X54714285Y-104952380D02*
X54714285Y-103952380D01*
X55095238Y-103952380D02*
X55333333Y-104952380D01*
X55523809Y-104238095D01*
X55714285Y-104952380D01*
X55952380Y-103952380D01*
X62333333Y-103952380D02*
X62523809Y-103952380D01*
X62619047Y-104000000D01*
X62714285Y-104095238D01*
X62761904Y-104285714D01*
X62761904Y-104619047D01*
X62714285Y-104809523D01*
X62619047Y-104904761D01*
X62523809Y-104952380D01*
X62333333Y-104952380D01*
X62238095Y-104904761D01*
X62142857Y-104809523D01*
X62095238Y-104619047D01*
X62095238Y-104285714D01*
X62142857Y-104095238D01*
X62238095Y-104000000D01*
X62333333Y-103952380D01*
X63190476Y-104285714D02*
X63190476Y-104952380D01*
X63190476Y-104380952D02*
X63238095Y-104333333D01*
X63333333Y-104285714D01*
X63476190Y-104285714D01*
X63571428Y-104333333D01*
X63619047Y-104428571D01*
X63619047Y-104952380D01*
X64809523Y-103904761D02*
X63952380Y-105190476D01*
X65333333Y-103952380D02*
X65523809Y-103952380D01*
X65619047Y-104000000D01*
X65714285Y-104095238D01*
X65761904Y-104285714D01*
X65761904Y-104619047D01*
X65714285Y-104809523D01*
X65619047Y-104904761D01*
X65523809Y-104952380D01*
X65333333Y-104952380D01*
X65238095Y-104904761D01*
X65142857Y-104809523D01*
X65095238Y-104619047D01*
X65095238Y-104285714D01*
X65142857Y-104095238D01*
X65238095Y-104000000D01*
X65333333Y-103952380D01*
X66047619Y-104285714D02*
X66428571Y-104285714D01*
X66190476Y-104952380D02*
X66190476Y-104095238D01*
X66238095Y-104000000D01*
X66333333Y-103952380D01*
X66428571Y-103952380D01*
X66619047Y-104285714D02*
X67000000Y-104285714D01*
X66761904Y-104952380D02*
X66761904Y-104095238D01*
X66809523Y-104000000D01*
X66904761Y-103952380D01*
X67000000Y-103952380D01*
X72571428Y-104147380D02*
X72571428Y-103147380D01*
X72809523Y-103147380D01*
X72952380Y-103195000D01*
X73047619Y-103290238D01*
X73095238Y-103385476D01*
X73142857Y-103575952D01*
X73142857Y-103718809D01*
X73095238Y-103909285D01*
X73047619Y-104004523D01*
X72952380Y-104099761D01*
X72809523Y-104147380D01*
X72571428Y-104147380D01*
X74000000Y-103480714D02*
X74000000Y-104147380D01*
X73571428Y-103480714D02*
X73571428Y-104004523D01*
X73619047Y-104099761D01*
X73714285Y-104147380D01*
X73857142Y-104147380D01*
X73952380Y-104099761D01*
X74000000Y-104052142D01*
X74904761Y-104147380D02*
X74904761Y-103623571D01*
X74857142Y-103528333D01*
X74761904Y-103480714D01*
X74571428Y-103480714D01*
X74476190Y-103528333D01*
X74904761Y-104099761D02*
X74809523Y-104147380D01*
X74571428Y-104147380D01*
X74476190Y-104099761D01*
X74428571Y-104004523D01*
X74428571Y-103909285D01*
X74476190Y-103814047D01*
X74571428Y-103766428D01*
X74809523Y-103766428D01*
X74904761Y-103718809D01*
X75523809Y-104147380D02*
X75428571Y-104099761D01*
X75380952Y-104004523D01*
X75380952Y-103147380D01*
X71190476Y-105709761D02*
X71285714Y-105757380D01*
X71476190Y-105757380D01*
X71571428Y-105709761D01*
X71619047Y-105614523D01*
X71619047Y-105566904D01*
X71571428Y-105471666D01*
X71476190Y-105424047D01*
X71333333Y-105424047D01*
X71238095Y-105376428D01*
X71190476Y-105281190D01*
X71190476Y-105233571D01*
X71238095Y-105138333D01*
X71333333Y-105090714D01*
X71476190Y-105090714D01*
X71571428Y-105138333D01*
X72428571Y-105709761D02*
X72333333Y-105757380D01*
X72142857Y-105757380D01*
X72047619Y-105709761D01*
X72000000Y-105614523D01*
X72000000Y-105233571D01*
X72047619Y-105138333D01*
X72142857Y-105090714D01*
X72333333Y-105090714D01*
X72428571Y-105138333D01*
X72476190Y-105233571D01*
X72476190Y-105328809D01*
X72000000Y-105424047D01*
X72761904Y-105090714D02*
X73142857Y-105090714D01*
X72904761Y-104757380D02*
X72904761Y-105614523D01*
X72952380Y-105709761D01*
X73047619Y-105757380D01*
X73142857Y-105757380D01*
X73476190Y-105090714D02*
X73476190Y-106090714D01*
X73476190Y-105138333D02*
X73571428Y-105090714D01*
X73761904Y-105090714D01*
X73857142Y-105138333D01*
X73904761Y-105185952D01*
X73952380Y-105281190D01*
X73952380Y-105566904D01*
X73904761Y-105662142D01*
X73857142Y-105709761D01*
X73761904Y-105757380D01*
X73571428Y-105757380D01*
X73476190Y-105709761D01*
X74523809Y-105757380D02*
X74428571Y-105709761D01*
X74380952Y-105662142D01*
X74333333Y-105566904D01*
X74333333Y-105281190D01*
X74380952Y-105185952D01*
X74428571Y-105138333D01*
X74523809Y-105090714D01*
X74666666Y-105090714D01*
X74761904Y-105138333D01*
X74809523Y-105185952D01*
X74857142Y-105281190D01*
X74857142Y-105566904D01*
X74809523Y-105662142D01*
X74761904Y-105709761D01*
X74666666Y-105757380D01*
X74523809Y-105757380D01*
X75285714Y-105757380D02*
X75285714Y-105090714D01*
X75285714Y-104757380D02*
X75238095Y-104805000D01*
X75285714Y-104852619D01*
X75333333Y-104805000D01*
X75285714Y-104757380D01*
X75285714Y-104852619D01*
X75761904Y-105090714D02*
X75761904Y-105757380D01*
X75761904Y-105185952D02*
X75809523Y-105138333D01*
X75904761Y-105090714D01*
X76047619Y-105090714D01*
X76142857Y-105138333D01*
X76190476Y-105233571D01*
X76190476Y-105757380D01*
X76523809Y-105090714D02*
X76904761Y-105090714D01*
X76666666Y-104757380D02*
X76666666Y-105614523D01*
X76714285Y-105709761D01*
X76809523Y-105757380D01*
X76904761Y-105757380D01*
X80857142Y-104147380D02*
X80857142Y-103147380D01*
X80857142Y-103623571D02*
X81428571Y-103623571D01*
X81428571Y-104147380D02*
X81428571Y-103147380D01*
X82285714Y-104099761D02*
X82190476Y-104147380D01*
X82000000Y-104147380D01*
X81904761Y-104099761D01*
X81857142Y-104004523D01*
X81857142Y-103623571D01*
X81904761Y-103528333D01*
X82000000Y-103480714D01*
X82190476Y-103480714D01*
X82285714Y-103528333D01*
X82333333Y-103623571D01*
X82333333Y-103718809D01*
X81857142Y-103814047D01*
X83190476Y-104147380D02*
X83190476Y-103623571D01*
X83142857Y-103528333D01*
X83047619Y-103480714D01*
X82857142Y-103480714D01*
X82761904Y-103528333D01*
X83190476Y-104099761D02*
X83095238Y-104147380D01*
X82857142Y-104147380D01*
X82761904Y-104099761D01*
X82714285Y-104004523D01*
X82714285Y-103909285D01*
X82761904Y-103814047D01*
X82857142Y-103766428D01*
X83095238Y-103766428D01*
X83190476Y-103718809D01*
X83523809Y-103480714D02*
X83904761Y-103480714D01*
X83666666Y-103147380D02*
X83666666Y-104004523D01*
X83714285Y-104099761D01*
X83809523Y-104147380D01*
X83904761Y-104147380D01*
X84952380Y-103099761D02*
X84095238Y-104385476D01*
X85857142Y-104052142D02*
X85809523Y-104099761D01*
X85666666Y-104147380D01*
X85571428Y-104147380D01*
X85428571Y-104099761D01*
X85333333Y-104004523D01*
X85285714Y-103909285D01*
X85238095Y-103718809D01*
X85238095Y-103575952D01*
X85285714Y-103385476D01*
X85333333Y-103290238D01*
X85428571Y-103195000D01*
X85571428Y-103147380D01*
X85666666Y-103147380D01*
X85809523Y-103195000D01*
X85857142Y-103242619D01*
X86428571Y-104147380D02*
X86333333Y-104099761D01*
X86285714Y-104052142D01*
X86238095Y-103956904D01*
X86238095Y-103671190D01*
X86285714Y-103575952D01*
X86333333Y-103528333D01*
X86428571Y-103480714D01*
X86571428Y-103480714D01*
X86666666Y-103528333D01*
X86714285Y-103575952D01*
X86761904Y-103671190D01*
X86761904Y-103956904D01*
X86714285Y-104052142D01*
X86666666Y-104099761D01*
X86571428Y-104147380D01*
X86428571Y-104147380D01*
X87333333Y-104147380D02*
X87238095Y-104099761D01*
X87190476Y-104052142D01*
X87142857Y-103956904D01*
X87142857Y-103671190D01*
X87190476Y-103575952D01*
X87238095Y-103528333D01*
X87333333Y-103480714D01*
X87476190Y-103480714D01*
X87571428Y-103528333D01*
X87619047Y-103575952D01*
X87666666Y-103671190D01*
X87666666Y-103956904D01*
X87619047Y-104052142D01*
X87571428Y-104099761D01*
X87476190Y-104147380D01*
X87333333Y-104147380D01*
X88238095Y-104147380D02*
X88142857Y-104099761D01*
X88095238Y-104004523D01*
X88095238Y-103147380D01*
X82738095Y-105757380D02*
X82738095Y-105090714D01*
X82738095Y-105185952D02*
X82785714Y-105138333D01*
X82880952Y-105090714D01*
X83023809Y-105090714D01*
X83119047Y-105138333D01*
X83166666Y-105233571D01*
X83166666Y-105757380D01*
X83166666Y-105233571D02*
X83214285Y-105138333D01*
X83309523Y-105090714D01*
X83452380Y-105090714D01*
X83547619Y-105138333D01*
X83595238Y-105233571D01*
X83595238Y-105757380D01*
X84214285Y-105757380D02*
X84119047Y-105709761D01*
X84071428Y-105662142D01*
X84023809Y-105566904D01*
X84023809Y-105281190D01*
X84071428Y-105185952D01*
X84119047Y-105138333D01*
X84214285Y-105090714D01*
X84357142Y-105090714D01*
X84452380Y-105138333D01*
X84500000Y-105185952D01*
X84547619Y-105281190D01*
X84547619Y-105566904D01*
X84500000Y-105662142D01*
X84452380Y-105709761D01*
X84357142Y-105757380D01*
X84214285Y-105757380D01*
X85404761Y-105757380D02*
X85404761Y-104757380D01*
X85404761Y-105709761D02*
X85309523Y-105757380D01*
X85119047Y-105757380D01*
X85023809Y-105709761D01*
X84976190Y-105662142D01*
X84928571Y-105566904D01*
X84928571Y-105281190D01*
X84976190Y-105185952D01*
X85023809Y-105138333D01*
X85119047Y-105090714D01*
X85309523Y-105090714D01*
X85404761Y-105138333D01*
X86261904Y-105709761D02*
X86166666Y-105757380D01*
X85976190Y-105757380D01*
X85880952Y-105709761D01*
X85833333Y-105614523D01*
X85833333Y-105233571D01*
X85880952Y-105138333D01*
X85976190Y-105090714D01*
X86166666Y-105090714D01*
X86261904Y-105138333D01*
X86309523Y-105233571D01*
X86309523Y-105328809D01*
X85833333Y-105424047D01*
X92785714Y-104147380D02*
X92785714Y-103147380D01*
X93357142Y-104147380D01*
X93357142Y-103147380D01*
X93833333Y-104147380D02*
X93833333Y-103480714D01*
X93833333Y-103147380D02*
X93785714Y-103195000D01*
X93833333Y-103242619D01*
X93880952Y-103195000D01*
X93833333Y-103147380D01*
X93833333Y-103242619D01*
X94738095Y-103480714D02*
X94738095Y-104290238D01*
X94690476Y-104385476D01*
X94642857Y-104433095D01*
X94547619Y-104480714D01*
X94404761Y-104480714D01*
X94309523Y-104433095D01*
X94738095Y-104099761D02*
X94642857Y-104147380D01*
X94452380Y-104147380D01*
X94357142Y-104099761D01*
X94309523Y-104052142D01*
X94261904Y-103956904D01*
X94261904Y-103671190D01*
X94309523Y-103575952D01*
X94357142Y-103528333D01*
X94452380Y-103480714D01*
X94642857Y-103480714D01*
X94738095Y-103528333D01*
X95214285Y-104147380D02*
X95214285Y-103147380D01*
X95642857Y-104147380D02*
X95642857Y-103623571D01*
X95595238Y-103528333D01*
X95500000Y-103480714D01*
X95357142Y-103480714D01*
X95261904Y-103528333D01*
X95214285Y-103575952D01*
X95976190Y-103480714D02*
X96357142Y-103480714D01*
X96119047Y-103147380D02*
X96119047Y-104004523D01*
X96166666Y-104099761D01*
X96261904Y-104147380D01*
X96357142Y-104147380D01*
X92738095Y-105757380D02*
X92738095Y-105090714D01*
X92738095Y-105185952D02*
X92785714Y-105138333D01*
X92880952Y-105090714D01*
X93023809Y-105090714D01*
X93119047Y-105138333D01*
X93166666Y-105233571D01*
X93166666Y-105757380D01*
X93166666Y-105233571D02*
X93214285Y-105138333D01*
X93309523Y-105090714D01*
X93452380Y-105090714D01*
X93547619Y-105138333D01*
X93595238Y-105233571D01*
X93595238Y-105757380D01*
X94214285Y-105757380D02*
X94119047Y-105709761D01*
X94071428Y-105662142D01*
X94023809Y-105566904D01*
X94023809Y-105281190D01*
X94071428Y-105185952D01*
X94119047Y-105138333D01*
X94214285Y-105090714D01*
X94357142Y-105090714D01*
X94452380Y-105138333D01*
X94500000Y-105185952D01*
X94547619Y-105281190D01*
X94547619Y-105566904D01*
X94500000Y-105662142D01*
X94452380Y-105709761D01*
X94357142Y-105757380D01*
X94214285Y-105757380D01*
X95404761Y-105757380D02*
X95404761Y-104757380D01*
X95404761Y-105709761D02*
X95309523Y-105757380D01*
X95119047Y-105757380D01*
X95023809Y-105709761D01*
X94976190Y-105662142D01*
X94928571Y-105566904D01*
X94928571Y-105281190D01*
X94976190Y-105185952D01*
X95023809Y-105138333D01*
X95119047Y-105090714D01*
X95309523Y-105090714D01*
X95404761Y-105138333D01*
X96261904Y-105709761D02*
X96166666Y-105757380D01*
X95976190Y-105757380D01*
X95880952Y-105709761D01*
X95833333Y-105614523D01*
X95833333Y-105233571D01*
X95880952Y-105138333D01*
X95976190Y-105090714D01*
X96166666Y-105090714D01*
X96261904Y-105138333D01*
X96309523Y-105233571D01*
X96309523Y-105328809D01*
X95833333Y-105424047D01*
X103833333Y-104147380D02*
X103357142Y-104147380D01*
X103357142Y-103147380D01*
X104309523Y-104147380D02*
X104214285Y-104099761D01*
X104166666Y-104052142D01*
X104119047Y-103956904D01*
X104119047Y-103671190D01*
X104166666Y-103575952D01*
X104214285Y-103528333D01*
X104309523Y-103480714D01*
X104452380Y-103480714D01*
X104547619Y-103528333D01*
X104595238Y-103575952D01*
X104642857Y-103671190D01*
X104642857Y-103956904D01*
X104595238Y-104052142D01*
X104547619Y-104099761D01*
X104452380Y-104147380D01*
X104309523Y-104147380D01*
X104976190Y-103480714D02*
X105166666Y-104147380D01*
X105357142Y-103671190D01*
X105547619Y-104147380D01*
X105738095Y-103480714D01*
X102738095Y-105090714D02*
X103119047Y-105090714D01*
X102880952Y-104757380D02*
X102880952Y-105614523D01*
X102928571Y-105709761D01*
X103023809Y-105757380D01*
X103119047Y-105757380D01*
X103880952Y-105757380D02*
X103880952Y-105233571D01*
X103833333Y-105138333D01*
X103738095Y-105090714D01*
X103547619Y-105090714D01*
X103452380Y-105138333D01*
X103880952Y-105709761D02*
X103785714Y-105757380D01*
X103547619Y-105757380D01*
X103452380Y-105709761D01*
X103404761Y-105614523D01*
X103404761Y-105519285D01*
X103452380Y-105424047D01*
X103547619Y-105376428D01*
X103785714Y-105376428D01*
X103880952Y-105328809D01*
X104357142Y-105757380D02*
X104357142Y-105090714D01*
X104357142Y-105281190D02*
X104404761Y-105185952D01*
X104452380Y-105138333D01*
X104547619Y-105090714D01*
X104642857Y-105090714D01*
X104976190Y-105757380D02*
X104976190Y-105090714D01*
X104976190Y-104757380D02*
X104928571Y-104805000D01*
X104976190Y-104852619D01*
X105023809Y-104805000D01*
X104976190Y-104757380D01*
X104976190Y-104852619D01*
X105309523Y-105090714D02*
X105690476Y-105090714D01*
X105452380Y-105757380D02*
X105452380Y-104900238D01*
X105500000Y-104805000D01*
X105595238Y-104757380D01*
X105690476Y-104757380D01*
X105880952Y-105090714D02*
X106261904Y-105090714D01*
X106023809Y-105757380D02*
X106023809Y-104900238D01*
X106071428Y-104805000D01*
X106166666Y-104757380D01*
X106261904Y-104757380D01*
%TO.C,U7*%
X78738095Y-57952380D02*
X78738095Y-58761904D01*
X78785714Y-58857142D01*
X78833333Y-58904761D01*
X78928571Y-58952380D01*
X79119047Y-58952380D01*
X79214285Y-58904761D01*
X79261904Y-58857142D01*
X79309523Y-58761904D01*
X79309523Y-57952380D01*
X79690476Y-57952380D02*
X80357142Y-57952380D01*
X79928571Y-58952380D01*
%TO.C,C3*%
X33127333Y-56573142D02*
X33079714Y-56620761D01*
X32936857Y-56668380D01*
X32841619Y-56668380D01*
X32698761Y-56620761D01*
X32603523Y-56525523D01*
X32555904Y-56430285D01*
X32508285Y-56239809D01*
X32508285Y-56096952D01*
X32555904Y-55906476D01*
X32603523Y-55811238D01*
X32698761Y-55716000D01*
X32841619Y-55668380D01*
X32936857Y-55668380D01*
X33079714Y-55716000D01*
X33127333Y-55763619D01*
X33460666Y-55668380D02*
X34079714Y-55668380D01*
X33746380Y-56049333D01*
X33889238Y-56049333D01*
X33984476Y-56096952D01*
X34032095Y-56144571D01*
X34079714Y-56239809D01*
X34079714Y-56477904D01*
X34032095Y-56573142D01*
X33984476Y-56620761D01*
X33889238Y-56668380D01*
X33603523Y-56668380D01*
X33508285Y-56620761D01*
X33460666Y-56573142D01*
%TO.C,D1*%
X38622380Y-47474095D02*
X37622380Y-47474095D01*
X37622380Y-47236000D01*
X37670000Y-47093142D01*
X37765238Y-46997904D01*
X37860476Y-46950285D01*
X38050952Y-46902666D01*
X38193809Y-46902666D01*
X38384285Y-46950285D01*
X38479523Y-46997904D01*
X38574761Y-47093142D01*
X38622380Y-47236000D01*
X38622380Y-47474095D01*
X38622380Y-45950285D02*
X38622380Y-46521714D01*
X38622380Y-46236000D02*
X37622380Y-46236000D01*
X37765238Y-46331238D01*
X37860476Y-46426476D01*
X37908095Y-46521714D01*
X39192380Y-52077904D02*
X38192380Y-52077904D01*
X39192380Y-51506476D02*
X38620952Y-51935047D01*
X38192380Y-51506476D02*
X38763809Y-52077904D01*
%TO.C,D2*%
X38552380Y-28678095D02*
X37552380Y-28678095D01*
X37552380Y-28440000D01*
X37600000Y-28297142D01*
X37695238Y-28201904D01*
X37790476Y-28154285D01*
X37980952Y-28106666D01*
X38123809Y-28106666D01*
X38314285Y-28154285D01*
X38409523Y-28201904D01*
X38504761Y-28297142D01*
X38552380Y-28440000D01*
X38552380Y-28678095D01*
X37647619Y-27725714D02*
X37600000Y-27678095D01*
X37552380Y-27582857D01*
X37552380Y-27344761D01*
X37600000Y-27249523D01*
X37647619Y-27201904D01*
X37742857Y-27154285D01*
X37838095Y-27154285D01*
X37980952Y-27201904D01*
X38552380Y-27773333D01*
X38552380Y-27154285D01*
X42738380Y-27693904D02*
X41738380Y-27693904D01*
X42738380Y-27122476D02*
X42166952Y-27551047D01*
X41738380Y-27122476D02*
X42309809Y-27693904D01*
%TO.C,D3*%
X46242380Y-40108095D02*
X45242380Y-40108095D01*
X45242380Y-39870000D01*
X45290000Y-39727142D01*
X45385238Y-39631904D01*
X45480476Y-39584285D01*
X45670952Y-39536666D01*
X45813809Y-39536666D01*
X46004285Y-39584285D01*
X46099523Y-39631904D01*
X46194761Y-39727142D01*
X46242380Y-39870000D01*
X46242380Y-40108095D01*
X45242380Y-39203333D02*
X45242380Y-38584285D01*
X45623333Y-38917619D01*
X45623333Y-38774761D01*
X45670952Y-38679523D01*
X45718571Y-38631904D01*
X45813809Y-38584285D01*
X46051904Y-38584285D01*
X46147142Y-38631904D01*
X46194761Y-38679523D01*
X46242380Y-38774761D01*
X46242380Y-39060476D01*
X46194761Y-39155714D01*
X46147142Y-39203333D01*
X46812380Y-44711904D02*
X45812380Y-44711904D01*
X46812380Y-44140476D02*
X46240952Y-44569047D01*
X45812380Y-44140476D02*
X46383809Y-44711904D01*
%TO.C,J1*%
X37462380Y-32833333D02*
X38176666Y-32833333D01*
X38319523Y-32880952D01*
X38414761Y-32976190D01*
X38462380Y-33119047D01*
X38462380Y-33214285D01*
X38462380Y-31833333D02*
X38462380Y-32404761D01*
X38462380Y-32119047D02*
X37462380Y-32119047D01*
X37605238Y-32214285D01*
X37700476Y-32309523D01*
X37748095Y-32404761D01*
%TO.C,J2*%
X37462380Y-42833333D02*
X38176666Y-42833333D01*
X38319523Y-42880952D01*
X38414761Y-42976190D01*
X38462380Y-43119047D01*
X38462380Y-43214285D01*
X37557619Y-42404761D02*
X37510000Y-42357142D01*
X37462380Y-42261904D01*
X37462380Y-42023809D01*
X37510000Y-41928571D01*
X37557619Y-41880952D01*
X37652857Y-41833333D01*
X37748095Y-41833333D01*
X37890952Y-41880952D01*
X38462380Y-42452380D01*
X38462380Y-41833333D01*
%TO.C,U5*%
X69088095Y-37342380D02*
X69088095Y-38151904D01*
X69135714Y-38247142D01*
X69183333Y-38294761D01*
X69278571Y-38342380D01*
X69469047Y-38342380D01*
X69564285Y-38294761D01*
X69611904Y-38247142D01*
X69659523Y-38151904D01*
X69659523Y-37342380D01*
X70611904Y-37342380D02*
X70135714Y-37342380D01*
X70088095Y-37818571D01*
X70135714Y-37770952D01*
X70230952Y-37723333D01*
X70469047Y-37723333D01*
X70564285Y-37770952D01*
X70611904Y-37818571D01*
X70659523Y-37913809D01*
X70659523Y-38151904D01*
X70611904Y-38247142D01*
X70564285Y-38294761D01*
X70469047Y-38342380D01*
X70230952Y-38342380D01*
X70135714Y-38294761D01*
X70088095Y-38247142D01*
%TO.C,R8*%
X54442380Y-32170666D02*
X53966190Y-32504000D01*
X54442380Y-32742095D02*
X53442380Y-32742095D01*
X53442380Y-32361142D01*
X53490000Y-32265904D01*
X53537619Y-32218285D01*
X53632857Y-32170666D01*
X53775714Y-32170666D01*
X53870952Y-32218285D01*
X53918571Y-32265904D01*
X53966190Y-32361142D01*
X53966190Y-32742095D01*
X53870952Y-31599238D02*
X53823333Y-31694476D01*
X53775714Y-31742095D01*
X53680476Y-31789714D01*
X53632857Y-31789714D01*
X53537619Y-31742095D01*
X53490000Y-31694476D01*
X53442380Y-31599238D01*
X53442380Y-31408761D01*
X53490000Y-31313523D01*
X53537619Y-31265904D01*
X53632857Y-31218285D01*
X53680476Y-31218285D01*
X53775714Y-31265904D01*
X53823333Y-31313523D01*
X53870952Y-31408761D01*
X53870952Y-31599238D01*
X53918571Y-31694476D01*
X53966190Y-31742095D01*
X54061428Y-31789714D01*
X54251904Y-31789714D01*
X54347142Y-31742095D01*
X54394761Y-31694476D01*
X54442380Y-31599238D01*
X54442380Y-31408761D01*
X54394761Y-31313523D01*
X54347142Y-31265904D01*
X54251904Y-31218285D01*
X54061428Y-31218285D01*
X53966190Y-31265904D01*
X53918571Y-31313523D01*
X53870952Y-31408761D01*
%TO.C,D4*%
X47442380Y-28678095D02*
X46442380Y-28678095D01*
X46442380Y-28440000D01*
X46490000Y-28297142D01*
X46585238Y-28201904D01*
X46680476Y-28154285D01*
X46870952Y-28106666D01*
X47013809Y-28106666D01*
X47204285Y-28154285D01*
X47299523Y-28201904D01*
X47394761Y-28297142D01*
X47442380Y-28440000D01*
X47442380Y-28678095D01*
X46775714Y-27249523D02*
X47442380Y-27249523D01*
X46394761Y-27487619D02*
X47109047Y-27725714D01*
X47109047Y-27106666D01*
X43002380Y-37853904D02*
X42002380Y-37853904D01*
X43002380Y-37282476D02*
X42430952Y-37711047D01*
X42002380Y-37282476D02*
X42573809Y-37853904D01*
%TO.C,C1*%
X67333333Y-40357142D02*
X67285714Y-40404761D01*
X67142857Y-40452380D01*
X67047619Y-40452380D01*
X66904761Y-40404761D01*
X66809523Y-40309523D01*
X66761904Y-40214285D01*
X66714285Y-40023809D01*
X66714285Y-39880952D01*
X66761904Y-39690476D01*
X66809523Y-39595238D01*
X66904761Y-39500000D01*
X67047619Y-39452380D01*
X67142857Y-39452380D01*
X67285714Y-39500000D01*
X67333333Y-39547619D01*
X68285714Y-40452380D02*
X67714285Y-40452380D01*
X68000000Y-40452380D02*
X68000000Y-39452380D01*
X67904761Y-39595238D01*
X67809523Y-39690476D01*
X67714285Y-39738095D01*
%TO.C,C2*%
X70833333Y-40357142D02*
X70785714Y-40404761D01*
X70642857Y-40452380D01*
X70547619Y-40452380D01*
X70404761Y-40404761D01*
X70309523Y-40309523D01*
X70261904Y-40214285D01*
X70214285Y-40023809D01*
X70214285Y-39880952D01*
X70261904Y-39690476D01*
X70309523Y-39595238D01*
X70404761Y-39500000D01*
X70547619Y-39452380D01*
X70642857Y-39452380D01*
X70785714Y-39500000D01*
X70833333Y-39547619D01*
X71214285Y-39547619D02*
X71261904Y-39500000D01*
X71357142Y-39452380D01*
X71595238Y-39452380D01*
X71690476Y-39500000D01*
X71738095Y-39547619D01*
X71785714Y-39642857D01*
X71785714Y-39738095D01*
X71738095Y-39880952D01*
X71166666Y-40452380D01*
X71785714Y-40452380D01*
%TO.C,J3*%
X99237380Y-49348333D02*
X99951666Y-49348333D01*
X100094523Y-49395952D01*
X100189761Y-49491190D01*
X100237380Y-49634047D01*
X100237380Y-49729285D01*
X99237380Y-48967380D02*
X99237380Y-48348333D01*
X99618333Y-48681666D01*
X99618333Y-48538809D01*
X99665952Y-48443571D01*
X99713571Y-48395952D01*
X99808809Y-48348333D01*
X100046904Y-48348333D01*
X100142142Y-48395952D01*
X100189761Y-48443571D01*
X100237380Y-48538809D01*
X100237380Y-48824523D01*
X100189761Y-48919761D01*
X100142142Y-48967380D01*
%TO.C,J4*%
X99237380Y-59348333D02*
X99951666Y-59348333D01*
X100094523Y-59395952D01*
X100189761Y-59491190D01*
X100237380Y-59634047D01*
X100237380Y-59729285D01*
X99570714Y-58443571D02*
X100237380Y-58443571D01*
X99189761Y-58681666D02*
X99904047Y-58919761D01*
X99904047Y-58300714D01*
%TO.C,J5*%
X99237380Y-39348333D02*
X99951666Y-39348333D01*
X100094523Y-39395952D01*
X100189761Y-39491190D01*
X100237380Y-39634047D01*
X100237380Y-39729285D01*
X99237380Y-38395952D02*
X99237380Y-38872142D01*
X99713571Y-38919761D01*
X99665952Y-38872142D01*
X99618333Y-38776904D01*
X99618333Y-38538809D01*
X99665952Y-38443571D01*
X99713571Y-38395952D01*
X99808809Y-38348333D01*
X100046904Y-38348333D01*
X100142142Y-38395952D01*
X100189761Y-38443571D01*
X100237380Y-38538809D01*
X100237380Y-38776904D01*
X100189761Y-38872142D01*
X100142142Y-38919761D01*
%TO.C,J6*%
X99237380Y-29348333D02*
X99951666Y-29348333D01*
X100094523Y-29395952D01*
X100189761Y-29491190D01*
X100237380Y-29634047D01*
X100237380Y-29729285D01*
X99237380Y-28443571D02*
X99237380Y-28634047D01*
X99285000Y-28729285D01*
X99332619Y-28776904D01*
X99475476Y-28872142D01*
X99665952Y-28919761D01*
X100046904Y-28919761D01*
X100142142Y-28872142D01*
X100189761Y-28824523D01*
X100237380Y-28729285D01*
X100237380Y-28538809D01*
X100189761Y-28443571D01*
X100142142Y-28395952D01*
X100046904Y-28348333D01*
X99808809Y-28348333D01*
X99713571Y-28395952D01*
X99665952Y-28443571D01*
X99618333Y-28538809D01*
X99618333Y-28729285D01*
X99665952Y-28824523D01*
X99713571Y-28872142D01*
X99808809Y-28919761D01*
%TO.C,J7*%
X26057266Y-90989780D02*
X26057266Y-91704066D01*
X26009647Y-91846923D01*
X25914409Y-91942161D01*
X25771552Y-91989780D01*
X25676314Y-91989780D01*
X26438219Y-90989780D02*
X27104885Y-90989780D01*
X26676314Y-91989780D01*
%TO.C,J8*%
X49120466Y-90938980D02*
X49120466Y-91653266D01*
X49072847Y-91796123D01*
X48977609Y-91891361D01*
X48834752Y-91938980D01*
X48739514Y-91938980D01*
X49739514Y-91367552D02*
X49644276Y-91319933D01*
X49596657Y-91272314D01*
X49549038Y-91177076D01*
X49549038Y-91129457D01*
X49596657Y-91034219D01*
X49644276Y-90986600D01*
X49739514Y-90938980D01*
X49929990Y-90938980D01*
X50025228Y-90986600D01*
X50072847Y-91034219D01*
X50120466Y-91129457D01*
X50120466Y-91177076D01*
X50072847Y-91272314D01*
X50025228Y-91319933D01*
X49929990Y-91367552D01*
X49739514Y-91367552D01*
X49644276Y-91415171D01*
X49596657Y-91462790D01*
X49549038Y-91558028D01*
X49549038Y-91748504D01*
X49596657Y-91843742D01*
X49644276Y-91891361D01*
X49739514Y-91938980D01*
X49929990Y-91938980D01*
X50025228Y-91891361D01*
X50072847Y-91843742D01*
X50120466Y-91748504D01*
X50120466Y-91558028D01*
X50072847Y-91462790D01*
X50025228Y-91415171D01*
X49929990Y-91367552D01*
%TO.C,J9*%
X54236666Y-89077380D02*
X54236666Y-89791666D01*
X54189047Y-89934523D01*
X54093809Y-90029761D01*
X53950952Y-90077380D01*
X53855714Y-90077380D01*
X54760476Y-90077380D02*
X54950952Y-90077380D01*
X55046190Y-90029761D01*
X55093809Y-89982142D01*
X55189047Y-89839285D01*
X55236666Y-89648809D01*
X55236666Y-89267857D01*
X55189047Y-89172619D01*
X55141428Y-89125000D01*
X55046190Y-89077380D01*
X54855714Y-89077380D01*
X54760476Y-89125000D01*
X54712857Y-89172619D01*
X54665238Y-89267857D01*
X54665238Y-89505952D01*
X54712857Y-89601190D01*
X54760476Y-89648809D01*
X54855714Y-89696428D01*
X55046190Y-89696428D01*
X55141428Y-89648809D01*
X55189047Y-89601190D01*
X55236666Y-89505952D01*
%TO.C,J10*%
X63760476Y-89077380D02*
X63760476Y-89791666D01*
X63712857Y-89934523D01*
X63617619Y-90029761D01*
X63474761Y-90077380D01*
X63379523Y-90077380D01*
X64760476Y-90077380D02*
X64189047Y-90077380D01*
X64474761Y-90077380D02*
X64474761Y-89077380D01*
X64379523Y-89220238D01*
X64284285Y-89315476D01*
X64189047Y-89363095D01*
X65379523Y-89077380D02*
X65474761Y-89077380D01*
X65570000Y-89125000D01*
X65617619Y-89172619D01*
X65665238Y-89267857D01*
X65712857Y-89458333D01*
X65712857Y-89696428D01*
X65665238Y-89886904D01*
X65617619Y-89982142D01*
X65570000Y-90029761D01*
X65474761Y-90077380D01*
X65379523Y-90077380D01*
X65284285Y-90029761D01*
X65236666Y-89982142D01*
X65189047Y-89886904D01*
X65141428Y-89696428D01*
X65141428Y-89458333D01*
X65189047Y-89267857D01*
X65236666Y-89172619D01*
X65284285Y-89125000D01*
X65379523Y-89077380D01*
%TO.C,J11*%
X73760476Y-89077380D02*
X73760476Y-89791666D01*
X73712857Y-89934523D01*
X73617619Y-90029761D01*
X73474761Y-90077380D01*
X73379523Y-90077380D01*
X74760476Y-90077380D02*
X74189047Y-90077380D01*
X74474761Y-90077380D02*
X74474761Y-89077380D01*
X74379523Y-89220238D01*
X74284285Y-89315476D01*
X74189047Y-89363095D01*
X75712857Y-90077380D02*
X75141428Y-90077380D01*
X75427142Y-90077380D02*
X75427142Y-89077380D01*
X75331904Y-89220238D01*
X75236666Y-89315476D01*
X75141428Y-89363095D01*
%TO.C,J12*%
X83760476Y-89077380D02*
X83760476Y-89791666D01*
X83712857Y-89934523D01*
X83617619Y-90029761D01*
X83474761Y-90077380D01*
X83379523Y-90077380D01*
X84760476Y-90077380D02*
X84189047Y-90077380D01*
X84474761Y-90077380D02*
X84474761Y-89077380D01*
X84379523Y-89220238D01*
X84284285Y-89315476D01*
X84189047Y-89363095D01*
X85141428Y-89172619D02*
X85189047Y-89125000D01*
X85284285Y-89077380D01*
X85522380Y-89077380D01*
X85617619Y-89125000D01*
X85665238Y-89172619D01*
X85712857Y-89267857D01*
X85712857Y-89363095D01*
X85665238Y-89505952D01*
X85093809Y-90077380D01*
X85712857Y-90077380D01*
%TO.C,J13*%
X93760476Y-89077380D02*
X93760476Y-89791666D01*
X93712857Y-89934523D01*
X93617619Y-90029761D01*
X93474761Y-90077380D01*
X93379523Y-90077380D01*
X94760476Y-90077380D02*
X94189047Y-90077380D01*
X94474761Y-90077380D02*
X94474761Y-89077380D01*
X94379523Y-89220238D01*
X94284285Y-89315476D01*
X94189047Y-89363095D01*
X95093809Y-89077380D02*
X95712857Y-89077380D01*
X95379523Y-89458333D01*
X95522380Y-89458333D01*
X95617619Y-89505952D01*
X95665238Y-89553571D01*
X95712857Y-89648809D01*
X95712857Y-89886904D01*
X95665238Y-89982142D01*
X95617619Y-90029761D01*
X95522380Y-90077380D01*
X95236666Y-90077380D01*
X95141428Y-90029761D01*
X95093809Y-89982142D01*
%TO.C,J14*%
X103760476Y-89077380D02*
X103760476Y-89791666D01*
X103712857Y-89934523D01*
X103617619Y-90029761D01*
X103474761Y-90077380D01*
X103379523Y-90077380D01*
X104760476Y-90077380D02*
X104189047Y-90077380D01*
X104474761Y-90077380D02*
X104474761Y-89077380D01*
X104379523Y-89220238D01*
X104284285Y-89315476D01*
X104189047Y-89363095D01*
X105617619Y-89410714D02*
X105617619Y-90077380D01*
X105379523Y-89029761D02*
X105141428Y-89744047D01*
X105760476Y-89744047D01*
%TO.C,K1*%
X53586904Y-75087380D02*
X53586904Y-74087380D01*
X54158333Y-75087380D02*
X53729761Y-74515952D01*
X54158333Y-74087380D02*
X53586904Y-74658809D01*
X55110714Y-75087380D02*
X54539285Y-75087380D01*
X54825000Y-75087380D02*
X54825000Y-74087380D01*
X54729761Y-74230238D01*
X54634523Y-74325476D01*
X54539285Y-74373095D01*
%TO.C,K2*%
X63619904Y-75087380D02*
X63619904Y-74087380D01*
X64191333Y-75087380D02*
X63762761Y-74515952D01*
X64191333Y-74087380D02*
X63619904Y-74658809D01*
X64572285Y-74182619D02*
X64619904Y-74135000D01*
X64715142Y-74087380D01*
X64953238Y-74087380D01*
X65048476Y-74135000D01*
X65096095Y-74182619D01*
X65143714Y-74277857D01*
X65143714Y-74373095D01*
X65096095Y-74515952D01*
X64524666Y-75087380D01*
X65143714Y-75087380D01*
%TO.C,K3*%
X73652904Y-75087380D02*
X73652904Y-74087380D01*
X74224333Y-75087380D02*
X73795761Y-74515952D01*
X74224333Y-74087380D02*
X73652904Y-74658809D01*
X74557666Y-74087380D02*
X75176714Y-74087380D01*
X74843380Y-74468333D01*
X74986238Y-74468333D01*
X75081476Y-74515952D01*
X75129095Y-74563571D01*
X75176714Y-74658809D01*
X75176714Y-74896904D01*
X75129095Y-74992142D01*
X75081476Y-75039761D01*
X74986238Y-75087380D01*
X74700523Y-75087380D01*
X74605285Y-75039761D01*
X74557666Y-74992142D01*
%TO.C,K4*%
X83685904Y-75087380D02*
X83685904Y-74087380D01*
X84257333Y-75087380D02*
X83828761Y-74515952D01*
X84257333Y-74087380D02*
X83685904Y-74658809D01*
X85114476Y-74420714D02*
X85114476Y-75087380D01*
X84876380Y-74039761D02*
X84638285Y-74754047D01*
X85257333Y-74754047D01*
%TO.C,K5*%
X93718904Y-75087380D02*
X93718904Y-74087380D01*
X94290333Y-75087380D02*
X93861761Y-74515952D01*
X94290333Y-74087380D02*
X93718904Y-74658809D01*
X95195095Y-74087380D02*
X94718904Y-74087380D01*
X94671285Y-74563571D01*
X94718904Y-74515952D01*
X94814142Y-74468333D01*
X95052238Y-74468333D01*
X95147476Y-74515952D01*
X95195095Y-74563571D01*
X95242714Y-74658809D01*
X95242714Y-74896904D01*
X95195095Y-74992142D01*
X95147476Y-75039761D01*
X95052238Y-75087380D01*
X94814142Y-75087380D01*
X94718904Y-75039761D01*
X94671285Y-74992142D01*
%TO.C,K6*%
X103751904Y-75087380D02*
X103751904Y-74087380D01*
X104323333Y-75087380D02*
X103894761Y-74515952D01*
X104323333Y-74087380D02*
X103751904Y-74658809D01*
X105180476Y-74087380D02*
X104990000Y-74087380D01*
X104894761Y-74135000D01*
X104847142Y-74182619D01*
X104751904Y-74325476D01*
X104704285Y-74515952D01*
X104704285Y-74896904D01*
X104751904Y-74992142D01*
X104799523Y-75039761D01*
X104894761Y-75087380D01*
X105085238Y-75087380D01*
X105180476Y-75039761D01*
X105228095Y-74992142D01*
X105275714Y-74896904D01*
X105275714Y-74658809D01*
X105228095Y-74563571D01*
X105180476Y-74515952D01*
X105085238Y-74468333D01*
X104894761Y-74468333D01*
X104799523Y-74515952D01*
X104751904Y-74563571D01*
X104704285Y-74658809D01*
%TO.C,Q1*%
X33410119Y-72231238D02*
X33362500Y-72326476D01*
X33267261Y-72421714D01*
X33124404Y-72564571D01*
X33076785Y-72659809D01*
X33076785Y-72755047D01*
X33314880Y-72707428D02*
X33267261Y-72802666D01*
X33172023Y-72897904D01*
X32981547Y-72945523D01*
X32648214Y-72945523D01*
X32457738Y-72897904D01*
X32362500Y-72802666D01*
X32314880Y-72707428D01*
X32314880Y-72516952D01*
X32362500Y-72421714D01*
X32457738Y-72326476D01*
X32648214Y-72278857D01*
X32981547Y-72278857D01*
X33172023Y-72326476D01*
X33267261Y-72421714D01*
X33314880Y-72516952D01*
X33314880Y-72707428D01*
X33314880Y-71326476D02*
X33314880Y-71897904D01*
X33314880Y-71612190D02*
X32314880Y-71612190D01*
X32457738Y-71707428D01*
X32552976Y-71802666D01*
X32600595Y-71897904D01*
%TO.C,Q2*%
X54269761Y-68467619D02*
X54174523Y-68420000D01*
X54079285Y-68324761D01*
X53936428Y-68181904D01*
X53841190Y-68134285D01*
X53745952Y-68134285D01*
X53793571Y-68372380D02*
X53698333Y-68324761D01*
X53603095Y-68229523D01*
X53555476Y-68039047D01*
X53555476Y-67705714D01*
X53603095Y-67515238D01*
X53698333Y-67420000D01*
X53793571Y-67372380D01*
X53984047Y-67372380D01*
X54079285Y-67420000D01*
X54174523Y-67515238D01*
X54222142Y-67705714D01*
X54222142Y-68039047D01*
X54174523Y-68229523D01*
X54079285Y-68324761D01*
X53984047Y-68372380D01*
X53793571Y-68372380D01*
X54603095Y-67467619D02*
X54650714Y-67420000D01*
X54745952Y-67372380D01*
X54984047Y-67372380D01*
X55079285Y-67420000D01*
X55126904Y-67467619D01*
X55174523Y-67562857D01*
X55174523Y-67658095D01*
X55126904Y-67800952D01*
X54555476Y-68372380D01*
X55174523Y-68372380D01*
%TO.C,Q3*%
X64302761Y-68467619D02*
X64207523Y-68420000D01*
X64112285Y-68324761D01*
X63969428Y-68181904D01*
X63874190Y-68134285D01*
X63778952Y-68134285D01*
X63826571Y-68372380D02*
X63731333Y-68324761D01*
X63636095Y-68229523D01*
X63588476Y-68039047D01*
X63588476Y-67705714D01*
X63636095Y-67515238D01*
X63731333Y-67420000D01*
X63826571Y-67372380D01*
X64017047Y-67372380D01*
X64112285Y-67420000D01*
X64207523Y-67515238D01*
X64255142Y-67705714D01*
X64255142Y-68039047D01*
X64207523Y-68229523D01*
X64112285Y-68324761D01*
X64017047Y-68372380D01*
X63826571Y-68372380D01*
X64588476Y-67372380D02*
X65207523Y-67372380D01*
X64874190Y-67753333D01*
X65017047Y-67753333D01*
X65112285Y-67800952D01*
X65159904Y-67848571D01*
X65207523Y-67943809D01*
X65207523Y-68181904D01*
X65159904Y-68277142D01*
X65112285Y-68324761D01*
X65017047Y-68372380D01*
X64731333Y-68372380D01*
X64636095Y-68324761D01*
X64588476Y-68277142D01*
%TO.C,Q4*%
X74335761Y-68467619D02*
X74240523Y-68420000D01*
X74145285Y-68324761D01*
X74002428Y-68181904D01*
X73907190Y-68134285D01*
X73811952Y-68134285D01*
X73859571Y-68372380D02*
X73764333Y-68324761D01*
X73669095Y-68229523D01*
X73621476Y-68039047D01*
X73621476Y-67705714D01*
X73669095Y-67515238D01*
X73764333Y-67420000D01*
X73859571Y-67372380D01*
X74050047Y-67372380D01*
X74145285Y-67420000D01*
X74240523Y-67515238D01*
X74288142Y-67705714D01*
X74288142Y-68039047D01*
X74240523Y-68229523D01*
X74145285Y-68324761D01*
X74050047Y-68372380D01*
X73859571Y-68372380D01*
X75145285Y-67705714D02*
X75145285Y-68372380D01*
X74907190Y-67324761D02*
X74669095Y-68039047D01*
X75288142Y-68039047D01*
%TO.C,Q5*%
X84368761Y-68467619D02*
X84273523Y-68420000D01*
X84178285Y-68324761D01*
X84035428Y-68181904D01*
X83940190Y-68134285D01*
X83844952Y-68134285D01*
X83892571Y-68372380D02*
X83797333Y-68324761D01*
X83702095Y-68229523D01*
X83654476Y-68039047D01*
X83654476Y-67705714D01*
X83702095Y-67515238D01*
X83797333Y-67420000D01*
X83892571Y-67372380D01*
X84083047Y-67372380D01*
X84178285Y-67420000D01*
X84273523Y-67515238D01*
X84321142Y-67705714D01*
X84321142Y-68039047D01*
X84273523Y-68229523D01*
X84178285Y-68324761D01*
X84083047Y-68372380D01*
X83892571Y-68372380D01*
X85225904Y-67372380D02*
X84749714Y-67372380D01*
X84702095Y-67848571D01*
X84749714Y-67800952D01*
X84844952Y-67753333D01*
X85083047Y-67753333D01*
X85178285Y-67800952D01*
X85225904Y-67848571D01*
X85273523Y-67943809D01*
X85273523Y-68181904D01*
X85225904Y-68277142D01*
X85178285Y-68324761D01*
X85083047Y-68372380D01*
X84844952Y-68372380D01*
X84749714Y-68324761D01*
X84702095Y-68277142D01*
%TO.C,Q6*%
X94401761Y-68467619D02*
X94306523Y-68420000D01*
X94211285Y-68324761D01*
X94068428Y-68181904D01*
X93973190Y-68134285D01*
X93877952Y-68134285D01*
X93925571Y-68372380D02*
X93830333Y-68324761D01*
X93735095Y-68229523D01*
X93687476Y-68039047D01*
X93687476Y-67705714D01*
X93735095Y-67515238D01*
X93830333Y-67420000D01*
X93925571Y-67372380D01*
X94116047Y-67372380D01*
X94211285Y-67420000D01*
X94306523Y-67515238D01*
X94354142Y-67705714D01*
X94354142Y-68039047D01*
X94306523Y-68229523D01*
X94211285Y-68324761D01*
X94116047Y-68372380D01*
X93925571Y-68372380D01*
X95211285Y-67372380D02*
X95020809Y-67372380D01*
X94925571Y-67420000D01*
X94877952Y-67467619D01*
X94782714Y-67610476D01*
X94735095Y-67800952D01*
X94735095Y-68181904D01*
X94782714Y-68277142D01*
X94830333Y-68324761D01*
X94925571Y-68372380D01*
X95116047Y-68372380D01*
X95211285Y-68324761D01*
X95258904Y-68277142D01*
X95306523Y-68181904D01*
X95306523Y-67943809D01*
X95258904Y-67848571D01*
X95211285Y-67800952D01*
X95116047Y-67753333D01*
X94925571Y-67753333D01*
X94830333Y-67800952D01*
X94782714Y-67848571D01*
X94735095Y-67943809D01*
%TO.C,Q7*%
X104434761Y-68467619D02*
X104339523Y-68420000D01*
X104244285Y-68324761D01*
X104101428Y-68181904D01*
X104006190Y-68134285D01*
X103910952Y-68134285D01*
X103958571Y-68372380D02*
X103863333Y-68324761D01*
X103768095Y-68229523D01*
X103720476Y-68039047D01*
X103720476Y-67705714D01*
X103768095Y-67515238D01*
X103863333Y-67420000D01*
X103958571Y-67372380D01*
X104149047Y-67372380D01*
X104244285Y-67420000D01*
X104339523Y-67515238D01*
X104387142Y-67705714D01*
X104387142Y-68039047D01*
X104339523Y-68229523D01*
X104244285Y-68324761D01*
X104149047Y-68372380D01*
X103958571Y-68372380D01*
X104720476Y-67372380D02*
X105387142Y-67372380D01*
X104958571Y-68372380D01*
%TO.C,R1*%
X36774380Y-71667666D02*
X36298190Y-72001000D01*
X36774380Y-72239095D02*
X35774380Y-72239095D01*
X35774380Y-71858142D01*
X35822000Y-71762904D01*
X35869619Y-71715285D01*
X35964857Y-71667666D01*
X36107714Y-71667666D01*
X36202952Y-71715285D01*
X36250571Y-71762904D01*
X36298190Y-71858142D01*
X36298190Y-72239095D01*
X36774380Y-70715285D02*
X36774380Y-71286714D01*
X36774380Y-71001000D02*
X35774380Y-71001000D01*
X35917238Y-71096238D01*
X36012476Y-71191476D01*
X36060095Y-71286714D01*
%TO.C,R2*%
X93952380Y-64666666D02*
X93476190Y-65000000D01*
X93952380Y-65238095D02*
X92952380Y-65238095D01*
X92952380Y-64857142D01*
X93000000Y-64761904D01*
X93047619Y-64714285D01*
X93142857Y-64666666D01*
X93285714Y-64666666D01*
X93380952Y-64714285D01*
X93428571Y-64761904D01*
X93476190Y-64857142D01*
X93476190Y-65238095D01*
X93047619Y-64285714D02*
X93000000Y-64238095D01*
X92952380Y-64142857D01*
X92952380Y-63904761D01*
X93000000Y-63809523D01*
X93047619Y-63761904D01*
X93142857Y-63714285D01*
X93238095Y-63714285D01*
X93380952Y-63761904D01*
X93952380Y-64333333D01*
X93952380Y-63714285D01*
%TO.C,R3*%
X97952380Y-64666666D02*
X97476190Y-65000000D01*
X97952380Y-65238095D02*
X96952380Y-65238095D01*
X96952380Y-64857142D01*
X97000000Y-64761904D01*
X97047619Y-64714285D01*
X97142857Y-64666666D01*
X97285714Y-64666666D01*
X97380952Y-64714285D01*
X97428571Y-64761904D01*
X97476190Y-64857142D01*
X97476190Y-65238095D01*
X96952380Y-64333333D02*
X96952380Y-63714285D01*
X97333333Y-64047619D01*
X97333333Y-63904761D01*
X97380952Y-63809523D01*
X97428571Y-63761904D01*
X97523809Y-63714285D01*
X97761904Y-63714285D01*
X97857142Y-63761904D01*
X97904761Y-63809523D01*
X97952380Y-63904761D01*
X97952380Y-64190476D01*
X97904761Y-64285714D01*
X97857142Y-64333333D01*
%TO.C,R4*%
X93547380Y-22666666D02*
X93071190Y-23000000D01*
X93547380Y-23238095D02*
X92547380Y-23238095D01*
X92547380Y-22857142D01*
X92595000Y-22761904D01*
X92642619Y-22714285D01*
X92737857Y-22666666D01*
X92880714Y-22666666D01*
X92975952Y-22714285D01*
X93023571Y-22761904D01*
X93071190Y-22857142D01*
X93071190Y-23238095D01*
X92880714Y-21809523D02*
X93547380Y-21809523D01*
X92499761Y-22047619D02*
X93214047Y-22285714D01*
X93214047Y-21666666D01*
%TO.C,R5*%
X97452380Y-22666666D02*
X96976190Y-23000000D01*
X97452380Y-23238095D02*
X96452380Y-23238095D01*
X96452380Y-22857142D01*
X96500000Y-22761904D01*
X96547619Y-22714285D01*
X96642857Y-22666666D01*
X96785714Y-22666666D01*
X96880952Y-22714285D01*
X96928571Y-22761904D01*
X96976190Y-22857142D01*
X96976190Y-23238095D01*
X96452380Y-21761904D02*
X96452380Y-22238095D01*
X96928571Y-22285714D01*
X96880952Y-22238095D01*
X96833333Y-22142857D01*
X96833333Y-21904761D01*
X96880952Y-21809523D01*
X96928571Y-21761904D01*
X97023809Y-21714285D01*
X97261904Y-21714285D01*
X97357142Y-21761904D01*
X97404761Y-21809523D01*
X97452380Y-21904761D01*
X97452380Y-22142857D01*
X97404761Y-22238095D01*
X97357142Y-22285714D01*
%TO.C,R6*%
X45527880Y-71667666D02*
X45051690Y-72001000D01*
X45527880Y-72239095D02*
X44527880Y-72239095D01*
X44527880Y-71858142D01*
X44575500Y-71762904D01*
X44623119Y-71715285D01*
X44718357Y-71667666D01*
X44861214Y-71667666D01*
X44956452Y-71715285D01*
X45004071Y-71762904D01*
X45051690Y-71858142D01*
X45051690Y-72239095D01*
X44527880Y-70810523D02*
X44527880Y-71001000D01*
X44575500Y-71096238D01*
X44623119Y-71143857D01*
X44765976Y-71239095D01*
X44956452Y-71286714D01*
X45337404Y-71286714D01*
X45432642Y-71239095D01*
X45480261Y-71191476D01*
X45527880Y-71096238D01*
X45527880Y-70905761D01*
X45480261Y-70810523D01*
X45432642Y-70762904D01*
X45337404Y-70715285D01*
X45099309Y-70715285D01*
X45004071Y-70762904D01*
X44956452Y-70810523D01*
X44908833Y-70905761D01*
X44908833Y-71096238D01*
X44956452Y-71191476D01*
X45004071Y-71239095D01*
X45099309Y-71286714D01*
%TO.C,R7*%
X39908880Y-71667666D02*
X39432690Y-72001000D01*
X39908880Y-72239095D02*
X38908880Y-72239095D01*
X38908880Y-71858142D01*
X38956500Y-71762904D01*
X39004119Y-71715285D01*
X39099357Y-71667666D01*
X39242214Y-71667666D01*
X39337452Y-71715285D01*
X39385071Y-71762904D01*
X39432690Y-71858142D01*
X39432690Y-72239095D01*
X38908880Y-71334333D02*
X38908880Y-70667666D01*
X39908880Y-71096238D01*
%TO.C,RN1*%
X74252380Y-55935476D02*
X73776190Y-56268809D01*
X74252380Y-56506904D02*
X73252380Y-56506904D01*
X73252380Y-56125952D01*
X73300000Y-56030714D01*
X73347619Y-55983095D01*
X73442857Y-55935476D01*
X73585714Y-55935476D01*
X73680952Y-55983095D01*
X73728571Y-56030714D01*
X73776190Y-56125952D01*
X73776190Y-56506904D01*
X74252380Y-55506904D02*
X73252380Y-55506904D01*
X74252380Y-54935476D01*
X73252380Y-54935476D01*
X74252380Y-53935476D02*
X74252380Y-54506904D01*
X74252380Y-54221190D02*
X73252380Y-54221190D01*
X73395238Y-54316428D01*
X73490476Y-54411666D01*
X73538095Y-54506904D01*
%TO.C,U1*%
X72902380Y-52196904D02*
X73711904Y-52196904D01*
X73807142Y-52149285D01*
X73854761Y-52101666D01*
X73902380Y-52006428D01*
X73902380Y-51815952D01*
X73854761Y-51720714D01*
X73807142Y-51673095D01*
X73711904Y-51625476D01*
X72902380Y-51625476D01*
X73902380Y-50625476D02*
X73902380Y-51196904D01*
X73902380Y-50911190D02*
X72902380Y-50911190D01*
X73045238Y-51006428D01*
X73140476Y-51101666D01*
X73188095Y-51196904D01*
%TO.C,U2*%
X26238095Y-79952380D02*
X26238095Y-80761904D01*
X26285714Y-80857142D01*
X26333333Y-80904761D01*
X26428571Y-80952380D01*
X26619047Y-80952380D01*
X26714285Y-80904761D01*
X26761904Y-80857142D01*
X26809523Y-80761904D01*
X26809523Y-79952380D01*
X27238095Y-80047619D02*
X27285714Y-80000000D01*
X27380952Y-79952380D01*
X27619047Y-79952380D01*
X27714285Y-80000000D01*
X27761904Y-80047619D01*
X27809523Y-80142857D01*
X27809523Y-80238095D01*
X27761904Y-80380952D01*
X27190476Y-80952380D01*
X27809523Y-80952380D01*
%TO.C,U3*%
X47238095Y-78952380D02*
X47238095Y-79761904D01*
X47285714Y-79857142D01*
X47333333Y-79904761D01*
X47428571Y-79952380D01*
X47619047Y-79952380D01*
X47714285Y-79904761D01*
X47761904Y-79857142D01*
X47809523Y-79761904D01*
X47809523Y-78952380D01*
X48190476Y-78952380D02*
X48809523Y-78952380D01*
X48476190Y-79333333D01*
X48619047Y-79333333D01*
X48714285Y-79380952D01*
X48761904Y-79428571D01*
X48809523Y-79523809D01*
X48809523Y-79761904D01*
X48761904Y-79857142D01*
X48714285Y-79904761D01*
X48619047Y-79952380D01*
X48333333Y-79952380D01*
X48238095Y-79904761D01*
X48190476Y-79857142D01*
%TO.C,U4*%
X48557380Y-62991904D02*
X49366904Y-62991904D01*
X49462142Y-62944285D01*
X49509761Y-62896666D01*
X49557380Y-62801428D01*
X49557380Y-62610952D01*
X49509761Y-62515714D01*
X49462142Y-62468095D01*
X49366904Y-62420476D01*
X48557380Y-62420476D01*
X48890714Y-61515714D02*
X49557380Y-61515714D01*
X48509761Y-61753809D02*
X49224047Y-61991904D01*
X49224047Y-61372857D01*
%TO.C,U6*%
X78738095Y-48952380D02*
X78738095Y-49761904D01*
X78785714Y-49857142D01*
X78833333Y-49904761D01*
X78928571Y-49952380D01*
X79119047Y-49952380D01*
X79214285Y-49904761D01*
X79261904Y-49857142D01*
X79309523Y-49761904D01*
X79309523Y-48952380D01*
X80214285Y-48952380D02*
X80023809Y-48952380D01*
X79928571Y-49000000D01*
X79880952Y-49047619D01*
X79785714Y-49190476D01*
X79738095Y-49380952D01*
X79738095Y-49761904D01*
X79785714Y-49857142D01*
X79833333Y-49904761D01*
X79928571Y-49952380D01*
X80119047Y-49952380D01*
X80214285Y-49904761D01*
X80261904Y-49857142D01*
X80309523Y-49761904D01*
X80309523Y-49523809D01*
X80261904Y-49428571D01*
X80214285Y-49380952D01*
X80119047Y-49333333D01*
X79928571Y-49333333D01*
X79833333Y-49380952D01*
X79785714Y-49428571D01*
X79738095Y-49523809D01*
%TO.C,U8*%
X78738095Y-36452380D02*
X78738095Y-37261904D01*
X78785714Y-37357142D01*
X78833333Y-37404761D01*
X78928571Y-37452380D01*
X79119047Y-37452380D01*
X79214285Y-37404761D01*
X79261904Y-37357142D01*
X79309523Y-37261904D01*
X79309523Y-36452380D01*
X79928571Y-36880952D02*
X79833333Y-36833333D01*
X79785714Y-36785714D01*
X79738095Y-36690476D01*
X79738095Y-36642857D01*
X79785714Y-36547619D01*
X79833333Y-36500000D01*
X79928571Y-36452380D01*
X80119047Y-36452380D01*
X80214285Y-36500000D01*
X80261904Y-36547619D01*
X80309523Y-36642857D01*
X80309523Y-36690476D01*
X80261904Y-36785714D01*
X80214285Y-36833333D01*
X80119047Y-36880952D01*
X79928571Y-36880952D01*
X79833333Y-36928571D01*
X79785714Y-36976190D01*
X79738095Y-37071428D01*
X79738095Y-37261904D01*
X79785714Y-37357142D01*
X79833333Y-37404761D01*
X79928571Y-37452380D01*
X80119047Y-37452380D01*
X80214285Y-37404761D01*
X80261904Y-37357142D01*
X80309523Y-37261904D01*
X80309523Y-37071428D01*
X80261904Y-36976190D01*
X80214285Y-36928571D01*
X80119047Y-36880952D01*
%TO.C,U9*%
X78738095Y-27452380D02*
X78738095Y-28261904D01*
X78785714Y-28357142D01*
X78833333Y-28404761D01*
X78928571Y-28452380D01*
X79119047Y-28452380D01*
X79214285Y-28404761D01*
X79261904Y-28357142D01*
X79309523Y-28261904D01*
X79309523Y-27452380D01*
X79833333Y-28452380D02*
X80023809Y-28452380D01*
X80119047Y-28404761D01*
X80166666Y-28357142D01*
X80261904Y-28214285D01*
X80309523Y-28023809D01*
X80309523Y-27642857D01*
X80261904Y-27547619D01*
X80214285Y-27500000D01*
X80119047Y-27452380D01*
X79928571Y-27452380D01*
X79833333Y-27500000D01*
X79785714Y-27547619D01*
X79738095Y-27642857D01*
X79738095Y-27880952D01*
X79785714Y-27976190D01*
X79833333Y-28023809D01*
X79928571Y-28071428D01*
X80119047Y-28071428D01*
X80214285Y-28023809D01*
X80261904Y-27976190D01*
X80309523Y-27880952D01*
%TO.C,Y1*%
X58043809Y-39377190D02*
X58043809Y-39853380D01*
X57710476Y-38853380D02*
X58043809Y-39377190D01*
X58377142Y-38853380D01*
X59234285Y-39853380D02*
X58662857Y-39853380D01*
X58948571Y-39853380D02*
X58948571Y-38853380D01*
X58853333Y-38996238D01*
X58758095Y-39091476D01*
X58662857Y-39139095D01*
%TO.C,C4*%
X42779333Y-68439142D02*
X42731714Y-68486761D01*
X42588857Y-68534380D01*
X42493619Y-68534380D01*
X42350761Y-68486761D01*
X42255523Y-68391523D01*
X42207904Y-68296285D01*
X42160285Y-68105809D01*
X42160285Y-67962952D01*
X42207904Y-67772476D01*
X42255523Y-67677238D01*
X42350761Y-67582000D01*
X42493619Y-67534380D01*
X42588857Y-67534380D01*
X42731714Y-67582000D01*
X42779333Y-67629619D01*
X43636476Y-67867714D02*
X43636476Y-68534380D01*
X43398380Y-67486761D02*
X43160285Y-68201047D01*
X43779333Y-68201047D01*
%TO.C,C5*%
X28453333Y-70357142D02*
X28405714Y-70404761D01*
X28262857Y-70452380D01*
X28167619Y-70452380D01*
X28024761Y-70404761D01*
X27929523Y-70309523D01*
X27881904Y-70214285D01*
X27834285Y-70023809D01*
X27834285Y-69880952D01*
X27881904Y-69690476D01*
X27929523Y-69595238D01*
X28024761Y-69500000D01*
X28167619Y-69452380D01*
X28262857Y-69452380D01*
X28405714Y-69500000D01*
X28453333Y-69547619D01*
X29358095Y-69452380D02*
X28881904Y-69452380D01*
X28834285Y-69928571D01*
X28881904Y-69880952D01*
X28977142Y-69833333D01*
X29215238Y-69833333D01*
X29310476Y-69880952D01*
X29358095Y-69928571D01*
X29405714Y-70023809D01*
X29405714Y-70261904D01*
X29358095Y-70357142D01*
X29310476Y-70404761D01*
X29215238Y-70452380D01*
X28977142Y-70452380D01*
X28881904Y-70404761D01*
X28834285Y-70357142D01*
%TO.C,R10*%
X24357142Y-64452380D02*
X24023809Y-63976190D01*
X23785714Y-64452380D02*
X23785714Y-63452380D01*
X24166666Y-63452380D01*
X24261904Y-63500000D01*
X24309523Y-63547619D01*
X24357142Y-63642857D01*
X24357142Y-63785714D01*
X24309523Y-63880952D01*
X24261904Y-63928571D01*
X24166666Y-63976190D01*
X23785714Y-63976190D01*
X25309523Y-64452380D02*
X24738095Y-64452380D01*
X25023809Y-64452380D02*
X25023809Y-63452380D01*
X24928571Y-63595238D01*
X24833333Y-63690476D01*
X24738095Y-63738095D01*
X25928571Y-63452380D02*
X26023809Y-63452380D01*
X26119047Y-63500000D01*
X26166666Y-63547619D01*
X26214285Y-63642857D01*
X26261904Y-63833333D01*
X26261904Y-64071428D01*
X26214285Y-64261904D01*
X26166666Y-64357142D01*
X26119047Y-64404761D01*
X26023809Y-64452380D01*
X25928571Y-64452380D01*
X25833333Y-64404761D01*
X25785714Y-64357142D01*
X25738095Y-64261904D01*
X25690476Y-64071428D01*
X25690476Y-63833333D01*
X25738095Y-63642857D01*
X25785714Y-63547619D01*
X25833333Y-63500000D01*
X25928571Y-63452380D01*
%TO.C,Q8*%
X36480761Y-69639619D02*
X36385523Y-69592000D01*
X36290285Y-69496761D01*
X36147428Y-69353904D01*
X36052190Y-69306285D01*
X35956952Y-69306285D01*
X36004571Y-69544380D02*
X35909333Y-69496761D01*
X35814095Y-69401523D01*
X35766476Y-69211047D01*
X35766476Y-68877714D01*
X35814095Y-68687238D01*
X35909333Y-68592000D01*
X36004571Y-68544380D01*
X36195047Y-68544380D01*
X36290285Y-68592000D01*
X36385523Y-68687238D01*
X36433142Y-68877714D01*
X36433142Y-69211047D01*
X36385523Y-69401523D01*
X36290285Y-69496761D01*
X36195047Y-69544380D01*
X36004571Y-69544380D01*
X37004571Y-68972952D02*
X36909333Y-68925333D01*
X36861714Y-68877714D01*
X36814095Y-68782476D01*
X36814095Y-68734857D01*
X36861714Y-68639619D01*
X36909333Y-68592000D01*
X37004571Y-68544380D01*
X37195047Y-68544380D01*
X37290285Y-68592000D01*
X37337904Y-68639619D01*
X37385523Y-68734857D01*
X37385523Y-68782476D01*
X37337904Y-68877714D01*
X37290285Y-68925333D01*
X37195047Y-68972952D01*
X37004571Y-68972952D01*
X36909333Y-69020571D01*
X36861714Y-69068190D01*
X36814095Y-69163428D01*
X36814095Y-69353904D01*
X36861714Y-69449142D01*
X36909333Y-69496761D01*
X37004571Y-69544380D01*
X37195047Y-69544380D01*
X37290285Y-69496761D01*
X37337904Y-69449142D01*
X37385523Y-69353904D01*
X37385523Y-69163428D01*
X37337904Y-69068190D01*
X37290285Y-69020571D01*
X37195047Y-68972952D01*
%TO.C,R9*%
X25333333Y-61452380D02*
X25000000Y-60976190D01*
X24761904Y-61452380D02*
X24761904Y-60452380D01*
X25142857Y-60452380D01*
X25238095Y-60500000D01*
X25285714Y-60547619D01*
X25333333Y-60642857D01*
X25333333Y-60785714D01*
X25285714Y-60880952D01*
X25238095Y-60928571D01*
X25142857Y-60976190D01*
X24761904Y-60976190D01*
X25809523Y-61452380D02*
X26000000Y-61452380D01*
X26095238Y-61404761D01*
X26142857Y-61357142D01*
X26238095Y-61214285D01*
X26285714Y-61023809D01*
X26285714Y-60642857D01*
X26238095Y-60547619D01*
X26190476Y-60500000D01*
X26095238Y-60452380D01*
X25904761Y-60452380D01*
X25809523Y-60500000D01*
X25761904Y-60547619D01*
X25714285Y-60642857D01*
X25714285Y-60880952D01*
X25761904Y-60976190D01*
X25809523Y-61023809D01*
X25904761Y-61071428D01*
X26095238Y-61071428D01*
X26190476Y-61023809D01*
X26238095Y-60976190D01*
X26285714Y-60880952D01*
%TO.C,U10*%
X35591904Y-54202380D02*
X35591904Y-55011904D01*
X35639523Y-55107142D01*
X35687142Y-55154761D01*
X35782380Y-55202380D01*
X35972857Y-55202380D01*
X36068095Y-55154761D01*
X36115714Y-55107142D01*
X36163333Y-55011904D01*
X36163333Y-54202380D01*
X37163333Y-55202380D02*
X36591904Y-55202380D01*
X36877619Y-55202380D02*
X36877619Y-54202380D01*
X36782380Y-54345238D01*
X36687142Y-54440476D01*
X36591904Y-54488095D01*
X37782380Y-54202380D02*
X37877619Y-54202380D01*
X37972857Y-54250000D01*
X38020476Y-54297619D01*
X38068095Y-54392857D01*
X38115714Y-54583333D01*
X38115714Y-54821428D01*
X38068095Y-55011904D01*
X38020476Y-55107142D01*
X37972857Y-55154761D01*
X37877619Y-55202380D01*
X37782380Y-55202380D01*
X37687142Y-55154761D01*
X37639523Y-55107142D01*
X37591904Y-55011904D01*
X37544285Y-54821428D01*
X37544285Y-54583333D01*
X37591904Y-54392857D01*
X37639523Y-54297619D01*
X37687142Y-54250000D01*
X37782380Y-54202380D01*
%TO.C,R11*%
X37197142Y-59652380D02*
X36863809Y-59176190D01*
X36625714Y-59652380D02*
X36625714Y-58652380D01*
X37006666Y-58652380D01*
X37101904Y-58700000D01*
X37149523Y-58747619D01*
X37197142Y-58842857D01*
X37197142Y-58985714D01*
X37149523Y-59080952D01*
X37101904Y-59128571D01*
X37006666Y-59176190D01*
X36625714Y-59176190D01*
X38149523Y-59652380D02*
X37578095Y-59652380D01*
X37863809Y-59652380D02*
X37863809Y-58652380D01*
X37768571Y-58795238D01*
X37673333Y-58890476D01*
X37578095Y-58938095D01*
X39101904Y-59652380D02*
X38530476Y-59652380D01*
X38816190Y-59652380D02*
X38816190Y-58652380D01*
X38720952Y-58795238D01*
X38625714Y-58890476D01*
X38530476Y-58938095D01*
D11*
%TO.C,U7*%
X83075000Y-63052000D02*
X84725000Y-63052000D01*
X83075000Y-55312000D02*
X83075000Y-63052000D01*
X88375000Y-63052000D02*
X88375000Y-55312000D01*
X88375000Y-55312000D02*
X83075000Y-55312000D01*
X86725000Y-63052000D02*
X88375000Y-63052000D01*
X86725000Y-63052000D02*
G75*
G03*
X84725000Y-63052000I-1000000J0D01*
G01*
%TO.C,C3*%
X36564000Y-51816000D02*
G75*
G03*
X36564000Y-51816000I-3270000J0D01*
G01*
%TO.C,D1*%
X39170000Y-48556000D02*
X42110000Y-48556000D01*
X39170000Y-48436000D02*
X42110000Y-48436000D01*
X40640000Y-50676000D02*
X40640000Y-49456000D01*
X39170000Y-49456000D02*
X42110000Y-49456000D01*
X42110000Y-44016000D02*
X39170000Y-44016000D01*
X40640000Y-42796000D02*
X40640000Y-44016000D01*
X42110000Y-49456000D02*
X42110000Y-44016000D01*
X39170000Y-48676000D02*
X42110000Y-48676000D01*
X39170000Y-44016000D02*
X39170000Y-49456000D01*
%TO.C,D2*%
X41856000Y-30692000D02*
X38916000Y-30692000D01*
X41856000Y-30812000D02*
X38916000Y-30812000D01*
X40386000Y-28572000D02*
X40386000Y-29792000D01*
X41856000Y-29792000D02*
X38916000Y-29792000D01*
X38916000Y-35232000D02*
X41856000Y-35232000D01*
X40386000Y-36452000D02*
X40386000Y-35232000D01*
X38916000Y-29792000D02*
X38916000Y-35232000D01*
X41856000Y-30572000D02*
X38916000Y-30572000D01*
X41856000Y-35232000D02*
X41856000Y-29792000D01*
%TO.C,D3*%
X46790000Y-41190000D02*
X49730000Y-41190000D01*
X46790000Y-41070000D02*
X49730000Y-41070000D01*
X48260000Y-43310000D02*
X48260000Y-42090000D01*
X46790000Y-42090000D02*
X49730000Y-42090000D01*
X49730000Y-36650000D02*
X46790000Y-36650000D01*
X48260000Y-35430000D02*
X48260000Y-36650000D01*
X49730000Y-42090000D02*
X49730000Y-36650000D01*
X46790000Y-41310000D02*
X49730000Y-41310000D01*
X46790000Y-36650000D02*
X46790000Y-42090000D01*
%TO.C,J1*%
X33430000Y-35000000D02*
G75*
G03*
X33430000Y-35000000I-1680000J0D01*
G01*
X33285000Y-30684000D02*
G75*
G03*
X33285427Y-29316958I-1534993J684001D01*
G01*
X32434000Y-28465000D02*
G75*
G03*
X31066958Y-28464573I-684001J-1534993D01*
G01*
X30070000Y-30000000D02*
G75*
G03*
X30215244Y-30683318I1680000J0D01*
G01*
X30215000Y-29316000D02*
G75*
G03*
X30069747Y-30028805I1535001J-683999D01*
G01*
X31066000Y-31535001D02*
G75*
G03*
X32433042Y-31535427I684000J1535001D01*
G01*
X27650000Y-27440000D02*
X27650000Y-37560000D01*
X34051000Y-27440000D02*
X34051000Y-37560000D01*
X33025000Y-36070000D02*
X32989000Y-36035000D01*
X32819000Y-36275000D02*
X32773000Y-36228000D01*
X37011000Y-37560000D02*
X27090000Y-37560000D01*
X37011000Y-27440000D02*
X27090000Y-27440000D01*
X27590000Y-27200000D02*
X26850000Y-27200000D01*
X30511000Y-33966000D02*
X30476000Y-33931000D01*
X29150000Y-27440000D02*
X29150000Y-37560000D01*
X30727000Y-33773000D02*
X30681000Y-33726000D01*
X27090000Y-27440000D02*
X27090000Y-37560000D01*
X26850000Y-27200000D02*
X26850000Y-27700000D01*
X37011000Y-27440000D02*
X37011000Y-37560000D01*
%TO.C,J2*%
X33430000Y-45000000D02*
G75*
G03*
X33430000Y-45000000I-1680000J0D01*
G01*
X33285000Y-40684000D02*
G75*
G03*
X33285427Y-39316958I-1534993J684001D01*
G01*
X32434000Y-38465000D02*
G75*
G03*
X31066958Y-38464573I-684001J-1534993D01*
G01*
X30070000Y-40000000D02*
G75*
G03*
X30215244Y-40683318I1680000J0D01*
G01*
X30215000Y-39316000D02*
G75*
G03*
X30069747Y-40028805I1535001J-683999D01*
G01*
X31066000Y-41535001D02*
G75*
G03*
X32433042Y-41535427I684000J1535001D01*
G01*
X27650000Y-37440000D02*
X27650000Y-47560000D01*
X34051000Y-37440000D02*
X34051000Y-47560000D01*
X33025000Y-46070000D02*
X32989000Y-46035000D01*
X32819000Y-46275000D02*
X32773000Y-46228000D01*
X37011000Y-47560000D02*
X27090000Y-47560000D01*
X37011000Y-37440000D02*
X27090000Y-37440000D01*
X27590000Y-37200000D02*
X26850000Y-37200000D01*
X30511000Y-43966000D02*
X30476000Y-43931000D01*
X29150000Y-37440000D02*
X29150000Y-47560000D01*
X30727000Y-43773000D02*
X30681000Y-43726000D01*
X27090000Y-37440000D02*
X27090000Y-47560000D01*
X26850000Y-37200000D02*
X26850000Y-37700000D01*
X37011000Y-37440000D02*
X37011000Y-47560000D01*
%TO.C,U5*%
X70850000Y-36890000D02*
G75*
G03*
X68850000Y-36890000I-1000000J0D01*
G01*
X72500000Y-26610000D02*
X67200000Y-26610000D01*
X70850000Y-36890000D02*
X72500000Y-36890000D01*
X67200000Y-26610000D02*
X67200000Y-36890000D01*
X72500000Y-36890000D02*
X72500000Y-26610000D01*
X67200000Y-36890000D02*
X68850000Y-36890000D01*
%TO.C,R8*%
X52990000Y-30084000D02*
X52990000Y-33924000D01*
X51150000Y-30084000D02*
X51150000Y-33924000D01*
%TO.C,D4*%
X42980000Y-34332000D02*
X45920000Y-34332000D01*
X42980000Y-34212000D02*
X45920000Y-34212000D01*
X44450000Y-36452000D02*
X44450000Y-35232000D01*
X42980000Y-35232000D02*
X45920000Y-35232000D01*
X45920000Y-29792000D02*
X42980000Y-29792000D01*
X44450000Y-28572000D02*
X44450000Y-29792000D01*
X45920000Y-35232000D02*
X45920000Y-29792000D01*
X42980000Y-34452000D02*
X45920000Y-34452000D01*
X42980000Y-29792000D02*
X42980000Y-35232000D01*
%TO.C,C1*%
X68730000Y-45180000D02*
X68730000Y-41140000D01*
X65890000Y-41140000D02*
X66515000Y-41140000D01*
X68105000Y-41140000D02*
X68730000Y-41140000D01*
X65890000Y-45180000D02*
X66515000Y-45180000D01*
X68105000Y-45180000D02*
X68730000Y-45180000D01*
X65890000Y-45180000D02*
X65890000Y-41140000D01*
%TO.C,C2*%
X72540000Y-45180000D02*
X72540000Y-41140000D01*
X69700000Y-41140000D02*
X70325000Y-41140000D01*
X71915000Y-41140000D02*
X72540000Y-41140000D01*
X69700000Y-45180000D02*
X70325000Y-45180000D01*
X71915000Y-45180000D02*
X72540000Y-45180000D01*
X69700000Y-45180000D02*
X69700000Y-41140000D01*
%TO.C,J3*%
X107725000Y-46515000D02*
G75*
G03*
X107725000Y-46515000I-1680000J0D01*
G01*
X104510000Y-50831000D02*
G75*
G03*
X104509573Y-52198042I1534993J-684001D01*
G01*
X105361000Y-53050000D02*
G75*
G03*
X106728042Y-53050427I684001J1534993D01*
G01*
X107725000Y-51515000D02*
G75*
G03*
X107579756Y-50831682I-1680000J0D01*
G01*
X107580000Y-52199000D02*
G75*
G03*
X107725253Y-51486195I-1535001J683999D01*
G01*
X106729000Y-49979999D02*
G75*
G03*
X105361958Y-49979573I-684000J-1535001D01*
G01*
X110145000Y-54075000D02*
X110145000Y-43955000D01*
X103744000Y-54075000D02*
X103744000Y-43955000D01*
X104770000Y-45445000D02*
X104806000Y-45480000D01*
X104976000Y-45240000D02*
X105022000Y-45287000D01*
X100784000Y-43955000D02*
X110705000Y-43955000D01*
X100784000Y-54075000D02*
X110705000Y-54075000D01*
X110205000Y-54315000D02*
X110945000Y-54315000D01*
X107284000Y-47549000D02*
X107319000Y-47584000D01*
X108645000Y-54075000D02*
X108645000Y-43955000D01*
X107068000Y-47742000D02*
X107114000Y-47789000D01*
X110705000Y-54075000D02*
X110705000Y-43955000D01*
X110945000Y-54315000D02*
X110945000Y-53815000D01*
X100784000Y-54075000D02*
X100784000Y-43955000D01*
%TO.C,J4*%
X107725000Y-56515000D02*
G75*
G03*
X107725000Y-56515000I-1680000J0D01*
G01*
X104510000Y-60831000D02*
G75*
G03*
X104509573Y-62198042I1534993J-684001D01*
G01*
X105361000Y-63050000D02*
G75*
G03*
X106728042Y-63050427I684001J1534993D01*
G01*
X107725000Y-61515000D02*
G75*
G03*
X107579756Y-60831682I-1680000J0D01*
G01*
X107580000Y-62199000D02*
G75*
G03*
X107725253Y-61486195I-1535001J683999D01*
G01*
X106729000Y-59979999D02*
G75*
G03*
X105361958Y-59979573I-684000J-1535001D01*
G01*
X110145000Y-64075000D02*
X110145000Y-53955000D01*
X103744000Y-64075000D02*
X103744000Y-53955000D01*
X104770000Y-55445000D02*
X104806000Y-55480000D01*
X104976000Y-55240000D02*
X105022000Y-55287000D01*
X100784000Y-53955000D02*
X110705000Y-53955000D01*
X100784000Y-64075000D02*
X110705000Y-64075000D01*
X110205000Y-64315000D02*
X110945000Y-64315000D01*
X107284000Y-57549000D02*
X107319000Y-57584000D01*
X108645000Y-64075000D02*
X108645000Y-53955000D01*
X107068000Y-57742000D02*
X107114000Y-57789000D01*
X110705000Y-64075000D02*
X110705000Y-53955000D01*
X110945000Y-64315000D02*
X110945000Y-63815000D01*
X100784000Y-64075000D02*
X100784000Y-53955000D01*
%TO.C,J5*%
X107725000Y-36515000D02*
G75*
G03*
X107725000Y-36515000I-1680000J0D01*
G01*
X104510000Y-40831000D02*
G75*
G03*
X104509573Y-42198042I1534993J-684001D01*
G01*
X105361000Y-43050000D02*
G75*
G03*
X106728042Y-43050427I684001J1534993D01*
G01*
X107725000Y-41515000D02*
G75*
G03*
X107579756Y-40831682I-1680000J0D01*
G01*
X107580000Y-42199000D02*
G75*
G03*
X107725253Y-41486195I-1535001J683999D01*
G01*
X106729000Y-39979999D02*
G75*
G03*
X105361958Y-39979573I-684000J-1535001D01*
G01*
X110145000Y-44075000D02*
X110145000Y-33955000D01*
X103744000Y-44075000D02*
X103744000Y-33955000D01*
X104770000Y-35445000D02*
X104806000Y-35480000D01*
X104976000Y-35240000D02*
X105022000Y-35287000D01*
X100784000Y-33955000D02*
X110705000Y-33955000D01*
X100784000Y-44075000D02*
X110705000Y-44075000D01*
X110205000Y-44315000D02*
X110945000Y-44315000D01*
X107284000Y-37549000D02*
X107319000Y-37584000D01*
X108645000Y-44075000D02*
X108645000Y-33955000D01*
X107068000Y-37742000D02*
X107114000Y-37789000D01*
X110705000Y-44075000D02*
X110705000Y-33955000D01*
X110945000Y-44315000D02*
X110945000Y-43815000D01*
X100784000Y-44075000D02*
X100784000Y-33955000D01*
%TO.C,J6*%
X107725000Y-26515000D02*
G75*
G03*
X107725000Y-26515000I-1680000J0D01*
G01*
X104510000Y-30831000D02*
G75*
G03*
X104509573Y-32198042I1534993J-684001D01*
G01*
X105361000Y-33050000D02*
G75*
G03*
X106728042Y-33050427I684001J1534993D01*
G01*
X107725000Y-31515000D02*
G75*
G03*
X107579756Y-30831682I-1680000J0D01*
G01*
X107580000Y-32199000D02*
G75*
G03*
X107725253Y-31486195I-1535001J683999D01*
G01*
X106729000Y-29979999D02*
G75*
G03*
X105361958Y-29979573I-684000J-1535001D01*
G01*
X110145000Y-34075000D02*
X110145000Y-23955000D01*
X103744000Y-34075000D02*
X103744000Y-23955000D01*
X104770000Y-25445000D02*
X104806000Y-25480000D01*
X104976000Y-25240000D02*
X105022000Y-25287000D01*
X100784000Y-23955000D02*
X110705000Y-23955000D01*
X100784000Y-34075000D02*
X110705000Y-34075000D01*
X110205000Y-34315000D02*
X110945000Y-34315000D01*
X107284000Y-27549000D02*
X107319000Y-27584000D01*
X108645000Y-34075000D02*
X108645000Y-23955000D01*
X107068000Y-27742000D02*
X107114000Y-27789000D01*
X110705000Y-34075000D02*
X110705000Y-23955000D01*
X110945000Y-34315000D02*
X110945000Y-33815000D01*
X100784000Y-34075000D02*
X100784000Y-23955000D01*
%TO.C,J7*%
X27835000Y-90874000D02*
X37955000Y-90874000D01*
X27595000Y-101035000D02*
X28095000Y-101035000D01*
X27835000Y-100795000D02*
X37955000Y-100795000D01*
X34168000Y-97158000D02*
X34121000Y-97204000D01*
X27835000Y-98735000D02*
X37955000Y-98735000D01*
X34361000Y-97374000D02*
X34326000Y-97409000D01*
X27595000Y-100295000D02*
X27595000Y-101035000D01*
X27835000Y-90874000D02*
X27835000Y-100795000D01*
X37955000Y-90874000D02*
X37955000Y-100795000D01*
X36670000Y-95066000D02*
X36623000Y-95112000D01*
X36465000Y-94860000D02*
X36430000Y-94896000D01*
X27835000Y-93834000D02*
X37955000Y-93834000D01*
X27835000Y-100235000D02*
X37955000Y-100235000D01*
X31930001Y-96819000D02*
G75*
G03*
X31930427Y-95451958I-1535001J684000D01*
G01*
X29711000Y-97670000D02*
G75*
G03*
X30423805Y-97815253I683999J1535001D01*
G01*
X30395000Y-97815000D02*
G75*
G03*
X31078318Y-97669756I0J1680000D01*
G01*
X28860000Y-95451000D02*
G75*
G03*
X28859573Y-96818042I1534993J-684001D01*
G01*
X31079000Y-94600000D02*
G75*
G03*
X29711958Y-94599573I-684001J-1534993D01*
G01*
X37075000Y-96135000D02*
G75*
G03*
X37075000Y-96135000I-1680000J0D01*
G01*
%TO.C,J8*%
X37995000Y-90874000D02*
X48115000Y-90874000D01*
X37755000Y-101035000D02*
X38255000Y-101035000D01*
X37995000Y-100795000D02*
X48115000Y-100795000D01*
X44328000Y-97158000D02*
X44281000Y-97204000D01*
X37995000Y-98735000D02*
X48115000Y-98735000D01*
X44521000Y-97374000D02*
X44486000Y-97409000D01*
X37755000Y-100295000D02*
X37755000Y-101035000D01*
X37995000Y-90874000D02*
X37995000Y-100795000D01*
X48115000Y-90874000D02*
X48115000Y-100795000D01*
X46830000Y-95066000D02*
X46783000Y-95112000D01*
X46625000Y-94860000D02*
X46590000Y-94896000D01*
X37995000Y-93834000D02*
X48115000Y-93834000D01*
X37995000Y-100235000D02*
X48115000Y-100235000D01*
X42090001Y-96819000D02*
G75*
G03*
X42090427Y-95451958I-1535001J684000D01*
G01*
X39871000Y-97670000D02*
G75*
G03*
X40583805Y-97815253I683999J1535001D01*
G01*
X40555000Y-97815000D02*
G75*
G03*
X41238318Y-97669756I0J1680000D01*
G01*
X39020000Y-95451000D02*
G75*
G03*
X39019573Y-96818042I1534993J-684001D01*
G01*
X41239000Y-94600000D02*
G75*
G03*
X39871958Y-94599573I-684001J-1534993D01*
G01*
X47235000Y-96135000D02*
G75*
G03*
X47235000Y-96135000I-1680000J0D01*
G01*
%TO.C,J9*%
X49510000Y-90624000D02*
X59630000Y-90624000D01*
X49270000Y-100785000D02*
X49770000Y-100785000D01*
X49510000Y-100545000D02*
X59630000Y-100545000D01*
X55843000Y-96908000D02*
X55796000Y-96954000D01*
X49510000Y-98485000D02*
X59630000Y-98485000D01*
X56036000Y-97124000D02*
X56001000Y-97159000D01*
X49270000Y-100045000D02*
X49270000Y-100785000D01*
X49510000Y-90624000D02*
X49510000Y-100545000D01*
X59630000Y-90624000D02*
X59630000Y-100545000D01*
X58345000Y-94816000D02*
X58298000Y-94862000D01*
X58140000Y-94610000D02*
X58105000Y-94646000D01*
X49510000Y-93584000D02*
X59630000Y-93584000D01*
X49510000Y-99985000D02*
X59630000Y-99985000D01*
X53605001Y-96569000D02*
G75*
G03*
X53605427Y-95201958I-1535001J684000D01*
G01*
X51386000Y-97420000D02*
G75*
G03*
X52098805Y-97565253I683999J1535001D01*
G01*
X52070000Y-97565000D02*
G75*
G03*
X52753318Y-97419756I0J1680000D01*
G01*
X50535000Y-95201000D02*
G75*
G03*
X50534573Y-96568042I1534993J-684001D01*
G01*
X52754000Y-94350000D02*
G75*
G03*
X51386958Y-94349573I-684001J-1534993D01*
G01*
X58750000Y-95885000D02*
G75*
G03*
X58750000Y-95885000I-1680000J0D01*
G01*
%TO.C,J10*%
X59510000Y-90624000D02*
X69630000Y-90624000D01*
X59270000Y-100785000D02*
X59770000Y-100785000D01*
X59510000Y-100545000D02*
X69630000Y-100545000D01*
X65843000Y-96908000D02*
X65796000Y-96954000D01*
X59510000Y-98485000D02*
X69630000Y-98485000D01*
X66036000Y-97124000D02*
X66001000Y-97159000D01*
X59270000Y-100045000D02*
X59270000Y-100785000D01*
X59510000Y-90624000D02*
X59510000Y-100545000D01*
X69630000Y-90624000D02*
X69630000Y-100545000D01*
X68345000Y-94816000D02*
X68298000Y-94862000D01*
X68140000Y-94610000D02*
X68105000Y-94646000D01*
X59510000Y-93584000D02*
X69630000Y-93584000D01*
X59510000Y-99985000D02*
X69630000Y-99985000D01*
X63605001Y-96569000D02*
G75*
G03*
X63605427Y-95201958I-1535001J684000D01*
G01*
X61386000Y-97420000D02*
G75*
G03*
X62098805Y-97565253I683999J1535001D01*
G01*
X62070000Y-97565000D02*
G75*
G03*
X62753318Y-97419756I0J1680000D01*
G01*
X60535000Y-95201000D02*
G75*
G03*
X60534573Y-96568042I1534993J-684001D01*
G01*
X62754000Y-94350000D02*
G75*
G03*
X61386958Y-94349573I-684001J-1534993D01*
G01*
X68750000Y-95885000D02*
G75*
G03*
X68750000Y-95885000I-1680000J0D01*
G01*
%TO.C,J11*%
X69510000Y-90624000D02*
X79630000Y-90624000D01*
X69270000Y-100785000D02*
X69770000Y-100785000D01*
X69510000Y-100545000D02*
X79630000Y-100545000D01*
X75843000Y-96908000D02*
X75796000Y-96954000D01*
X69510000Y-98485000D02*
X79630000Y-98485000D01*
X76036000Y-97124000D02*
X76001000Y-97159000D01*
X69270000Y-100045000D02*
X69270000Y-100785000D01*
X69510000Y-90624000D02*
X69510000Y-100545000D01*
X79630000Y-90624000D02*
X79630000Y-100545000D01*
X78345000Y-94816000D02*
X78298000Y-94862000D01*
X78140000Y-94610000D02*
X78105000Y-94646000D01*
X69510000Y-93584000D02*
X79630000Y-93584000D01*
X69510000Y-99985000D02*
X79630000Y-99985000D01*
X73605001Y-96569000D02*
G75*
G03*
X73605427Y-95201958I-1535001J684000D01*
G01*
X71386000Y-97420000D02*
G75*
G03*
X72098805Y-97565253I683999J1535001D01*
G01*
X72070000Y-97565000D02*
G75*
G03*
X72753318Y-97419756I0J1680000D01*
G01*
X70535000Y-95201000D02*
G75*
G03*
X70534573Y-96568042I1534993J-684001D01*
G01*
X72754000Y-94350000D02*
G75*
G03*
X71386958Y-94349573I-684001J-1534993D01*
G01*
X78750000Y-95885000D02*
G75*
G03*
X78750000Y-95885000I-1680000J0D01*
G01*
%TO.C,J12*%
X79510000Y-90624000D02*
X89630000Y-90624000D01*
X79270000Y-100785000D02*
X79770000Y-100785000D01*
X79510000Y-100545000D02*
X89630000Y-100545000D01*
X85843000Y-96908000D02*
X85796000Y-96954000D01*
X79510000Y-98485000D02*
X89630000Y-98485000D01*
X86036000Y-97124000D02*
X86001000Y-97159000D01*
X79270000Y-100045000D02*
X79270000Y-100785000D01*
X79510000Y-90624000D02*
X79510000Y-100545000D01*
X89630000Y-90624000D02*
X89630000Y-100545000D01*
X88345000Y-94816000D02*
X88298000Y-94862000D01*
X88140000Y-94610000D02*
X88105000Y-94646000D01*
X79510000Y-93584000D02*
X89630000Y-93584000D01*
X79510000Y-99985000D02*
X89630000Y-99985000D01*
X83605001Y-96569000D02*
G75*
G03*
X83605427Y-95201958I-1535001J684000D01*
G01*
X81386000Y-97420000D02*
G75*
G03*
X82098805Y-97565253I683999J1535001D01*
G01*
X82070000Y-97565000D02*
G75*
G03*
X82753318Y-97419756I0J1680000D01*
G01*
X80535000Y-95201000D02*
G75*
G03*
X80534573Y-96568042I1534993J-684001D01*
G01*
X82754000Y-94350000D02*
G75*
G03*
X81386958Y-94349573I-684001J-1534993D01*
G01*
X88750000Y-95885000D02*
G75*
G03*
X88750000Y-95885000I-1680000J0D01*
G01*
%TO.C,J13*%
X89510000Y-90624000D02*
X99630000Y-90624000D01*
X89270000Y-100785000D02*
X89770000Y-100785000D01*
X89510000Y-100545000D02*
X99630000Y-100545000D01*
X95843000Y-96908000D02*
X95796000Y-96954000D01*
X89510000Y-98485000D02*
X99630000Y-98485000D01*
X96036000Y-97124000D02*
X96001000Y-97159000D01*
X89270000Y-100045000D02*
X89270000Y-100785000D01*
X89510000Y-90624000D02*
X89510000Y-100545000D01*
X99630000Y-90624000D02*
X99630000Y-100545000D01*
X98345000Y-94816000D02*
X98298000Y-94862000D01*
X98140000Y-94610000D02*
X98105000Y-94646000D01*
X89510000Y-93584000D02*
X99630000Y-93584000D01*
X89510000Y-99985000D02*
X99630000Y-99985000D01*
X93605001Y-96569000D02*
G75*
G03*
X93605427Y-95201958I-1535001J684000D01*
G01*
X91386000Y-97420000D02*
G75*
G03*
X92098805Y-97565253I683999J1535001D01*
G01*
X92070000Y-97565000D02*
G75*
G03*
X92753318Y-97419756I0J1680000D01*
G01*
X90535000Y-95201000D02*
G75*
G03*
X90534573Y-96568042I1534993J-684001D01*
G01*
X92754000Y-94350000D02*
G75*
G03*
X91386958Y-94349573I-684001J-1534993D01*
G01*
X98750000Y-95885000D02*
G75*
G03*
X98750000Y-95885000I-1680000J0D01*
G01*
%TO.C,J14*%
X99510000Y-90624000D02*
X109630000Y-90624000D01*
X99270000Y-100785000D02*
X99770000Y-100785000D01*
X99510000Y-100545000D02*
X109630000Y-100545000D01*
X105843000Y-96908000D02*
X105796000Y-96954000D01*
X99510000Y-98485000D02*
X109630000Y-98485000D01*
X106036000Y-97124000D02*
X106001000Y-97159000D01*
X99270000Y-100045000D02*
X99270000Y-100785000D01*
X99510000Y-90624000D02*
X99510000Y-100545000D01*
X109630000Y-90624000D02*
X109630000Y-100545000D01*
X108345000Y-94816000D02*
X108298000Y-94862000D01*
X108140000Y-94610000D02*
X108105000Y-94646000D01*
X99510000Y-93584000D02*
X109630000Y-93584000D01*
X99510000Y-99985000D02*
X109630000Y-99985000D01*
X103605001Y-96569000D02*
G75*
G03*
X103605427Y-95201958I-1535001J684000D01*
G01*
X101386000Y-97420000D02*
G75*
G03*
X102098805Y-97565253I683999J1535001D01*
G01*
X102070000Y-97565000D02*
G75*
G03*
X102753318Y-97419756I0J1680000D01*
G01*
X100535000Y-95201000D02*
G75*
G03*
X100534573Y-96568042I1534993J-684001D01*
G01*
X102754000Y-94350000D02*
G75*
G03*
X101386958Y-94349573I-684001J-1534993D01*
G01*
X108750000Y-95885000D02*
G75*
G03*
X108750000Y-95885000I-1680000J0D01*
G01*
%TO.C,K1*%
X55152000Y-80645000D02*
X53247000Y-80645000D01*
X58225000Y-75535000D02*
X58225000Y-88235000D01*
X50225000Y-75335000D02*
X52425000Y-75335000D01*
X53247000Y-80645000D02*
X53247000Y-81661000D01*
X54771000Y-80645000D02*
X54136000Y-81661000D01*
X58225000Y-88235000D02*
X50425000Y-88235000D01*
X53247000Y-81661000D02*
X55152000Y-81661000D01*
X52587000Y-81153000D02*
X53247000Y-81153000D01*
X55787000Y-81153000D02*
X55152000Y-81153000D01*
X55152000Y-80645000D02*
X55152000Y-81661000D01*
X50425000Y-88235000D02*
X50425000Y-75535000D01*
X50225000Y-77435000D02*
X50225000Y-75335000D01*
X55787000Y-80518000D02*
X55787000Y-81153000D01*
X50425000Y-75535000D02*
X58225000Y-75535000D01*
X52587000Y-80518000D02*
X52587000Y-81153000D01*
%TO.C,K2*%
X65185000Y-80645000D02*
X63280000Y-80645000D01*
X68258000Y-75535000D02*
X68258000Y-88235000D01*
X60258000Y-75335000D02*
X62458000Y-75335000D01*
X63280000Y-80645000D02*
X63280000Y-81661000D01*
X64804000Y-80645000D02*
X64169000Y-81661000D01*
X68258000Y-88235000D02*
X60458000Y-88235000D01*
X63280000Y-81661000D02*
X65185000Y-81661000D01*
X62620000Y-81153000D02*
X63280000Y-81153000D01*
X65820000Y-81153000D02*
X65185000Y-81153000D01*
X65185000Y-80645000D02*
X65185000Y-81661000D01*
X60458000Y-88235000D02*
X60458000Y-75535000D01*
X60258000Y-77435000D02*
X60258000Y-75335000D01*
X65820000Y-80518000D02*
X65820000Y-81153000D01*
X60458000Y-75535000D02*
X68258000Y-75535000D01*
X62620000Y-80518000D02*
X62620000Y-81153000D01*
%TO.C,K3*%
X75218000Y-80645000D02*
X73313000Y-80645000D01*
X78291000Y-75535000D02*
X78291000Y-88235000D01*
X70291000Y-75335000D02*
X72491000Y-75335000D01*
X73313000Y-80645000D02*
X73313000Y-81661000D01*
X74837000Y-80645000D02*
X74202000Y-81661000D01*
X78291000Y-88235000D02*
X70491000Y-88235000D01*
X73313000Y-81661000D02*
X75218000Y-81661000D01*
X72653000Y-81153000D02*
X73313000Y-81153000D01*
X75853000Y-81153000D02*
X75218000Y-81153000D01*
X75218000Y-80645000D02*
X75218000Y-81661000D01*
X70491000Y-88235000D02*
X70491000Y-75535000D01*
X70291000Y-77435000D02*
X70291000Y-75335000D01*
X75853000Y-80518000D02*
X75853000Y-81153000D01*
X70491000Y-75535000D02*
X78291000Y-75535000D01*
X72653000Y-80518000D02*
X72653000Y-81153000D01*
%TO.C,K4*%
X85251000Y-80645000D02*
X83346000Y-80645000D01*
X88324000Y-75535000D02*
X88324000Y-88235000D01*
X80324000Y-75335000D02*
X82524000Y-75335000D01*
X83346000Y-80645000D02*
X83346000Y-81661000D01*
X84870000Y-80645000D02*
X84235000Y-81661000D01*
X88324000Y-88235000D02*
X80524000Y-88235000D01*
X83346000Y-81661000D02*
X85251000Y-81661000D01*
X82686000Y-81153000D02*
X83346000Y-81153000D01*
X85886000Y-81153000D02*
X85251000Y-81153000D01*
X85251000Y-80645000D02*
X85251000Y-81661000D01*
X80524000Y-88235000D02*
X80524000Y-75535000D01*
X80324000Y-77435000D02*
X80324000Y-75335000D01*
X85886000Y-80518000D02*
X85886000Y-81153000D01*
X80524000Y-75535000D02*
X88324000Y-75535000D01*
X82686000Y-80518000D02*
X82686000Y-81153000D01*
%TO.C,K5*%
X95284000Y-80645000D02*
X93379000Y-80645000D01*
X98357000Y-75535000D02*
X98357000Y-88235000D01*
X90357000Y-75335000D02*
X92557000Y-75335000D01*
X93379000Y-80645000D02*
X93379000Y-81661000D01*
X94903000Y-80645000D02*
X94268000Y-81661000D01*
X98357000Y-88235000D02*
X90557000Y-88235000D01*
X93379000Y-81661000D02*
X95284000Y-81661000D01*
X92719000Y-81153000D02*
X93379000Y-81153000D01*
X95919000Y-81153000D02*
X95284000Y-81153000D01*
X95284000Y-80645000D02*
X95284000Y-81661000D01*
X90557000Y-88235000D02*
X90557000Y-75535000D01*
X90357000Y-77435000D02*
X90357000Y-75335000D01*
X95919000Y-80518000D02*
X95919000Y-81153000D01*
X90557000Y-75535000D02*
X98357000Y-75535000D01*
X92719000Y-80518000D02*
X92719000Y-81153000D01*
%TO.C,K6*%
X105317000Y-80645000D02*
X103412000Y-80645000D01*
X108390000Y-75535000D02*
X108390000Y-88235000D01*
X100390000Y-75335000D02*
X102590000Y-75335000D01*
X103412000Y-80645000D02*
X103412000Y-81661000D01*
X104936000Y-80645000D02*
X104301000Y-81661000D01*
X108390000Y-88235000D02*
X100590000Y-88235000D01*
X103412000Y-81661000D02*
X105317000Y-81661000D01*
X102752000Y-81153000D02*
X103412000Y-81153000D01*
X105952000Y-81153000D02*
X105317000Y-81153000D01*
X105317000Y-80645000D02*
X105317000Y-81661000D01*
X100590000Y-88235000D02*
X100590000Y-75535000D01*
X100390000Y-77435000D02*
X100390000Y-75335000D01*
X105952000Y-80518000D02*
X105952000Y-81153000D01*
X100590000Y-75535000D02*
X108390000Y-75535000D01*
X102752000Y-80518000D02*
X102752000Y-81153000D01*
%TO.C,Q1*%
X34077500Y-77746000D02*
X34077500Y-74146000D01*
X34065978Y-74107522D02*
G75*
G03*
X29627500Y-75946000I-1838478J-1838478D01*
G01*
X29627499Y-75946000D02*
G75*
G03*
X34065978Y-77784478I2600001J0D01*
G01*
%TO.C,Q2*%
X54365000Y-68879999D02*
G75*
G03*
X52526522Y-73318478I0J-2600001D01*
G01*
X56203478Y-73318478D02*
G75*
G03*
X54365000Y-68880000I-1838478J1838478D01*
G01*
X52565000Y-73330000D02*
X56165000Y-73330000D01*
%TO.C,Q3*%
X62598000Y-73330000D02*
X66198000Y-73330000D01*
X66236478Y-73318478D02*
G75*
G03*
X64398000Y-68880000I-1838478J1838478D01*
G01*
X64398000Y-68879999D02*
G75*
G03*
X62559522Y-73318478I0J-2600001D01*
G01*
%TO.C,Q4*%
X72631000Y-73330000D02*
X76231000Y-73330000D01*
X76269478Y-73318478D02*
G75*
G03*
X74431000Y-68880000I-1838478J1838478D01*
G01*
X74431000Y-68879999D02*
G75*
G03*
X72592522Y-73318478I0J-2600001D01*
G01*
%TO.C,Q5*%
X82664000Y-73330000D02*
X86264000Y-73330000D01*
X86302478Y-73318478D02*
G75*
G03*
X84464000Y-68880000I-1838478J1838478D01*
G01*
X84464000Y-68879999D02*
G75*
G03*
X82625522Y-73318478I0J-2600001D01*
G01*
%TO.C,Q6*%
X92697000Y-73330000D02*
X96297000Y-73330000D01*
X96335478Y-73318478D02*
G75*
G03*
X94497000Y-68880000I-1838478J1838478D01*
G01*
X94497000Y-68879999D02*
G75*
G03*
X92658522Y-73318478I0J-2600001D01*
G01*
%TO.C,Q7*%
X102730000Y-73330000D02*
X106330000Y-73330000D01*
X106368478Y-73318478D02*
G75*
G03*
X104530000Y-68880000I-1838478J1838478D01*
G01*
X104530000Y-68879999D02*
G75*
G03*
X102691522Y-73318478I0J-2600001D01*
G01*
%TO.C,R1*%
X35402000Y-74026000D02*
X35402000Y-77866000D01*
X37242000Y-74026000D02*
X37242000Y-77866000D01*
%TO.C,R2*%
X93472000Y-60936000D02*
X93472000Y-58976000D01*
X91752000Y-58976000D02*
X95192000Y-58976000D01*
X93472000Y-47776000D02*
X93472000Y-49736000D01*
X95192000Y-58976000D02*
X95192000Y-49736000D01*
X95192000Y-49736000D02*
X91752000Y-49736000D01*
X91752000Y-49736000D02*
X91752000Y-58976000D01*
%TO.C,R3*%
X95562000Y-49736000D02*
X95562000Y-58976000D01*
X99002000Y-49736000D02*
X95562000Y-49736000D01*
X99002000Y-58976000D02*
X99002000Y-49736000D01*
X97282000Y-47776000D02*
X97282000Y-49736000D01*
X95562000Y-58976000D02*
X99002000Y-58976000D01*
X97282000Y-60936000D02*
X97282000Y-58976000D01*
%TO.C,R4*%
X94815000Y-36870000D02*
X94815000Y-27630000D01*
X91375000Y-36870000D02*
X94815000Y-36870000D01*
X91375000Y-27630000D02*
X91375000Y-36870000D01*
X93095000Y-38830000D02*
X93095000Y-36870000D01*
X94815000Y-27630000D02*
X91375000Y-27630000D01*
X93095000Y-25670000D02*
X93095000Y-27630000D01*
%TO.C,R5*%
X98625000Y-36870000D02*
X98625000Y-27630000D01*
X95185000Y-36870000D02*
X98625000Y-36870000D01*
X95185000Y-27630000D02*
X95185000Y-36870000D01*
X96905000Y-38830000D02*
X96905000Y-36870000D01*
X98625000Y-27630000D02*
X95185000Y-27630000D01*
X96905000Y-25670000D02*
X96905000Y-27630000D01*
%TO.C,R6*%
X45995500Y-77866000D02*
X45995500Y-74026000D01*
X44155500Y-77866000D02*
X44155500Y-74026000D01*
%TO.C,R7*%
X40376500Y-77866000D02*
X40376500Y-74026000D01*
X38536500Y-77866000D02*
X38536500Y-74026000D01*
%TO.C,RN1*%
X77600000Y-49995000D02*
X74800000Y-49995000D01*
X74800000Y-49995000D02*
X74800000Y-63035000D01*
X74800000Y-60325000D02*
X77600000Y-60325000D01*
X74800000Y-63035000D02*
X77600000Y-63035000D01*
X77600000Y-63035000D02*
X77600000Y-49995000D01*
%TO.C,U1*%
X46930000Y-48785000D02*
X46930000Y-54085000D01*
X46930000Y-54085000D02*
X72450000Y-54085000D01*
X72450000Y-54085000D02*
X72450000Y-52435000D01*
X72450000Y-50435000D02*
X72450000Y-48785000D01*
X72450000Y-48785000D02*
X46930000Y-48785000D01*
X72450000Y-50435000D02*
G75*
G03*
X72450000Y-52435000I0J-1000000D01*
G01*
%TO.C,U2*%
X35670000Y-79895000D02*
X34020000Y-79895000D01*
X30370000Y-79895000D02*
X30370000Y-90175000D01*
X35670000Y-90175000D02*
X35670000Y-79895000D01*
X32020000Y-79895000D02*
X30370000Y-79895000D01*
X30370000Y-90175000D02*
X35670000Y-90175000D01*
X32020000Y-79895000D02*
G75*
G03*
X34020000Y-79895000I1000000J0D01*
G01*
%TO.C,U3*%
X42180000Y-79895000D02*
G75*
G03*
X44180000Y-79895000I1000000J0D01*
G01*
X40530000Y-90175000D02*
X45830000Y-90175000D01*
X42180000Y-79895000D02*
X40530000Y-79895000D01*
X45830000Y-90175000D02*
X45830000Y-79895000D01*
X40530000Y-79895000D02*
X40530000Y-90175000D01*
X45830000Y-79895000D02*
X44180000Y-79895000D01*
%TO.C,U4*%
X50105000Y-59580000D02*
X50105000Y-61230000D01*
X50105000Y-64880000D02*
X70545000Y-64880000D01*
X70545000Y-59580000D02*
X50105000Y-59580000D01*
X70545000Y-64880000D02*
X70545000Y-59580000D01*
X50105000Y-63230000D02*
X50105000Y-64880000D01*
X50105000Y-63230000D02*
G75*
G03*
X50105000Y-61230000I0J1000000D01*
G01*
%TO.C,U6*%
X86725000Y-53527000D02*
G75*
G03*
X84725000Y-53527000I-1000000J0D01*
G01*
X86725000Y-53527000D02*
X88375000Y-53527000D01*
X88375000Y-45787000D02*
X83075000Y-45787000D01*
X88375000Y-53527000D02*
X88375000Y-45787000D01*
X83075000Y-45787000D02*
X83075000Y-53527000D01*
X83075000Y-53527000D02*
X84725000Y-53527000D01*
%TO.C,U8*%
X86725000Y-41180000D02*
G75*
G03*
X84725000Y-41180000I-1000000J0D01*
G01*
X86725000Y-41180000D02*
X88375000Y-41180000D01*
X88375000Y-33440000D02*
X83075000Y-33440000D01*
X88375000Y-41180000D02*
X88375000Y-33440000D01*
X83075000Y-33440000D02*
X83075000Y-41180000D01*
X83075000Y-41180000D02*
X84725000Y-41180000D01*
%TO.C,U9*%
X86725000Y-31655000D02*
G75*
G03*
X84725000Y-31655000I-1000000J0D01*
G01*
X86725000Y-31655000D02*
X88375000Y-31655000D01*
X88375000Y-23915000D02*
X83075000Y-23915000D01*
X88375000Y-31655000D02*
X88375000Y-23915000D01*
X83075000Y-23915000D02*
X83075000Y-31655000D01*
X83075000Y-31655000D02*
X84725000Y-31655000D01*
%TO.C,Y1*%
X55320000Y-40401000D02*
X61720000Y-40401000D01*
X55320000Y-45451000D02*
X61720000Y-45451000D01*
X55320000Y-40401000D02*
G75*
G03*
X55320000Y-45451000I0J-2525000D01*
G01*
X61720000Y-45451000D02*
G75*
G03*
X61720000Y-40401000I0J2525000D01*
G01*
%TO.C,C4*%
X44966000Y-64112000D02*
X40926000Y-64112000D01*
X40926000Y-66952000D02*
X40926000Y-66327000D01*
X40926000Y-64737000D02*
X40926000Y-64112000D01*
X44966000Y-66952000D02*
X44966000Y-66327000D01*
X44966000Y-64737000D02*
X44966000Y-64112000D01*
X44966000Y-66952000D02*
X40926000Y-66952000D01*
%TO.C,C5*%
X26600000Y-69340000D02*
X30640000Y-69340000D01*
X30640000Y-66500000D02*
X30640000Y-67125000D01*
X30640000Y-68715000D02*
X30640000Y-69340000D01*
X26600000Y-66500000D02*
X26600000Y-67125000D01*
X26600000Y-68715000D02*
X26600000Y-69340000D01*
X26600000Y-66500000D02*
X30640000Y-66500000D01*
%TO.C,R10*%
X27890000Y-65190000D02*
X31730000Y-65190000D01*
X27890000Y-63350000D02*
X31730000Y-63350000D01*
%TO.C,Q8*%
X38376000Y-63682000D02*
X34776000Y-63682000D01*
X34737522Y-63693522D02*
G75*
G03*
X36576000Y-68132000I1838478J-1838478D01*
G01*
X36576000Y-68132001D02*
G75*
G03*
X38414478Y-63693522I0J2600001D01*
G01*
%TO.C,R9*%
X27890000Y-62040000D02*
X31730000Y-62040000D01*
X27890000Y-60200000D02*
X31730000Y-60200000D01*
%TO.C,U10*%
X26500000Y-55750000D02*
X26500000Y-58550000D01*
X29210000Y-55750000D02*
X29210000Y-58550000D01*
X44620000Y-55750000D02*
X26500000Y-55750000D01*
X44620000Y-58550000D02*
X44620000Y-55750000D01*
X26500000Y-58550000D02*
X44620000Y-58550000D01*
%TO.C,R11*%
X35920000Y-62040000D02*
X39760000Y-62040000D01*
X35920000Y-60200000D02*
X39760000Y-60200000D01*
%TD*%
M02*
