%TF.GenerationSoftware,KiCad,Pcbnew,6.0.7*%
%TF.CreationDate,2022-09-29T13:58:52+02:00*%
%TF.ProjectId,HP_device,48505f64-6576-4696-9365-2e6b69636164,rev?*%
%TF.SameCoordinates,Original*%
%TF.FileFunction,Copper,L1,Top*%
%TF.FilePolarity,Positive*%
%FSLAX46Y46*%
G04 Gerber Fmt 4.6, Leading zero omitted, Abs format (unit mm)*
G04 Created by KiCad (PCBNEW 6.0.7) date 2022-09-29 13:58:52*
%MOMM*%
%LPD*%
G01*
G04 APERTURE LIST*
%TA.AperFunction,ComponentPad*%
%ADD10R,1.600000X1.600000*%
%TD*%
%TA.AperFunction,ComponentPad*%
%ADD11O,1.600000X1.600000*%
%TD*%
%TA.AperFunction,ComponentPad*%
%ADD12C,1.600000*%
%TD*%
%TA.AperFunction,ComponentPad*%
%ADD13O,1.800000X1.800000*%
%TD*%
%TA.AperFunction,ComponentPad*%
%ADD14R,1.800000X1.800000*%
%TD*%
%TA.AperFunction,ComponentPad*%
%ADD15C,2.600000*%
%TD*%
%TA.AperFunction,ComponentPad*%
%ADD16R,2.600000X2.600000*%
%TD*%
%TA.AperFunction,ComponentPad*%
%ADD17O,1.400000X1.400000*%
%TD*%
%TA.AperFunction,ComponentPad*%
%ADD18C,1.400000*%
%TD*%
%TA.AperFunction,ComponentPad*%
%ADD19R,2.000000X2.000000*%
%TD*%
%TA.AperFunction,ComponentPad*%
%ADD20C,2.000000*%
%TD*%
%TA.AperFunction,ComponentPad*%
%ADD21R,1.500000X1.050000*%
%TD*%
%TA.AperFunction,ComponentPad*%
%ADD22O,1.500000X1.050000*%
%TD*%
%TA.AperFunction,ComponentPad*%
%ADD23O,1.050000X1.500000*%
%TD*%
%TA.AperFunction,ComponentPad*%
%ADD24R,1.050000X1.500000*%
%TD*%
%TA.AperFunction,ComponentPad*%
%ADD25C,1.500000*%
%TD*%
%TA.AperFunction,ViaPad*%
%ADD26C,0.800000*%
%TD*%
%TA.AperFunction,Conductor*%
%ADD27C,0.250000*%
%TD*%
%TA.AperFunction,Conductor*%
%ADD28C,0.350000*%
%TD*%
G04 APERTURE END LIST*
D10*
%TO.P,U7,1*%
%TO.N,Net-(R3-Pad1)*%
X89535000Y-61722000D03*
D11*
%TO.P,U7,2*%
%TO.N,Net-(U7-Pad2)*%
X89535000Y-59182000D03*
%TO.P,U7,3,NC*%
%TO.N,unconnected-(U7-Pad3)*%
X89535000Y-56642000D03*
%TO.P,U7,4*%
%TO.N,GND*%
X81915000Y-56642000D03*
%TO.P,U7,5*%
%TO.N,/EHS*%
X81915000Y-59182000D03*
%TO.P,U7,6*%
%TO.N,unconnected-(U7-Pad6)*%
X81915000Y-61722000D03*
%TD*%
D12*
%TO.P,C3,2*%
%TO.N,GND*%
X32044000Y-51816000D03*
%TO.P,C3,1*%
%TO.N,+5V*%
X34544000Y-51816000D03*
%TD*%
D13*
%TO.P,D1,2,A*%
%TO.N,Net-(D1-Pad2)*%
X40640000Y-41656000D03*
D14*
%TO.P,D1,1,K*%
%TO.N,+5V*%
X40640000Y-51816000D03*
%TD*%
D13*
%TO.P,D2,2,A*%
%TO.N,/RS-*%
X40386000Y-37592000D03*
D14*
%TO.P,D2,1,K*%
%TO.N,/RS+*%
X40386000Y-27432000D03*
%TD*%
D13*
%TO.P,D3,2,A*%
%TO.N,/RS-*%
X48260000Y-34290000D03*
D14*
%TO.P,D3,1,K*%
%TO.N,GND*%
X48260000Y-44450000D03*
%TD*%
D15*
%TO.P,J1,2,Pin_2*%
%TO.N,/RS-*%
X31750000Y-35000000D03*
D16*
%TO.P,J1,1,Pin_1*%
%TO.N,/RS+*%
X31750000Y-30000000D03*
%TD*%
D15*
%TO.P,J2,2,Pin_2*%
%TO.N,Net-(D1-Pad2)*%
X31750000Y-45000000D03*
D16*
%TO.P,J2,1,Pin_1*%
%TO.N,GND*%
X31750000Y-40000000D03*
%TD*%
D11*
%TO.P,U5,8,VCC*%
%TO.N,+5V*%
X66040000Y-35560000D03*
%TO.P,U5,7,B*%
%TO.N,/RS-*%
X66040000Y-33020000D03*
%TO.P,U5,6,A*%
%TO.N,/RS+*%
X66040000Y-30480000D03*
%TO.P,U5,5,GND*%
%TO.N,GND*%
X66040000Y-27940000D03*
%TO.P,U5,4,D*%
%TO.N,TXD*%
X73660000Y-27940000D03*
%TO.P,U5,3,DE*%
%TO.N,DRIVE*%
X73660000Y-30480000D03*
%TO.P,U5,2,NRE*%
X73660000Y-33020000D03*
D10*
%TO.P,U5,1,R*%
%TO.N,RXD*%
X73660000Y-35560000D03*
%TD*%
D17*
%TO.P,R8,2*%
%TO.N,/RS-*%
X52070000Y-34544000D03*
D18*
%TO.P,R8,1*%
%TO.N,/RS+*%
X52070000Y-29464000D03*
%TD*%
D13*
%TO.P,D4,2,A*%
%TO.N,/RS+*%
X44450000Y-27432000D03*
D14*
%TO.P,D4,1,K*%
%TO.N,GND*%
X44450000Y-37592000D03*
%TD*%
D12*
%TO.P,C1,1*%
%TO.N,Net-(C1-Pad1)*%
X67310000Y-44410000D03*
%TO.P,C1,2*%
%TO.N,GND*%
X67310000Y-41910000D03*
%TD*%
%TO.P,C2,1*%
%TO.N,Net-(C2-Pad1)*%
X71120000Y-44410000D03*
%TO.P,C2,2*%
%TO.N,GND*%
X71120000Y-41910000D03*
%TD*%
D15*
%TO.P,J3,2,Pin_2*%
%TO.N,Net-(U6-Pad2)*%
X106045000Y-46515000D03*
D16*
%TO.P,J3,1,Pin_1*%
%TO.N,Net-(R2-Pad2)*%
X106045000Y-51515000D03*
%TD*%
D15*
%TO.P,J4,2,Pin_2*%
%TO.N,Net-(U7-Pad2)*%
X106045000Y-56515000D03*
D16*
%TO.P,J4,1,Pin_1*%
%TO.N,Net-(R3-Pad2)*%
X106045000Y-61515000D03*
%TD*%
D15*
%TO.P,J5,2,Pin_2*%
%TO.N,Net-(J5-Pad2)*%
X106045000Y-36515000D03*
D16*
%TO.P,J5,1,Pin_1*%
%TO.N,Net-(J5-Pad1)*%
X106045000Y-41515000D03*
%TD*%
D15*
%TO.P,J6,2,Pin_2*%
%TO.N,Net-(J6-Pad2)*%
X106045000Y-26515000D03*
D16*
%TO.P,J6,1,Pin_1*%
%TO.N,Net-(J6-Pad1)*%
X106045000Y-31515000D03*
%TD*%
%TO.P,J7,1,Pin_1*%
%TO.N,Net-(U2-Pad6)*%
X30395000Y-96135000D03*
D15*
%TO.P,J7,2,Pin_2*%
%TO.N,Net-(U2-Pad5)*%
X35395000Y-96135000D03*
%TD*%
D16*
%TO.P,J8,1,Pin_1*%
%TO.N,Net-(J8-Pad1)*%
X40555000Y-96135000D03*
D15*
%TO.P,J8,2,Pin_2*%
%TO.N,Net-(J8-Pad2)*%
X45555000Y-96135000D03*
%TD*%
D16*
%TO.P,J9,1,Pin_1*%
%TO.N,/DHWA*%
X52070000Y-95885000D03*
D15*
%TO.P,J9,2,Pin_2*%
%TO.N,/DHWB*%
X57070000Y-95885000D03*
%TD*%
D16*
%TO.P,J10,1,Pin_1*%
%TO.N,/ONA*%
X62070000Y-95885000D03*
D15*
%TO.P,J10,2,Pin_2*%
%TO.N,/ONB*%
X67070000Y-95885000D03*
%TD*%
D16*
%TO.P,J11,1,Pin_1*%
%TO.N,/DSETA*%
X72070000Y-95885000D03*
D15*
%TO.P,J11,2,Pin_2*%
%TO.N,/DSETB*%
X77070000Y-95885000D03*
%TD*%
D16*
%TO.P,J12,1,Pin_1*%
%TO.N,/OPMA*%
X82070000Y-95885000D03*
D15*
%TO.P,J12,2,Pin_2*%
%TO.N,/OPMB*%
X87070000Y-95885000D03*
%TD*%
D16*
%TO.P,J13,1,Pin_1*%
%TO.N,/NOCA*%
X92070000Y-95885000D03*
D15*
%TO.P,J13,2,Pin_2*%
%TO.N,/NOCB*%
X97070000Y-95885000D03*
%TD*%
D16*
%TO.P,J14,1,Pin_1*%
%TO.N,/LTA*%
X102070000Y-95885000D03*
D15*
%TO.P,J14,2,Pin_2*%
%TO.N,/LTB*%
X107070000Y-95885000D03*
%TD*%
D19*
%TO.P,K1,1*%
%TO.N,unconnected-(K1-Pad1)*%
X51825000Y-76835000D03*
D20*
%TO.P,K1,2*%
%TO.N,+5V*%
X51825000Y-79375000D03*
%TO.P,K1,5*%
%TO.N,/DHWB*%
X51825000Y-86995000D03*
%TO.P,K1,6*%
X56905000Y-86995000D03*
%TO.P,K1,9*%
%TO.N,/C_DHW*%
X56905000Y-79375000D03*
%TO.P,K1,10*%
%TO.N,/DHWA*%
X56905000Y-76835000D03*
%TD*%
D19*
%TO.P,K2,1*%
%TO.N,unconnected-(K2-Pad1)*%
X61858000Y-76835000D03*
D20*
%TO.P,K2,2*%
%TO.N,+5V*%
X61858000Y-79375000D03*
%TO.P,K2,5*%
%TO.N,/ONB*%
X61858000Y-86995000D03*
%TO.P,K2,6*%
X66938000Y-86995000D03*
%TO.P,K2,9*%
%TO.N,/C_ON*%
X66938000Y-79375000D03*
%TO.P,K2,10*%
%TO.N,/ONA*%
X66938000Y-76835000D03*
%TD*%
D19*
%TO.P,K3,1*%
%TO.N,unconnected-(K3-Pad1)*%
X71891000Y-76835000D03*
D20*
%TO.P,K3,2*%
%TO.N,+5V*%
X71891000Y-79375000D03*
%TO.P,K3,5*%
%TO.N,/DSETB*%
X71891000Y-86995000D03*
%TO.P,K3,6*%
X76971000Y-86995000D03*
%TO.P,K3,9*%
%TO.N,/C_DSET*%
X76971000Y-79375000D03*
%TO.P,K3,10*%
%TO.N,/DSETA*%
X76971000Y-76835000D03*
%TD*%
D19*
%TO.P,K4,1*%
%TO.N,unconnected-(K4-Pad1)*%
X81924000Y-76835000D03*
D20*
%TO.P,K4,2*%
%TO.N,+5V*%
X81924000Y-79375000D03*
%TO.P,K4,5*%
%TO.N,/OPMB*%
X81924000Y-86995000D03*
%TO.P,K4,6*%
X87004000Y-86995000D03*
%TO.P,K4,9*%
%TO.N,/C_OPM*%
X87004000Y-79375000D03*
%TO.P,K4,10*%
%TO.N,/OPMA*%
X87004000Y-76835000D03*
%TD*%
D19*
%TO.P,K5,1*%
%TO.N,unconnected-(K5-Pad1)*%
X91957000Y-76835000D03*
D20*
%TO.P,K5,2*%
%TO.N,+5V*%
X91957000Y-79375000D03*
%TO.P,K5,5*%
%TO.N,/NOCB*%
X91957000Y-86995000D03*
%TO.P,K5,6*%
X97037000Y-86995000D03*
%TO.P,K5,9*%
%TO.N,/C_NOC*%
X97037000Y-79375000D03*
%TO.P,K5,10*%
%TO.N,/NOCA*%
X97037000Y-76835000D03*
%TD*%
D19*
%TO.P,K6,1*%
%TO.N,unconnected-(K6-Pad1)*%
X101990000Y-76835000D03*
D20*
%TO.P,K6,2*%
%TO.N,+5V*%
X101990000Y-79375000D03*
%TO.P,K6,5*%
%TO.N,/LTB*%
X101990000Y-86995000D03*
%TO.P,K6,6*%
X107070000Y-86995000D03*
%TO.P,K6,9*%
%TO.N,/C_LT*%
X107070000Y-79375000D03*
%TO.P,K6,10*%
%TO.N,/LTA*%
X107070000Y-76835000D03*
%TD*%
D21*
%TO.P,Q1,1,D*%
%TO.N,Net-(Q1-Pad1)*%
X32227500Y-77216000D03*
D22*
%TO.P,Q1,2,G*%
%TO.N,/W_CSEL*%
X32227500Y-75946000D03*
%TO.P,Q1,3,S*%
%TO.N,GND*%
X32227500Y-74676000D03*
%TD*%
D23*
%TO.P,Q2,3,S*%
%TO.N,GND*%
X55635000Y-71480000D03*
%TO.P,Q2,2,G*%
%TO.N,/DHW*%
X54365000Y-71480000D03*
D24*
%TO.P,Q2,1,D*%
%TO.N,/C_DHW*%
X53095000Y-71480000D03*
%TD*%
%TO.P,Q3,1,D*%
%TO.N,/C_ON*%
X63128000Y-71480000D03*
D23*
%TO.P,Q3,2,G*%
%TO.N,/ON*%
X64398000Y-71480000D03*
%TO.P,Q3,3,S*%
%TO.N,GND*%
X65668000Y-71480000D03*
%TD*%
D24*
%TO.P,Q4,1,D*%
%TO.N,/C_DSET*%
X73161000Y-71480000D03*
D23*
%TO.P,Q4,2,G*%
%TO.N,/DSET*%
X74431000Y-71480000D03*
%TO.P,Q4,3,S*%
%TO.N,GND*%
X75701000Y-71480000D03*
%TD*%
D24*
%TO.P,Q5,1,D*%
%TO.N,/C_OPM*%
X83194000Y-71480000D03*
D23*
%TO.P,Q5,2,G*%
%TO.N,/OPM*%
X84464000Y-71480000D03*
%TO.P,Q5,3,S*%
%TO.N,GND*%
X85734000Y-71480000D03*
%TD*%
D24*
%TO.P,Q6,1,D*%
%TO.N,/C_NOC*%
X93227000Y-71480000D03*
D23*
%TO.P,Q6,2,G*%
%TO.N,/NOC*%
X94497000Y-71480000D03*
%TO.P,Q6,3,S*%
%TO.N,GND*%
X95767000Y-71480000D03*
%TD*%
D24*
%TO.P,Q7,1,D*%
%TO.N,/C_LT*%
X103260000Y-71480000D03*
D23*
%TO.P,Q7,2,G*%
%TO.N,/LT*%
X104530000Y-71480000D03*
%TO.P,Q7,3,S*%
%TO.N,GND*%
X105800000Y-71480000D03*
%TD*%
D18*
%TO.P,R1,1*%
%TO.N,+5V*%
X36322000Y-73406000D03*
D17*
%TO.P,R1,2*%
%TO.N,Net-(Q1-Pad1)*%
X36322000Y-78486000D03*
%TD*%
D12*
%TO.P,R2,1*%
%TO.N,Net-(R2-Pad1)*%
X93472000Y-46736000D03*
D11*
%TO.P,R2,2*%
%TO.N,Net-(R2-Pad2)*%
X93472000Y-61976000D03*
%TD*%
%TO.P,R3,2*%
%TO.N,Net-(R3-Pad2)*%
X97282000Y-61976000D03*
D12*
%TO.P,R3,1*%
%TO.N,Net-(R3-Pad1)*%
X97282000Y-46736000D03*
%TD*%
D11*
%TO.P,R4,2*%
%TO.N,Net-(J5-Pad2)*%
X93095000Y-24630000D03*
D12*
%TO.P,R4,1*%
%TO.N,Net-(R4-Pad1)*%
X93095000Y-39870000D03*
%TD*%
D11*
%TO.P,R5,2*%
%TO.N,Net-(J6-Pad2)*%
X96905000Y-24630000D03*
D12*
%TO.P,R5,1*%
%TO.N,Net-(R5-Pad1)*%
X96905000Y-39870000D03*
%TD*%
D18*
%TO.P,R6,1*%
%TO.N,+5V*%
X45075500Y-78486000D03*
D17*
%TO.P,R6,2*%
%TO.N,/SERDATA*%
X45075500Y-73406000D03*
%TD*%
D18*
%TO.P,R7,1*%
%TO.N,+5V*%
X39456500Y-78486000D03*
D17*
%TO.P,R7,2*%
%TO.N,/W_CSEL*%
X39456500Y-73406000D03*
%TD*%
D10*
%TO.P,RN1,1,common*%
%TO.N,+5V*%
X76200000Y-61595000D03*
D11*
%TO.P,RN1,2,R1*%
%TO.N,/EHS*%
X76200000Y-59055000D03*
%TO.P,RN1,3,R2*%
%TO.N,/MODE*%
X76200000Y-56515000D03*
%TO.P,RN1,4,R3*%
%TO.N,/BCKUP*%
X76200000Y-53975000D03*
%TO.P,RN1,5,R4*%
%TO.N,/ALARM*%
X76200000Y-51435000D03*
%TD*%
D10*
%TO.P,U1,1,RST/VPP*%
%TO.N,Net-(Q8-Pad1)*%
X71120000Y-47625000D03*
D11*
%TO.P,U1,2,P3.0*%
%TO.N,RXD*%
X68580000Y-47625000D03*
%TO.P,U1,3,P3.1*%
%TO.N,TXD*%
X66040000Y-47625000D03*
%TO.P,U1,4,XTAL2*%
%TO.N,Net-(C2-Pad1)*%
X63500000Y-47625000D03*
%TO.P,U1,5,XTAL1*%
%TO.N,Net-(C1-Pad1)*%
X60960000Y-47625000D03*
%TO.P,U1,6,P3.2*%
%TO.N,DRIVE*%
X58420000Y-47625000D03*
%TO.P,U1,7,P3.3*%
%TO.N,/ALARM*%
X55880000Y-47625000D03*
%TO.P,U1,8,P3.4*%
%TO.N,/BCKUP*%
X53340000Y-47625000D03*
%TO.P,U1,9,P3.5*%
%TO.N,/MODE*%
X50800000Y-47625000D03*
%TO.P,U1,10,GND*%
%TO.N,GND*%
X48260000Y-47625000D03*
%TO.P,U1,11,P3.7*%
%TO.N,/EHS*%
X48260000Y-55245000D03*
%TO.P,U1,12,P1.0*%
%TO.N,/W_CSEL*%
X50800000Y-55245000D03*
%TO.P,U1,13,P1.1*%
%TO.N,/W_SCK*%
X53340000Y-55245000D03*
%TO.P,U1,14,P1.2*%
%TO.N,/W_SDO*%
X55880000Y-55245000D03*
%TO.P,U1,15,P1.3*%
%TO.N,/SERDATA*%
X58420000Y-55245000D03*
%TO.P,U1,16,P1.4*%
%TO.N,/NOE*%
X60960000Y-55245000D03*
%TO.P,U1,17,P1.5*%
%TO.N,/STCP*%
X63500000Y-55245000D03*
%TO.P,U1,18,P1.6*%
%TO.N,/SHCP*%
X66040000Y-55245000D03*
%TO.P,U1,19,P1.7*%
%TO.N,/NMR*%
X68580000Y-55245000D03*
%TO.P,U1,20,VCC*%
%TO.N,+5V*%
X71120000Y-55245000D03*
%TD*%
D10*
%TO.P,U2,1,~{CS}*%
%TO.N,Net-(Q1-Pad1)*%
X29210000Y-81225000D03*
D11*
%TO.P,U2,2,SCK*%
%TO.N,/W_SCK*%
X29210000Y-83765000D03*
%TO.P,U2,3,SDI*%
%TO.N,/SERDATA*%
X29210000Y-86305000D03*
%TO.P,U2,4,VSS*%
%TO.N,GND*%
X29210000Y-88845000D03*
%TO.P,U2,5,P0W*%
%TO.N,Net-(U2-Pad5)*%
X36830000Y-88845000D03*
%TO.P,U2,6,P0B*%
%TO.N,Net-(U2-Pad6)*%
X36830000Y-86305000D03*
%TO.P,U2,7,SDO*%
%TO.N,/W_SDO*%
X36830000Y-83765000D03*
%TO.P,U2,8,VDD*%
%TO.N,+5V*%
X36830000Y-81225000D03*
%TD*%
%TO.P,U3,8,VDD*%
%TO.N,+5V*%
X46990000Y-81225000D03*
%TO.P,U3,7,SDO*%
%TO.N,/W_SDO*%
X46990000Y-83765000D03*
%TO.P,U3,6,P0B*%
%TO.N,Net-(J8-Pad2)*%
X46990000Y-86305000D03*
%TO.P,U3,5,P0W*%
%TO.N,Net-(J8-Pad1)*%
X46990000Y-88845000D03*
%TO.P,U3,4,VSS*%
%TO.N,GND*%
X39370000Y-88845000D03*
%TO.P,U3,3,SDI*%
%TO.N,/SERDATA*%
X39370000Y-86305000D03*
%TO.P,U3,2,SCK*%
%TO.N,/W_SCK*%
X39370000Y-83765000D03*
D10*
%TO.P,U3,1,~{CS}*%
%TO.N,/W_CSEL*%
X39370000Y-81225000D03*
%TD*%
%TO.P,U4,1,QB*%
%TO.N,/DHW*%
X51435000Y-66040000D03*
D11*
%TO.P,U4,2,QC*%
%TO.N,/ON*%
X53975000Y-66040000D03*
%TO.P,U4,3,QD*%
%TO.N,/DSET*%
X56515000Y-66040000D03*
%TO.P,U4,4,QE*%
%TO.N,/OPM*%
X59055000Y-66040000D03*
%TO.P,U4,5,QF*%
%TO.N,/NOC*%
X61595000Y-66040000D03*
%TO.P,U4,6,QG*%
%TO.N,/LT*%
X64135000Y-66040000D03*
%TO.P,U4,7,QH*%
%TO.N,unconnected-(U4-Pad7)*%
X66675000Y-66040000D03*
%TO.P,U4,8,GND*%
%TO.N,GND*%
X69215000Y-66040000D03*
%TO.P,U4,9,QH'*%
%TO.N,unconnected-(U4-Pad9)*%
X69215000Y-58420000D03*
%TO.P,U4,10,~{SRCLR}*%
%TO.N,/NMR*%
X66675000Y-58420000D03*
%TO.P,U4,11,SRCLK*%
%TO.N,/SHCP*%
X64135000Y-58420000D03*
%TO.P,U4,12,RCLK*%
%TO.N,/STCP*%
X61595000Y-58420000D03*
%TO.P,U4,13,~{OE}*%
%TO.N,/NOE*%
X59055000Y-58420000D03*
%TO.P,U4,14,SER*%
%TO.N,/SERDATA*%
X56515000Y-58420000D03*
%TO.P,U4,15,QA*%
%TO.N,WD*%
X53975000Y-58420000D03*
%TO.P,U4,16,VCC*%
%TO.N,+5V*%
X51435000Y-58420000D03*
%TD*%
%TO.P,U6,6*%
%TO.N,unconnected-(U6-Pad6)*%
X81915000Y-52197000D03*
%TO.P,U6,5*%
%TO.N,/MODE*%
X81915000Y-49657000D03*
%TO.P,U6,4*%
%TO.N,GND*%
X81915000Y-47117000D03*
%TO.P,U6,3,NC*%
%TO.N,unconnected-(U6-Pad3)*%
X89535000Y-47117000D03*
%TO.P,U6,2*%
%TO.N,Net-(U6-Pad2)*%
X89535000Y-49657000D03*
D10*
%TO.P,U6,1*%
%TO.N,Net-(R2-Pad1)*%
X89535000Y-52197000D03*
%TD*%
D11*
%TO.P,U8,6*%
%TO.N,unconnected-(U8-Pad6)*%
X81915000Y-39850000D03*
%TO.P,U8,5*%
%TO.N,/BCKUP*%
X81915000Y-37310000D03*
%TO.P,U8,4*%
%TO.N,GND*%
X81915000Y-34770000D03*
%TO.P,U8,3,NC*%
%TO.N,unconnected-(U8-Pad3)*%
X89535000Y-34770000D03*
%TO.P,U8,2*%
%TO.N,Net-(J5-Pad1)*%
X89535000Y-37310000D03*
D10*
%TO.P,U8,1*%
%TO.N,Net-(R4-Pad1)*%
X89535000Y-39850000D03*
%TD*%
D11*
%TO.P,U9,6*%
%TO.N,unconnected-(U9-Pad6)*%
X81915000Y-30325000D03*
%TO.P,U9,5*%
%TO.N,/ALARM*%
X81915000Y-27785000D03*
%TO.P,U9,4*%
%TO.N,GND*%
X81915000Y-25245000D03*
%TO.P,U9,3,NC*%
%TO.N,unconnected-(U9-Pad3)*%
X89535000Y-25245000D03*
%TO.P,U9,2*%
%TO.N,Net-(J6-Pad1)*%
X89535000Y-27785000D03*
D10*
%TO.P,U9,1*%
%TO.N,Net-(R5-Pad1)*%
X89535000Y-30325000D03*
%TD*%
D25*
%TO.P,Y1,1,1*%
%TO.N,Net-(C1-Pad1)*%
X56080000Y-42926000D03*
%TO.P,Y1,2,2*%
%TO.N,Net-(C2-Pad1)*%
X60960000Y-42926000D03*
%TD*%
D12*
%TO.P,C4,1*%
%TO.N,WD*%
X44196000Y-65532000D03*
%TO.P,C4,2*%
%TO.N,Net-(C4-Pad2)*%
X41696000Y-65532000D03*
%TD*%
%TO.P,C5,1*%
%TO.N,Net-(C5-Pad1)*%
X27370000Y-67920000D03*
%TO.P,C5,2*%
%TO.N,GND*%
X29870000Y-67920000D03*
%TD*%
D18*
%TO.P,R10,1*%
%TO.N,+5V*%
X27270000Y-64270000D03*
D17*
%TO.P,R10,2*%
%TO.N,Net-(Q8-Pad2)*%
X32350000Y-64270000D03*
%TD*%
D24*
%TO.P,Q8,1,D*%
%TO.N,Net-(Q8-Pad1)*%
X37846000Y-65532000D03*
D23*
%TO.P,Q8,2,G*%
%TO.N,Net-(Q8-Pad2)*%
X36576000Y-65532000D03*
%TO.P,Q8,3,S*%
%TO.N,GND*%
X35306000Y-65532000D03*
%TD*%
D18*
%TO.P,R9,1*%
%TO.N,+5V*%
X27270000Y-61120000D03*
D17*
%TO.P,R9,2*%
%TO.N,Net-(C5-Pad1)*%
X32350000Y-61120000D03*
%TD*%
D10*
%TO.P,U10,1,WD*%
%TO.N,Net-(C4-Pad2)*%
X27940000Y-57150000D03*
D11*
%TO.P,U10,2,TC*%
%TO.N,Net-(C5-Pad1)*%
X30480000Y-57150000D03*
%TO.P,U10,3,RST*%
%TO.N,Net-(Q8-Pad2)*%
X33020000Y-57150000D03*
%TO.P,U10,4,GND*%
%TO.N,GND*%
X35560000Y-57150000D03*
%TO.P,U10,5,ADJ*%
%TO.N,+5V*%
X38100000Y-57150000D03*
%TO.P,U10,6,VCC*%
X40640000Y-57150000D03*
%TO.P,U10,7,RST2*%
%TO.N,unconnected-(U10-Pad7)*%
X43180000Y-57150000D03*
%TD*%
D18*
%TO.P,R11,1*%
%TO.N,+5V*%
X35300000Y-61120000D03*
D17*
%TO.P,R11,2*%
%TO.N,Net-(Q8-Pad1)*%
X40380000Y-61120000D03*
%TD*%
D26*
%TO.N,/SERDATA*%
X49911000Y-68580000D03*
%TO.N,/W_SDO*%
X54610000Y-60452000D03*
%TO.N,/W_SCK*%
X48006000Y-59423500D03*
X46228000Y-67056000D03*
X41656000Y-79756000D03*
X46228000Y-62484000D03*
%TO.N,/W_CSEL*%
X48260000Y-57912000D03*
%TO.N,DRIVE*%
X75438000Y-46990000D03*
%TD*%
D27*
%TO.N,/MODE*%
X78740000Y-53781009D02*
X78740000Y-52832000D01*
X76200000Y-56515000D02*
X76200000Y-56321009D01*
X76200000Y-56321009D02*
X78740000Y-53781009D01*
X78740000Y-52832000D02*
X81915000Y-49657000D01*
%TO.N,/EHS*%
X76200000Y-59055000D02*
X81788000Y-59055000D01*
X81788000Y-59055000D02*
X81915000Y-59182000D01*
X76200000Y-59055000D02*
X74440000Y-57295000D01*
X74440000Y-57295000D02*
X71519000Y-57295000D01*
X71519000Y-57295000D02*
X71120000Y-56896000D01*
X49911000Y-56896000D02*
X48260000Y-55245000D01*
X71120000Y-56896000D02*
X49911000Y-56896000D01*
%TO.N,/SERDATA*%
X55245000Y-63500000D02*
X56515000Y-62230000D01*
X49911000Y-68580000D02*
X53975000Y-68580000D01*
X53975000Y-68580000D02*
X55245000Y-67310000D01*
X55245000Y-67310000D02*
X55245000Y-63500000D01*
X56515000Y-62230000D02*
X56515000Y-58420000D01*
X39370000Y-86305000D02*
X43713321Y-81961679D01*
X43713321Y-81961679D02*
X43713321Y-74768179D01*
X43713321Y-74768179D02*
X45075500Y-73406000D01*
%TO.N,/W_SDO*%
X54610000Y-60452000D02*
X48443601Y-66618399D01*
X48443601Y-66618399D02*
X48443601Y-82311399D01*
X48443601Y-82311399D02*
X46990000Y-83765000D01*
%TO.N,/W_SCK*%
X46228000Y-62484000D02*
X46228000Y-61201500D01*
X46228000Y-67270896D02*
X46228000Y-67056000D01*
X41656000Y-79756000D02*
X41656000Y-71842896D01*
X41656000Y-71842896D02*
X46228000Y-67270896D01*
X46228000Y-61201500D02*
X48006000Y-59423500D01*
%TO.N,Net-(Q8-Pad1)*%
X40380000Y-61120000D02*
X41910000Y-59590000D01*
X41910000Y-54610000D02*
X47244000Y-49276000D01*
X41910000Y-59590000D02*
X41910000Y-54610000D01*
X47244000Y-49276000D02*
X69469000Y-49276000D01*
X69469000Y-49276000D02*
X71120000Y-47625000D01*
%TO.N,/W_CSEL*%
X42944699Y-63227301D02*
X42944699Y-69917801D01*
X48260000Y-57912000D02*
X42944699Y-63227301D01*
X42944699Y-69917801D02*
X39456500Y-73406000D01*
X32227500Y-75946000D02*
X39370000Y-75946000D01*
X39370000Y-75946000D02*
X40386000Y-75946000D01*
X39456500Y-73406000D02*
X39456500Y-75859500D01*
X39456500Y-75859500D02*
X39370000Y-75946000D01*
X39370000Y-81225000D02*
X39370000Y-81026000D01*
X39370000Y-81026000D02*
X40640000Y-79756000D01*
X40386000Y-75946000D02*
X40640000Y-76200000D01*
X40640000Y-76200000D02*
X40640000Y-79756000D01*
D28*
%TO.N,GND*%
X29210000Y-88845000D02*
X31551000Y-91186000D01*
X31551000Y-91186000D02*
X37029000Y-91186000D01*
X37029000Y-91186000D02*
X39370000Y-88845000D01*
D27*
%TO.N,/DHWA*%
X52070000Y-95758000D02*
X54356000Y-93472000D01*
X52070000Y-95885000D02*
X52070000Y-95758000D01*
X54356000Y-93472000D02*
X54356000Y-79384000D01*
X54356000Y-79384000D02*
X56905000Y-76835000D01*
%TO.N,/DSETA*%
X74483000Y-93472000D02*
X74676000Y-93472000D01*
X72070000Y-95885000D02*
X74483000Y-93472000D01*
X74676000Y-93472000D02*
X74676000Y-79130000D01*
X74676000Y-79130000D02*
X76971000Y-76835000D01*
%TO.N,/OPMA*%
X82169000Y-95885000D02*
X84582000Y-93472000D01*
X82070000Y-95885000D02*
X82169000Y-95885000D01*
X84582000Y-93472000D02*
X84582000Y-79257000D01*
X84582000Y-79257000D02*
X87004000Y-76835000D01*
%TO.N,/NOCA*%
X92070000Y-95885000D02*
X94742000Y-93213000D01*
X94742000Y-93213000D02*
X94742000Y-79130000D01*
X94742000Y-79130000D02*
X97037000Y-76835000D01*
%TO.N,/LTA*%
X102070000Y-95885000D02*
X104648000Y-93307000D01*
X104648000Y-93307000D02*
X104648000Y-79257000D01*
X104648000Y-79257000D02*
X107070000Y-76835000D01*
%TO.N,/ONA*%
X62070000Y-94394000D02*
X64770000Y-91694000D01*
X62070000Y-95885000D02*
X62070000Y-94394000D01*
X64770000Y-79003000D02*
X66938000Y-76835000D01*
X64770000Y-91694000D02*
X64770000Y-79003000D01*
D28*
%TO.N,GND*%
X65786000Y-69850000D02*
X69342000Y-69850000D01*
X69342000Y-69850000D02*
X75692000Y-69850000D01*
X69215000Y-66040000D02*
X69215000Y-69723000D01*
X69215000Y-69723000D02*
X69342000Y-69850000D01*
X59690000Y-69850000D02*
X65786000Y-69850000D01*
X65668000Y-71480000D02*
X65668000Y-69968000D01*
X65668000Y-69968000D02*
X65786000Y-69850000D01*
X75692000Y-69850000D02*
X85852000Y-69850000D01*
X75701000Y-71480000D02*
X75701000Y-69859000D01*
X75701000Y-69859000D02*
X75692000Y-69850000D01*
X85852000Y-69850000D02*
X95758000Y-69850000D01*
X85734000Y-71480000D02*
X85734000Y-69968000D01*
X85734000Y-69968000D02*
X85852000Y-69850000D01*
X95758000Y-69850000D02*
X104902000Y-69850000D01*
X95767000Y-71480000D02*
X95767000Y-69859000D01*
X95767000Y-69859000D02*
X95758000Y-69850000D01*
X104902000Y-69850000D02*
X105800000Y-70748000D01*
X105800000Y-70748000D02*
X105800000Y-71480000D01*
X55635000Y-71480000D02*
X58060000Y-71480000D01*
X58060000Y-71480000D02*
X59690000Y-69850000D01*
D27*
%TO.N,/BCKUP*%
X78232000Y-51943000D02*
X78232000Y-39370000D01*
X76200000Y-53975000D02*
X78232000Y-51943000D01*
X78232000Y-39370000D02*
X80292000Y-37310000D01*
X80292000Y-37310000D02*
X81915000Y-37310000D01*
%TO.N,/ALARM*%
X81915000Y-27785000D02*
X76200000Y-33500000D01*
X76200000Y-33500000D02*
X76200000Y-51435000D01*
%TO.N,Net-(Q8-Pad1)*%
X37846000Y-65532000D02*
X37846000Y-63654000D01*
X37846000Y-63654000D02*
X40380000Y-61120000D01*
%TO.N,WD*%
X44196000Y-65532000D02*
X46863000Y-65532000D01*
X46863000Y-65532000D02*
X53975000Y-58420000D01*
%TO.N,Net-(C4-Pad2)*%
X41696000Y-65532000D02*
X40288110Y-66939890D01*
X28484590Y-62012590D02*
X28484590Y-57694590D01*
X40288110Y-66939890D02*
X33411890Y-66939890D01*
X28484590Y-57694590D02*
X27940000Y-57150000D01*
X33411890Y-66939890D02*
X28484590Y-62012590D01*
%TO.N,Net-(Q8-Pad2)*%
X33020000Y-57150000D02*
X33819999Y-57949999D01*
X33819999Y-62800001D02*
X32350000Y-64270000D01*
X33819999Y-57949999D02*
X33819999Y-62800001D01*
%TO.N,Net-(C5-Pad1)*%
X30480000Y-57150000D02*
X30480000Y-59250000D01*
X30480000Y-59250000D02*
X32350000Y-61120000D01*
%TO.N,DRIVE*%
X75438000Y-46990000D02*
X75438000Y-34798000D01*
X75438000Y-34798000D02*
X73660000Y-33020000D01*
D28*
%TO.N,+5V*%
X68072000Y-35560000D02*
X73406000Y-40894000D01*
X73406000Y-52959000D02*
X71120000Y-55245000D01*
X66040000Y-35560000D02*
X68072000Y-35560000D01*
X73406000Y-40894000D02*
X73406000Y-52959000D01*
%TD*%
M02*
