M48
; DRILL file {KiCad 6.0.7} date 2022. szept. 29., csütörtök, 13:59:01 CEST
; FORMAT={-:-/ absolute / metric / decimal}
; #@! TF.CreationDate,2022-09-29T13:59:01+02:00
; #@! TF.GenerationSoftware,Kicad,Pcbnew,6.0.7
; #@! TF.FileFunction,Plated,1,2,PTH
FMAT,2
METRIC
; #@! TA.AperFunction,Plated,PTH,ViaDrill
T1C0.400
; #@! TA.AperFunction,Plated,PTH,ComponentDrill
T2C0.700
; #@! TA.AperFunction,Plated,PTH,ComponentDrill
T3C0.750
; #@! TA.AperFunction,Plated,PTH,ComponentDrill
T4C0.800
; #@! TA.AperFunction,Plated,PTH,ComponentDrill
T5C0.900
; #@! TA.AperFunction,Plated,PTH,ComponentDrill
T6C1.000
; #@! TA.AperFunction,Plated,PTH,ComponentDrill
T7C1.300
%
G90
G05
T1
X41.656Y-79.756
X46.228Y-62.484
X46.228Y-67.056
X48.006Y-59.423
X48.26Y-57.912
X49.911Y-68.58
X54.61Y-60.452
X75.438Y-46.99
T2
X27.27Y-61.12
X27.27Y-64.27
X32.35Y-61.12
X32.35Y-64.27
X35.3Y-61.12
X36.322Y-73.406
X36.322Y-78.486
X39.456Y-73.406
X39.456Y-78.486
X40.38Y-61.12
X45.075Y-73.406
X45.075Y-78.486
X52.07Y-29.464
X52.07Y-34.544
T3
X32.227Y-74.676
X32.227Y-75.946
X32.227Y-77.216
X35.306Y-65.532
X36.576Y-65.532
X37.846Y-65.532
X53.095Y-71.48
X54.365Y-71.48
X55.635Y-71.48
X63.128Y-71.48
X64.398Y-71.48
X65.668Y-71.48
X73.161Y-71.48
X74.431Y-71.48
X75.701Y-71.48
X83.194Y-71.48
X84.464Y-71.48
X85.734Y-71.48
X93.227Y-71.48
X94.497Y-71.48
X95.767Y-71.48
X103.26Y-71.48
X104.53Y-71.48
X105.8Y-71.48
T4
X27.37Y-67.92
X27.94Y-57.15
X29.21Y-81.225
X29.21Y-83.765
X29.21Y-86.305
X29.21Y-88.845
X29.87Y-67.92
X30.48Y-57.15
X32.044Y-51.816
X33.02Y-57.15
X34.544Y-51.816
X35.56Y-57.15
X36.83Y-81.225
X36.83Y-83.765
X36.83Y-86.305
X36.83Y-88.845
X38.1Y-57.15
X39.37Y-81.225
X39.37Y-83.765
X39.37Y-86.305
X39.37Y-88.845
X40.64Y-57.15
X41.696Y-65.532
X43.18Y-57.15
X44.196Y-65.532
X46.99Y-81.225
X46.99Y-83.765
X46.99Y-86.305
X46.99Y-88.845
X48.26Y-47.625
X48.26Y-55.245
X50.8Y-47.625
X50.8Y-55.245
X51.435Y-58.42
X51.435Y-66.04
X53.34Y-47.625
X53.34Y-55.245
X53.975Y-58.42
X53.975Y-66.04
X55.88Y-47.625
X55.88Y-55.245
X56.08Y-42.926
X56.515Y-58.42
X56.515Y-66.04
X58.42Y-47.625
X58.42Y-55.245
X59.055Y-58.42
X59.055Y-66.04
X60.96Y-42.926
X60.96Y-47.625
X60.96Y-55.245
X61.595Y-58.42
X61.595Y-66.04
X63.5Y-47.625
X63.5Y-55.245
X64.135Y-58.42
X64.135Y-66.04
X66.04Y-27.94
X66.04Y-30.48
X66.04Y-33.02
X66.04Y-35.56
X66.04Y-47.625
X66.04Y-55.245
X66.675Y-58.42
X66.675Y-66.04
X67.31Y-41.91
X67.31Y-44.41
X68.58Y-47.625
X68.58Y-55.245
X69.215Y-58.42
X69.215Y-66.04
X71.12Y-41.91
X71.12Y-44.41
X71.12Y-47.625
X71.12Y-55.245
X73.66Y-27.94
X73.66Y-30.48
X73.66Y-33.02
X73.66Y-35.56
X76.2Y-51.435
X76.2Y-53.975
X76.2Y-56.515
X76.2Y-59.055
X76.2Y-61.595
X81.915Y-25.245
X81.915Y-27.785
X81.915Y-30.325
X81.915Y-34.77
X81.915Y-37.31
X81.915Y-39.85
X81.915Y-47.117
X81.915Y-49.657
X81.915Y-52.197
X81.915Y-56.642
X81.915Y-59.182
X81.915Y-61.722
X89.535Y-25.245
X89.535Y-27.785
X89.535Y-30.325
X89.535Y-34.77
X89.535Y-37.31
X89.535Y-39.85
X89.535Y-47.117
X89.535Y-49.657
X89.535Y-52.197
X89.535Y-56.642
X89.535Y-59.182
X89.535Y-61.722
X93.095Y-24.63
X93.095Y-39.87
X93.472Y-46.736
X93.472Y-61.976
X96.905Y-24.63
X96.905Y-39.87
X97.282Y-46.736
X97.282Y-61.976
T5
X40.386Y-27.432
X40.386Y-37.592
X40.64Y-41.656
X40.64Y-51.816
X44.45Y-27.432
X44.45Y-37.592
X48.26Y-34.29
X48.26Y-44.45
T6
X51.825Y-76.835
X51.825Y-79.375
X51.825Y-86.995
X56.905Y-76.835
X56.905Y-79.375
X56.905Y-86.995
X61.858Y-76.835
X61.858Y-79.375
X61.858Y-86.995
X66.938Y-76.835
X66.938Y-79.375
X66.938Y-86.995
X71.891Y-76.835
X71.891Y-79.375
X71.891Y-86.995
X76.971Y-76.835
X76.971Y-79.375
X76.971Y-86.995
X81.924Y-76.835
X81.924Y-79.375
X81.924Y-86.995
X87.004Y-76.835
X87.004Y-79.375
X87.004Y-86.995
X91.957Y-76.835
X91.957Y-79.375
X91.957Y-86.995
X97.037Y-76.835
X97.037Y-79.375
X97.037Y-86.995
X101.99Y-76.835
X101.99Y-79.375
X101.99Y-86.995
X107.07Y-76.835
X107.07Y-79.375
X107.07Y-86.995
T7
X30.395Y-96.135
X31.75Y-30.0
X31.75Y-35.0
X31.75Y-40.0
X31.75Y-45.0
X35.395Y-96.135
X40.555Y-96.135
X45.555Y-96.135
X52.07Y-95.885
X57.07Y-95.885
X62.07Y-95.885
X67.07Y-95.885
X72.07Y-95.885
X77.07Y-95.885
X82.07Y-95.885
X87.07Y-95.885
X92.07Y-95.885
X97.07Y-95.885
X102.07Y-95.885
X106.045Y-26.515
X106.045Y-31.515
X106.045Y-36.515
X106.045Y-41.515
X106.045Y-46.515
X106.045Y-51.515
X106.045Y-56.515
X106.045Y-61.515
X107.07Y-95.885
T0
M30
