%TF.GenerationSoftware,KiCad,Pcbnew,6.0.7*%
%TF.CreationDate,2022-09-29T13:58:53+02:00*%
%TF.ProjectId,HP_device,48505f64-6576-4696-9365-2e6b69636164,rev?*%
%TF.SameCoordinates,Original*%
%TF.FileFunction,Legend,Bot*%
%TF.FilePolarity,Positive*%
%FSLAX46Y46*%
G04 Gerber Fmt 4.6, Leading zero omitted, Abs format (unit mm)*
G04 Created by KiCad (PCBNEW 6.0.7) date 2022-09-29 13:58:53*
%MOMM*%
%LPD*%
G01*
G04 APERTURE LIST*
%ADD10C,0.150000*%
%ADD11C,0.300000*%
%ADD12C,0.120000*%
G04 APERTURE END LIST*
D10*
X112952380Y-76880952D02*
X113666666Y-76880952D01*
X113809523Y-76833333D01*
X113904761Y-76738095D01*
X113952380Y-76595238D01*
X113952380Y-76500000D01*
X113952380Y-77833333D02*
X113952380Y-77357142D01*
X112952380Y-77357142D01*
X113857142Y-78738095D02*
X113904761Y-78690476D01*
X113952380Y-78547619D01*
X113952380Y-78452380D01*
X113904761Y-78309523D01*
X113809523Y-78214285D01*
X113714285Y-78166666D01*
X113523809Y-78119047D01*
X113380952Y-78119047D01*
X113190476Y-78166666D01*
X113095238Y-78214285D01*
X113000000Y-78309523D01*
X112952380Y-78452380D01*
X112952380Y-78547619D01*
X113000000Y-78690476D01*
X113047619Y-78738095D01*
X112952380Y-79452380D02*
X113666666Y-79452380D01*
X113809523Y-79404761D01*
X113904761Y-79309523D01*
X113952380Y-79166666D01*
X113952380Y-79071428D01*
X113952380Y-80404761D02*
X113952380Y-79928571D01*
X112952380Y-79928571D01*
X113857142Y-81309523D02*
X113904761Y-81261904D01*
X113952380Y-81119047D01*
X113952380Y-81023809D01*
X113904761Y-80880952D01*
X113809523Y-80785714D01*
X113714285Y-80738095D01*
X113523809Y-80690476D01*
X113380952Y-80690476D01*
X113190476Y-80738095D01*
X113095238Y-80785714D01*
X113000000Y-80880952D01*
X112952380Y-81023809D01*
X112952380Y-81119047D01*
X113000000Y-81261904D01*
X113047619Y-81309523D01*
X112952380Y-82023809D02*
X113666666Y-82023809D01*
X113809523Y-81976190D01*
X113904761Y-81880952D01*
X113952380Y-81738095D01*
X113952380Y-81642857D01*
X113952380Y-82976190D02*
X113952380Y-82500000D01*
X112952380Y-82500000D01*
X113857142Y-83880952D02*
X113904761Y-83833333D01*
X113952380Y-83690476D01*
X113952380Y-83595238D01*
X113904761Y-83452380D01*
X113809523Y-83357142D01*
X113714285Y-83309523D01*
X113523809Y-83261904D01*
X113380952Y-83261904D01*
X113190476Y-83309523D01*
X113095238Y-83357142D01*
X113000000Y-83452380D01*
X112952380Y-83595238D01*
X112952380Y-83690476D01*
X113000000Y-83833333D01*
X113047619Y-83880952D01*
X112952380Y-84595238D02*
X113666666Y-84595238D01*
X113809523Y-84547619D01*
X113904761Y-84452380D01*
X113952380Y-84309523D01*
X113952380Y-84214285D01*
X113952380Y-85547619D02*
X113952380Y-85071428D01*
X112952380Y-85071428D01*
X113857142Y-86452380D02*
X113904761Y-86404761D01*
X113952380Y-86261904D01*
X113952380Y-86166666D01*
X113904761Y-86023809D01*
X113809523Y-85928571D01*
X113714285Y-85880952D01*
X113523809Y-85833333D01*
X113380952Y-85833333D01*
X113190476Y-85880952D01*
X113095238Y-85928571D01*
X113000000Y-86023809D01*
X112952380Y-86166666D01*
X112952380Y-86261904D01*
X113000000Y-86404761D01*
X113047619Y-86452380D01*
X80261904Y-45500000D02*
X80357142Y-45452380D01*
X80500000Y-45452380D01*
X80642857Y-45500000D01*
X80738095Y-45595238D01*
X80785714Y-45690476D01*
X80833333Y-45880952D01*
X80833333Y-46023809D01*
X80785714Y-46214285D01*
X80738095Y-46309523D01*
X80642857Y-46404761D01*
X80500000Y-46452380D01*
X80404761Y-46452380D01*
X80261904Y-46404761D01*
X80214285Y-46357142D01*
X80214285Y-46023809D01*
X80404761Y-46023809D01*
X79785714Y-46452380D02*
X79785714Y-45452380D01*
X79214285Y-46452380D01*
X79214285Y-45452380D01*
X78738095Y-46452380D02*
X78738095Y-45452380D01*
X78500000Y-45452380D01*
X78357142Y-45500000D01*
X78261904Y-45595238D01*
X78214285Y-45690476D01*
X78166666Y-45880952D01*
X78166666Y-46023809D01*
X78214285Y-46214285D01*
X78261904Y-46309523D01*
X78357142Y-46404761D01*
X78500000Y-46452380D01*
X78738095Y-46452380D01*
D11*
X103700000Y-44404761D02*
X103700000Y-42404761D01*
X103100000Y-43833333D01*
X102500000Y-42404761D01*
X102500000Y-44404761D01*
X101728571Y-43833333D02*
X100871428Y-43833333D01*
X101900000Y-44404761D02*
X101300000Y-42404761D01*
X100700000Y-44404761D01*
X100100000Y-44404761D02*
X100100000Y-42404761D01*
X99242857Y-44404761D02*
X99242857Y-42404761D01*
X98214285Y-44404761D01*
X98214285Y-42404761D01*
X97442857Y-44309523D02*
X97185714Y-44404761D01*
X96757142Y-44404761D01*
X96585714Y-44309523D01*
X96500000Y-44214285D01*
X96414285Y-44023809D01*
X96414285Y-43833333D01*
X96500000Y-43642857D01*
X96585714Y-43547619D01*
X96757142Y-43452380D01*
X97100000Y-43357142D01*
X97271428Y-43261904D01*
X97357142Y-43166666D01*
X97442857Y-42976190D01*
X97442857Y-42785714D01*
X97357142Y-42595238D01*
X97271428Y-42500000D01*
X97100000Y-42404761D01*
X96671428Y-42404761D01*
X96414285Y-42500000D01*
X94357142Y-43833333D02*
X93500000Y-43833333D01*
X94528571Y-44404761D02*
X93928571Y-42404761D01*
X93328571Y-44404761D01*
X92728571Y-44404761D02*
X92728571Y-43071428D01*
X92728571Y-43452380D02*
X92642857Y-43261904D01*
X92557142Y-43166666D01*
X92385714Y-43071428D01*
X92214285Y-43071428D01*
X90928571Y-44309523D02*
X91100000Y-44404761D01*
X91442857Y-44404761D01*
X91614285Y-44309523D01*
X91700000Y-44119047D01*
X91700000Y-43357142D01*
X91614285Y-43166666D01*
X91442857Y-43071428D01*
X91100000Y-43071428D01*
X90928571Y-43166666D01*
X90842857Y-43357142D01*
X90842857Y-43547619D01*
X91700000Y-43738095D01*
X89300000Y-44404761D02*
X89300000Y-43357142D01*
X89385714Y-43166666D01*
X89557142Y-43071428D01*
X89900000Y-43071428D01*
X90071428Y-43166666D01*
X89300000Y-44309523D02*
X89471428Y-44404761D01*
X89900000Y-44404761D01*
X90071428Y-44309523D01*
X90157142Y-44119047D01*
X90157142Y-43928571D01*
X90071428Y-43738095D01*
X89900000Y-43642857D01*
X89471428Y-43642857D01*
X89300000Y-43547619D01*
D12*
X111500000Y-22000000D02*
X88000000Y-22000000D01*
X88000000Y-22000000D02*
X88000000Y-66500000D01*
X88000000Y-66500000D02*
X111500000Y-66500000D01*
X111500000Y-66500000D02*
X111500000Y-22000000D01*
D10*
X74285714Y-61571428D02*
X73523809Y-61571428D01*
X73904761Y-61952380D02*
X73904761Y-61190476D01*
X72571428Y-60952380D02*
X73047619Y-60952380D01*
X73095238Y-61428571D01*
X73047619Y-61380952D01*
X72952380Y-61333333D01*
X72714285Y-61333333D01*
X72619047Y-61380952D01*
X72571428Y-61428571D01*
X72523809Y-61523809D01*
X72523809Y-61761904D01*
X72571428Y-61857142D01*
X72619047Y-61904761D01*
X72714285Y-61952380D01*
X72952380Y-61952380D01*
X73047619Y-61904761D01*
X73095238Y-61857142D01*
X72238095Y-60952380D02*
X71904761Y-61952380D01*
X71571428Y-60952380D01*
X79761904Y-24000000D02*
X79857142Y-23952380D01*
X80000000Y-23952380D01*
X80142857Y-24000000D01*
X80238095Y-24095238D01*
X80285714Y-24190476D01*
X80333333Y-24380952D01*
X80333333Y-24523809D01*
X80285714Y-24714285D01*
X80238095Y-24809523D01*
X80142857Y-24904761D01*
X80000000Y-24952380D01*
X79904761Y-24952380D01*
X79761904Y-24904761D01*
X79714285Y-24857142D01*
X79714285Y-24523809D01*
X79904761Y-24523809D01*
X79285714Y-24952380D02*
X79285714Y-23952380D01*
X78714285Y-24952380D01*
X78714285Y-23952380D01*
X78238095Y-24952380D02*
X78238095Y-23952380D01*
X78000000Y-23952380D01*
X77857142Y-24000000D01*
X77761904Y-24095238D01*
X77714285Y-24190476D01*
X77666666Y-24380952D01*
X77666666Y-24523809D01*
X77714285Y-24714285D01*
X77761904Y-24809523D01*
X77857142Y-24904761D01*
X78000000Y-24952380D01*
X78238095Y-24952380D01*
X44785714Y-52071428D02*
X44023809Y-52071428D01*
X44404761Y-52452380D02*
X44404761Y-51690476D01*
X43071428Y-51452380D02*
X43547619Y-51452380D01*
X43595238Y-51928571D01*
X43547619Y-51880952D01*
X43452380Y-51833333D01*
X43214285Y-51833333D01*
X43119047Y-51880952D01*
X43071428Y-51928571D01*
X43023809Y-52023809D01*
X43023809Y-52261904D01*
X43071428Y-52357142D01*
X43119047Y-52404761D01*
X43214285Y-52452380D01*
X43452380Y-52452380D01*
X43547619Y-52404761D01*
X43595238Y-52357142D01*
X42738095Y-51452380D02*
X42404761Y-52452380D01*
X42071428Y-51452380D01*
X34928571Y-34928571D02*
X34785714Y-34976190D01*
X34738095Y-35023809D01*
X34690476Y-35119047D01*
X34690476Y-35261904D01*
X34738095Y-35357142D01*
X34785714Y-35404761D01*
X34880952Y-35452380D01*
X35261904Y-35452380D01*
X35261904Y-34452380D01*
X34928571Y-34452380D01*
X34833333Y-34500000D01*
X34785714Y-34547619D01*
X34738095Y-34642857D01*
X34738095Y-34738095D01*
X34785714Y-34833333D01*
X34833333Y-34880952D01*
X34928571Y-34928571D01*
X35261904Y-34928571D01*
X35238095Y-29166666D02*
X34761904Y-29166666D01*
X35333333Y-29452380D02*
X35000000Y-28452380D01*
X34666666Y-29452380D01*
X36785714Y-44071428D02*
X36023809Y-44071428D01*
X36404761Y-44452380D02*
X36404761Y-43690476D01*
X35071428Y-43452380D02*
X35547619Y-43452380D01*
X35595238Y-43928571D01*
X35547619Y-43880952D01*
X35452380Y-43833333D01*
X35214285Y-43833333D01*
X35119047Y-43880952D01*
X35071428Y-43928571D01*
X35023809Y-44023809D01*
X35023809Y-44261904D01*
X35071428Y-44357142D01*
X35119047Y-44404761D01*
X35214285Y-44452380D01*
X35452380Y-44452380D01*
X35547619Y-44404761D01*
X35595238Y-44357142D01*
X34738095Y-43452380D02*
X34404761Y-44452380D01*
X34071428Y-43452380D01*
X35761904Y-38500000D02*
X35857142Y-38452380D01*
X36000000Y-38452380D01*
X36142857Y-38500000D01*
X36238095Y-38595238D01*
X36285714Y-38690476D01*
X36333333Y-38880952D01*
X36333333Y-39023809D01*
X36285714Y-39214285D01*
X36238095Y-39309523D01*
X36142857Y-39404761D01*
X36000000Y-39452380D01*
X35904761Y-39452380D01*
X35761904Y-39404761D01*
X35714285Y-39357142D01*
X35714285Y-39023809D01*
X35904761Y-39023809D01*
X35285714Y-39452380D02*
X35285714Y-38452380D01*
X34714285Y-39452380D01*
X34714285Y-38452380D01*
X34238095Y-39452380D02*
X34238095Y-38452380D01*
X34000000Y-38452380D01*
X33857142Y-38500000D01*
X33761904Y-38595238D01*
X33714285Y-38690476D01*
X33666666Y-38880952D01*
X33666666Y-39023809D01*
X33714285Y-39214285D01*
X33761904Y-39309523D01*
X33857142Y-39404761D01*
X34000000Y-39452380D01*
X34238095Y-39452380D01*
M02*
